<?xml version="1.0" encoding="UTF-8" standalone="no"?>
<svg width="19px" height="25px" viewBox="0 0 19 25" version="1.1" xmlns="http://www.w3.org/2000/svg" xmlns:xlink="http://www.w3.org/1999/xlink" xmlns:sketch="http://www.bohemiancoding.com/sketch/ns">
    <!-- Generator: Sketch 3.5.1 (25234) - http://www.bohemiancoding.com/sketch -->
    <title>filter-nut-free</title>
    <desc>Created with Sketch.</desc>
    <defs></defs>
    <g id="Page-1" stroke="none" stroke-width="1" fill="none" fill-rule="evenodd" sketch:type="MSPage">
        <g id="filter-sprites-23x27-1bdec2050d7d023d1835d5d890ae5152_1" sketch:type="MSLayerGroup" transform="translate(0.000000, -252.000000)">
            <g id="filter-nut-free" transform="translate(0.000000, 252.000000)" sketch:type="MSShapeGroup">
                <g id="XMLID_2_" transform="translate(9.000000, 0.000000)">
                    <path d="M5.4,14.7 C5.4,14.7 5.4,14.6 5.4,14.7 L7.5,14.6 L7.6,14.6 C7.6,15.9 7.4,18.5 5.5,18.5 C5.5,18.5 5.5,18.5 5.4,18.5 L5.4,14.7 L5.4,14.7 Z" id="Shape" fill="#FFFFFF"></path>
                    <path d="M2.3,14.6 L4.3,14.6 L4.3,14.6 L4.3,14.6 L4.3,14.6 L4.3,18.5 C4.3,18.5 4.3,18.5 4.2,18.5 C2.6,18.5 2.2,15.9 2.3,14.6 L2.3,14.6 L2.3,14.6 Z" id="Shape" fill="#FFFFFF"></path>
                    <path d="M5.4,10.7 C5.4,10.7 5.5,10.6 5.4,10.7 L5.9,10.6 L6,10.6 L6.1,10.7 L7,12.7 L7.2,13.6 L7.2,13.6 L7.2,13.6 L5.6,13.6 L5.5,13.6 C5.4,13.6 5.4,10.7 5.4,10.7 L5.4,10.7 Z" id="Shape" fill="#FFFFFF"></path>
                    <path d="M2.7,13.5 L2.9,12.6 L3.6,10.9 C3.6,10.9 3.7,10.8 3.7,10.6 L3.8,10.6 L4.3,10.6 L4.3,10.6 L4.3,13.4 C4.3,13.4 4.3,13.4 4.2,13.4 L4.2,13.4 L4.2,13.4 L2.7,13.5 C2.8,13.6 2.7,13.6 2.7,13.5 L2.7,13.5 Z" id="Shape" fill="#FFFFFF"></path>
                    <path d="M5.6,9.6 L5.5,9.5 L5.5,6.7 L5.6,6.6 L7.2,6.6 L7.2,6.6 L7.2,6.7 L7.1,7.1 L6.3,9.5 L6.3,9.5 C6.3,9.5 6.3,9.5 6.2,9.5 L5.6,9.5 L5.6,9.6 Z" id="Shape" fill="#FFFFFF"></path>
                    <path d="M3.6,9.5 L2.8,7.1 L2.6,6.6 L2.6,6.6 L4.1,6.6 L4.2,6.7 L4.2,9.5 L4.2,9.5 L4.1,9.6 L3.6,9.5 C3.7,9.6 3.7,9.6 3.6,9.5 L3.6,9.5 L3.6,9.5 Z" id="Shape" fill="#FFFFFF"></path>
                    <path d="M5.5,5.6 C5.5,5.5 5.4,5.5 5.5,5.6 L5.4,1.7 L5.5,1.7 C7.3,1.7 7.5,4.2 7.5,5.5 L7.5,5.5 C7.5,5.5 7.4,5.5 7.4,5.6 L7.4,5.6 L5.5,5.6 L5.5,5.6 Z" id="Shape" fill="#FFFFFF"></path>
                    <path d="M2.2,5.5 C2.2,4.1 2.5,1.7 4.3,1.7 L4.3,1.7 C4.3,1.7 4.3,1.8 4.4,1.8 L4.4,5.6 C4.4,5.6 4.3,5.6 4.3,5.7 L2.3,5.7 L2.3,5.7 C2.3,5.7 2.3,5.5 2.2,5.5 L2.2,5.5 L2.2,5.5 Z" id="Shape" fill="#FFFFFF"></path>
                    <path d="M2.9,12.6 L2.7,13.5 L2.8,13.5 L4.3,13.5 L4.3,13.5 L4.3,13.5 L4.4,13.5 L4.4,10.7 L4.4,10.7 L3.9,10.7 C3.9,10.7 3.9,10.7 3.8,10.7 C3.8,10.9 3.7,11 3.7,11 L2.9,12.6 L2.9,12.6 Z M2.9,7.1 L3.7,9.5 L3.7,9.5 C3.7,9.5 3.8,9.5 3.8,9.6 L4.4,9.6 C4.4,9.6 4.4,9.5 4.5,9.5 L4.5,9.5 L4.5,6.7 C4.4,6.7 4.4,6.6 4.4,6.6 L2.9,6.6 L2.9,6.6 L2.9,7.1 L2.9,7.1 Z M4.3,14.6 L2.3,14.6 L2.3,14.6 C2.3,15.8 2.6,18.5 4.4,18.5 L4.5,18.5 L4.3,14.6 C4.4,14.7 4.4,14.6 4.3,14.6 L4.3,14.6 L4.3,14.6 L4.3,14.6 Z M2.3,5.6 L2.3,5.6 L4.3,5.6 C4.3,5.6 4.4,5.6 4.4,5.5 L4.4,1.7 C4.4,1.7 4.4,1.6 4.3,1.6 L4.3,1.6 C2.5,1.6 2.2,4 2.2,5.4 C2.2,5.5 2.2,5.5 2.3,5.6 C2.3,5.5 2.3,5.5 2.3,5.6 L2.3,5.6 Z M9.5,15.6 C9.5,18.3 7.7,20.5 5,20.6 L5,20.6 L5,20.6 L4.9,20.6 C4.9,20.6 4.9,20.6 4.8,20.6 C2,20.5 0.3,18.3 0.3,15.6 C0.3,15.2 0.4,14.7 0.5,14.2 L0.5,14.2 L0.5,14.2 L0.5,14.2 L0.6,14 C0.7,13.8 0.7,13.7 0.8,13.5 L1.7,11.5 L1.7,11.5 C1.9,11.1 2,10.7 2,10.3 C2,9.9 1.9,9.4 1.7,9.1 L1.7,9.1 L0.8,7.1 C0.7,7 0.7,6.8 0.6,6.6 L0.5,6.4 L0.5,6.4 L0.5,6.4 L0.5,6.4 C0.3,5.9 0.3,5.4 0.3,5 C0.3,2.3 2.1,0.1 4.8,1.13686838e-13 L4.8,1.13686838e-13 L4.8,1.13686838e-13 L4.9,1.13686838e-13 L4.9,1.13686838e-13 C7.7,0.1 9.4,2.3 9.4,5 C9.4,5.5 9.3,5.9 9.2,6.4 L9.2,6.4 L9.2,6.4 L9.2,6.4 L9.1,6.6 C9,6.8 9,6.9 8.9,7.1 L8,9.1 L8,9.1 C7.8,9.5 7.7,9.9 7.7,10.3 C7.7,10.7 7.8,11.2 8,11.5 L8,11.5 L8.9,13.5 C9,13.6 9,13.8 9.1,14 L9.2,14.2 L9.2,14.2 L9.2,14.2 L9.2,14.2 C9.5,14.7 9.5,15.1 9.5,15.6 L9.5,15.6 Z M5.5,10.6 C5.5,10.6 5.4,10.6 5.5,10.6 L5.4,13.5 L5.5,13.5 L7.1,13.5 L7.1,13.5 L7.1,13.5 L6.9,12.6 L6,10.6 L5.9,10.5 L5.8,10.5 L5.5,10.6 L5.5,10.6 L5.5,10.6 Z M7.5,14.6 L5.4,14.6 C5.4,14.6 5.4,14.6 5.4,14.7 L5.4,18.5 L5.5,18.5 C7.4,18.5 7.6,16 7.5,14.6 L7.5,14.6 L7.5,14.6 Z M5.4,9.5 C5.5,9.5 5.5,9.5 5.5,9.6 L6.1,9.6 L6.2,9.6 L6.2,9.6 L7,7.2 L7.1,6.8 L7.1,6.7 L7.1,6.7 L5.5,6.7 L5.4,6.8 C5.4,6.7 5.4,9.5 5.4,9.5 L5.4,9.5 Z M5.4,5.5 L5.4,5.5 L7.4,5.6 L7.4,5.6 L7.5,5.5 L7.5,5.5 C7.5,4.1 7.2,1.7 5.5,1.7 L5.4,1.7 L5.4,5.5 L5.4,5.5 Z" id="Shape" fill="#43413E"></path>
                </g>
                <path d="M1.7,22.1 L7.2,16.6 L8,17.4 L2.6,23 L1.7,22.1 L1.7,22.1 Z" id="Shape" fill="#F15B24"></path>
                <path d="M4.9,15.6 C2.4,15.6 0.4,17.6 0.4,20.1 C0.4,22.6 2.4,24.6 4.9,24.6 C7.4,24.6 9.4,22.6 9.4,20.1 C9.4,17.6 7.4,15.6 4.9,15.6 L4.9,15.6 Z M4.9,23.3 C3.2,23.3 1.8,21.9 1.8,20.2 C1.8,18.5 3.2,17.1 4.9,17.1 C6.6,17.1 8,18.5 8,20.2 C8,21.9 6.6,23.3 4.9,23.3 L4.9,23.3 Z" id="Shape" fill="#F15B24"></path>
            </g>
        </g>
    </g>
</svg>