<?xml version="1.0" encoding="UTF-8" standalone="no"?>
<svg width="23px" height="22px" viewBox="0 0 23 22" version="1.1" xmlns="http://www.w3.org/2000/svg" xmlns:xlink="http://www.w3.org/1999/xlink" xmlns:sketch="http://www.bohemiancoding.com/sketch/ns">
    <!-- Generator: Sketch 3.5.1 (25234) - http://www.bohemiancoding.com/sketch -->
    <title>Group 2</title>
    <desc>Created with Sketch.</desc>
    <defs></defs>
    <g id="Page-1" stroke="none" stroke-width="1" fill="none" fill-rule="evenodd" sketch:type="MSPage">
        <g id="filter-sprites-23x27-1bdec2050d7d023d1835d5d890ae5152_1" sketch:type="MSLayerGroup" transform="translate(0.000000, -354.000000)">
            <g id="filter-egg-free_1_" sketch:type="MSShapeGroup">
                <g id="Group-2" transform="translate(0.000000, 354.000000)">
                    <g id="crossout_6_" transform="translate(0.000000, 13.000000)" fill="#F15B24">
                        <path d="M1.3,6.5 L6.8,1 L7.6,1.8 L2.1,7.3 L1.3,6.5 L1.3,6.5 Z" id="Shape"></path>
                        <path d="M4.5,0 C2,0 0,2 0,4.5 C0,7 2,9 4.5,9 C7,9 9,7 9,4.5 C9,2 7,0 4.5,0 L4.5,0 Z M4.5,7.6 C2.8,7.6 1.4,6.2 1.4,4.5 C1.4,2.8 2.8,1.4 4.5,1.4 C6.2,1.4 7.6,2.8 7.6,4.5 C7.6,6.2 6.2,7.6 4.5,7.6 L4.5,7.6 Z" id="Shape"></path>
                    </g>
                    <g id="Egg_copy_7" transform="translate(8.000000, 0.000000)" fill="#43413E">
                        <path d="M8,2 C8.3,2 8.7,2.1 9,2.3 C9.9,2.7 10.7,3.5 11.4,4.7 C11.5,4.8 11.6,5 11.6,5.1 C11.7,5.2 11.7,5.3 11.7,5.4 C12.2,6.4 12.5,7.5 12.7,8.7 C12.8,9.7 12.8,10.7 12.5,11.6 C12.2,12.6 11.7,13.5 11,14.2 C10.6,14.6 10.1,15 9.5,15.2 L9.5,15.2 C9.3,15.2 9.1,15.3 8.9,15.4 C8.6,15.5 8.3,15.6 8.1,15.6 L7.7,15.6 C6.1,15.6 5,15 4,13.7 C3.3,12.8 2.9,11.8 2.8,10.5 C2.7,9 2.9,7.6 3.6,5.9 C4,4.9 4.5,4.1 5.2,3.4 C6,2.5 6.8,2.1 7.7,2 L8,2 L8,2 Z M8,0 L7.7,0 C6.2,0.1 5,0.9 3.9,2 C3,2.9 2.4,4 1.9,5.1 C1.2,6.9 0.8,8.7 1,10.6 C1.1,12.2 1.7,13.6 2.6,14.8 C4,16.6 5.8,17.4 7.9,17.4 L8.4,17.4 C9,17.4 9.5,17.1 10.1,17 C10.2,17 10.3,17 10.3,16.9 C11.1,16.6 11.9,16.1 12.5,15.5 C13.5,14.5 14.2,13.3 14.5,12 C14.8,10.8 14.9,9.5 14.7,8.3 C14.5,6.9 14.1,5.6 13.5,4.4 C13.3,4.1 13.2,3.8 13,3.6 C12.2,2.3 11.1,1.2 9.7,0.5 C9.3,0.2 8.7,0 8,0 L8,0 L8,0 Z" id="Shape"></path>
                    </g>
                </g>
            </g>
        </g>
    </g>
</svg>