<?xml version="1.0" encoding="UTF-8" standalone="no"?>
<svg width="19px" height="25px" viewBox="0 0 19 25" version="1.1" xmlns="http://www.w3.org/2000/svg" xmlns:xlink="http://www.w3.org/1999/xlink" xmlns:sketch="http://www.bohemiancoding.com/sketch/ns">
    <!-- Generator: Sketch 3.5.1 (25234) - http://www.bohemiancoding.com/sketch -->
    <title>filter-wheat-free</title>
    <desc>Created with Sketch.</desc>
    <defs></defs>
    <g id="Page-1" stroke="none" stroke-width="1" fill="none" fill-rule="evenodd" sketch:type="MSPage">
        <g id="filter-sprites-23x27-1bdec2050d7d023d1835d5d890ae5152_1" sketch:type="MSLayerGroup" transform="translate(0.000000, -155.000000)">
            <g id="filter-wheat-free" transform="translate(0.000000, 155.000000)" sketch:type="MSShapeGroup">
                <path d="M5.3,15.8 C2.8,15.8 0.8,17.8 0.8,20.3 C0.8,22.8 2.8,24.8 5.3,24.8 C7.8,24.8 9.8,22.8 9.8,20.3 C9.8,17.8 7.8,15.8 5.3,15.8 L5.3,15.8 Z M5.3,17.1 C5.9,17.1 6.4,17.3 6.9,17.5 L2.6,21.8 C2.3,21.3 2.2,20.8 2.2,20.2 C2.2,18.6 3.6,17.1 5.3,17.1 L5.3,17.1 Z M5.3,23.4 C4.6,23.4 3.9,23.1 3.4,22.7 L7.8,18.3 C8.2,18.8 8.5,19.5 8.5,20.2 C8.4,22 7,23.4 5.3,23.4 L5.3,23.4 Z" id="Shape" fill="#F15B24"></path>
                <path d="M13.7,8.3 C13.8,8.4 13.9,8.4 14,8.3 C14.3,8.1 14.5,7.8 14.7,7.5 C14.9,7.2 15.2,7 15.4,6.7 C15.6,6.5 15.5,6.3 15.5,6 C15.4,5.1 15.1,4.3 14.8,3.4 C14.6,2.7 14.5,2 14.4,1.4 C14.3,0.9 14.2,0.1 13.9,0.1 C13.6,0.1 13.5,0.7 13.5,0.9 C13.4,1.4 13.3,2 13.1,2.5 C12.9,3.2 12.6,3.9 12.4,4.6 C12.3,5 12.2,5.3 12.1,5.7 C12,6 11.9,6.3 12.1,6.6 C12.3,6.9 12.6,7.1 12.9,7.4 C13.1,7.7 13.4,8 13.7,8.3 L13.7,8.3 Z" id="Shape" fill="#43413E"></path>
                <path d="M14.3,11.6 L17.8,8.3 C18,8.1 18.2,7.6 18.2,7.2 L18.4,5.8 C18.4,5.4 18.3,5.2 18.1,5.4 L14.9,8.5 C14.7,8.7 14.2,9.4 14.2,9.8 L14,11.2 C14,11.6 14.1,11.8 14.3,11.6 L14.3,11.6 Z M9.8,8.3 L13.3,11.9 C13.5,12.1 13.6,11.9 13.6,11.5 L13.4,10.1 C13.4,9.7 13.2,9.2 13,9 L9.5,5.4 C9.3,5.2 9.2,5.4 9.2,5.8 L9.4,7.2 C9.4,7.6 9.6,8.1 9.8,8.3 L9.8,8.3 Z M9.8,12.3 L13.3,15.9 C13.5,16.1 13.6,15.9 13.6,15.5 L13.4,14 C13.4,13.6 13.2,13.1 13,12.9 L9.5,9.3 C9.3,9.1 9.2,9.3 9.2,9.7 L9.4,11.2 C9.4,11.6 9.6,12.1 9.8,12.3 L9.8,12.3 Z M18.1,13.2 L14.9,16.3 C14.7,16.5 14.5,16.7 14.3,16.9 C14.2,17.1 14,17.2 13.9,17.4 C13.8,17.6 13.8,17.5 13.6,17.4 C13.5,17.2 13.4,17.1 13.2,16.9 C13,16.7 12.7,16.5 12.5,16.3 L9.3,13.2 C9.1,13 9,13.2 9,13.6 L9.2,15 C9.2,15.4 9.4,15.9 9.6,16.1 C9.9,16.4 10.2,16.7 10.4,17 C10.9,17.5 11.4,18.1 11.8,18.6 C11.9,18.8 12.3,19.2 12.5,19.3 L12.5,21.7 L12.5,22 C12.5,22 12.6,22.9 13.5,22.9 C14.4,22.9 14.5,22 14.5,22 L14.5,20 L14.5,19.3 C14.6,19.3 14.8,19.1 14.9,19 C15.1,18.8 15.3,18.5 15.6,18.3 C16.1,17.7 16.6,17.1 17.2,16.6 C17.3,16.5 17.4,16.3 17.6,16.2 C17.8,16 18,15.5 18,15.1 L18.2,13.7 C18.4,13.2 18.3,13.1 18.1,13.2 L18.1,13.2 Z M18.1,9.4 L14.9,12.5 C14.7,12.7 14.2,13.4 14.2,13.8 L14,15.3 C14,15.7 14.1,15.9 14.3,15.7 L17.8,12.4 C18,12.2 18.2,11.7 18.2,11.3 L18.4,9.8 C18.4,9.4 18.3,9.2 18.1,9.4 L18.1,9.4 Z" id="Shape" fill="#43413E"></path>
            </g>
        </g>
    </g>
</svg>