<?xml version="1.0" encoding="utf-8"?>
<!-- Generator: Adobe Illustrator 19.1.1, SVG Export Plug-In . SVG Version: 6.00 Build 0)  -->
<svg version="1.1" id="Layer_1" xmlns="http://www.w3.org/2000/svg" xmlns:xlink="http://www.w3.org/1999/xlink" x="0px" y="0px"
	 viewBox="0 0 512 512" style="enable-background:new 0 0 512 512;" xml:space="preserve">
<style type="text/css">
	.st0{fill:#F15B24;}
	.st1{fill:#43413E;}
	.st2{fill:#FFFFFF;}
</style>
<g id="рыба">
	<g>
		<path class="st0" d="M472.1,16.9C407.2,11.7,219,32.5,132.9,301.5c-1.2,3.8-3.7,6.8-7.2,8.5L24.2,340.1c-13.9,7-8.7,29.6,8.4,36.6
			l62.4,25.5c3.2,1.3,6.2,3.3,8.8,5.9h0c2.6,2.6,4.6,5.6,5.9,8.8l25.5,62.4c7,17.1,29.6,22.3,36.6,8.4L202,386.3
			c1.7-3.5,4.8-6,8.5-7.2c269-86.1,289.8-274.3,284.6-339.2C494.2,28.4,483.6,17.8,472.1,16.9z"/>
		<path class="st1" d="M511.3,38.6c-1.5-19.4-18.6-36.4-37.9-37.9C447.2-1.4,378-1.5,302.3,42.3C218.2,91,156.1,176.1,117.7,295.4
			l-99.5,29.5l-1.3,0.7C5.8,331.2-0.5,342.3,0,355.2c0.6,15.7,11.3,30.4,26.5,36.6l62.4,25.5c1.2,0.5,2.4,1.3,3.4,2.3
			c1,1,1.8,2.2,2.3,3.4l25.5,62.4c6.2,15.2,20.9,25.9,36.6,26.5c0.5,0,1,0,1.5,0c12.3,0,22.7-6.2,28.1-16.9l0.7-1.3l29.5-99.5
			C335.9,355.9,421,293.8,469.7,209.7C513.5,134,513.4,64.8,511.3,38.6z M205.5,363.6c-8,2.5-14.4,8-18.1,15.3l-0.7,1.3l-29.4,99.1
			c-2-0.4-5.4-2.1-7-6.2l-25.5-62.4c-2.1-5.2-5.4-10.1-9.5-14.1c-4.1-4.1-9-7.3-14.1-9.5l-62.4-25.5c-4-1.6-5.7-5.1-6.2-7l99.1-29.4
			l1.3-0.7c7.3-3.7,12.8-10.1,15.3-18.1c30.8-96.2,77.4-168.3,138.8-215c8,34,24,63.5,46.9,86.4c22.9,22.9,52.5,38.9,86.4,46.9
			C373.8,286.2,301.7,332.9,205.5,363.6z M441.5,193.4c-0.4,0.7-0.9,1.4-1.3,2.2C373,184.4,327.6,139,316.4,71.8
			c0.7-0.4,1.4-0.9,2.2-1.3c69.7-40.4,134.1-38.8,152.2-37.3h0c3.6,0.3,7.8,4.5,8.1,8.1C480.3,59.3,481.9,123.7,441.5,193.4z"/>
	</g>
	<g>
		<circle class="st2" cx="410.1" cy="101.9" r="28"/>
		<path class="st1" d="M410.1,139.2c-9.6,0-19.1-3.6-26.4-10.9c-14.6-14.6-14.6-38.2,0-52.8c14.6-14.6,38.2-14.6,52.8,0l0,0
			c14.6,14.6,14.6,38.2,0,52.8C429.2,135.6,419.6,139.2,410.1,139.2z M410.1,83.2c-4.8,0-9.6,1.8-13.2,5.5c-7.3,7.3-7.3,19.2,0,26.5
			c7.3,7.3,19.2,7.3,26.5,0c7.3-7.3,7.3-19.2,0-26.5C419.7,85,414.9,83.2,410.1,83.2z"/>
	</g>
</g>
</svg>
