<svg xmlns="http://www.w3.org/2000/svg" viewBox="0 0 1280 1300"><g fill="#7F7E7E" stroke="#5E5F5F" stroke-width="10" stroke-miterlimit="10"><path d="M710.5 998.4c26.8 14.5 102.2 36.1 117.7 42.3 20.7 9.3 32 14.5 50.6 24.8 15.5 9.3 26.8 16.5 37.2 28.4 14.5 16.5 16.5 36.1 20.7 76.4 2.6 25.8 3.6 52.7 3.6 105.8v14.5s-121.3 9.3-584.4-2.6"/><path d="M589.7 995.3c-26.8 14.5-102.2 42.3-117.7 49-20.7 9.3-32 14.5-50.6 24.3-15.5 9.3-26.8 16.5-37.2 28.4-14.5 16.5-16.5 36.1-20.7 76.4-2.6 25.8-4.1 52.7-4.1 105.8v14.5s121.3 9.3 584.4-2.6"/></g><ellipse fill="#FCF6F9" stroke="#5E5F5F" stroke-width="10" stroke-miterlimit="10" cx="350.6" cy="631.9" rx="74.9" ry="87.8"/><ellipse fill="#FCF6F9" stroke="#5E5F5F" stroke-width="10" stroke-miterlimit="10" cx="935.6" cy="621" rx="74.9" ry="87.8"/><ellipse fill="#F2E1E9" cx="935.6" cy="627.7" rx="31" ry="59.4"/><ellipse fill="#F2E1E9" cx="341.8" cy="642.2" rx="31" ry="59.4"/><g stroke-width="10" stroke-miterlimit="10"><path fill="#434649" stroke="#5E5F5F" d="M350.6 530.7c-7.7 4.1-19.6 7.7-26.8 2.6-9.3-5.2-9.3-19.6-10.3-52.7 0-23.2-1-45.4-1-67.1v-73.3c-2.6-52.7-9.3-62-2.6-88.8 4.1-20.7 9.3-19.6 12.9-42.3 6.2-33.6-1.5-40.3 2.6-67.1 5.2-28.4 20.7-49 29.9-62 20.7-28.4 43.9-43.9 50.1-47.5 28.4-18.1 54.2-21.7 74.9-25.8 26.8-4.1 57.8-9.3 91.9 2.6 37.2 14.5 52.7 40.3 78.5 32 9.3-2.6 9.3-6.2 23.2-14.5 29.4-16.5 60.9-18.1 73.3-18.1 36.1 1 62 15.5 77.4 24.8C852 49 876.2 63.4 881.4 87.7c2.6 12.9-1 24.3 9.3 33.6 7.7 6.2 12.9 2.6 23.2 7.7 19.6 9.3 14.5 29.9 35.1 52.7 15.5 17 23.2 11.4 31 25.8 6.2 12.9 5.2 23.2 2.6 51.6-1 21.7-1 43.9-1 66.1v157.9c2.6 20.7 6.2 32 0 38.7-9.3 8.8-27.4 2.6-43.9-2.6"/><path fill="none" stroke="#000" d="M575.2 203.3c-10.3 0-25.8-1-45.4-4.1-25.8-4.1-51.6-7.7-80-20.7-28.4-12.9-46.5-28.4-60.9-41.3-40.3-35.1-63-74.9-77.4-107.4M602.1 255c-9.3 2.6-23.2 6.2-40.3 7.7-20.7 1-33.6-2.6-64.5-6.2-49-6.2-46.5-2.6-63-7.7-29.9-7.7-47.5-24.3-68.1-42.3-21.7-19.6-55.8-54.2-83.6-107.4"/><path fill="#F3EDEE" stroke="#5E5F5F" d="M653.7 957.1c26.8-1 46.5-6.2 66.1-10.3 24.8-6.2 49-12.9 77.4-29.9 29.9-18.1 48-38.7 62-56.8 7.7-9.3 25.8-31 42.3-64.5 10.3-20.7 24.8-47.5 31-85.2 2.6-12.9 2.6-31 2.6-67.1 1-38.7 0-69.7 0-87.8 0-31-1.5-32-2.6-94-1-43.9-2.6-66.1-2.6-82.6 0-45.4 0-68.1 1-80 2.6-28.4 6.2-46.5 0-49-6.2-2.6-14.5 14.5-36.1 23.2-24.3 9.3-50.1-1-55.2-2.6-23.2-10.3-31-25.8-51.6-24.3-1 0-6.2 1-15.5 2.6-26.8 4.1-26.8 5.2-31 4.1-18.1-1.5-24.8-12.9-32-9.3-4.1 2.6-4.1 7.7-6.2 14.5-5.2 14.5-18.1 18.1-36.1 28.4-28.4 16.5-23.2 19.6-42.3 28.4-23.2 11.4-43.9 15.5-56.8 16.5-36.1 5.2-63 0-71.2-1-19.6-4.1-32-10.3-54.2-19.6-28.4-12.9-42.3-18.1-56.8-32-18.1-16.5-25.8-33.6-29.9-31-2.6 1-1 6.2 0 23.2 1.5 18.1 0 14.5 1.5 41.3 1 18.1 1 20.7 2.6 36.1 0 4.1 1 28.4 1 54.2 0 31-2.6 33.6-4.1 66.1v62c0 55.8 1 51.6 1 86.7 0 56.8 0 63.5 2.6 81.6 2.6 16.5 5.2 37.2 14.5 62 4.1 9.3 14.5 36.1 37.2 67.1 18.1 23.2 33.6 36.1 57.8 54.2 29.9 23.2 47.5 37.2 74.9 50.6 14.7 7.2 55 26.8 108.7 24.2z"/></g><circle fill="#F2E1E9" cx="815.3" cy="622.6" r="40.3"/><circle fill="#F2E1E9" cx="482.3" cy="622.6" r="40.3"/><path fill="#F1E0E8" d="M619.1 668h55.8c33.6 0 33.6-51.6 0-51.6h-55.8c-32.5 0-32.5 51.6 0 51.6z"/><path fill="none" stroke="#5E5F5F" stroke-width="10" stroke-miterlimit="10" d="M590.7 448.1c0 10.3-1 24.8-1 41.3 0 10.3-1 23.2-1 66.1-1 59.4-1 66.1 2.6 76.4 4.1 9.3 12.9 31 36.1 40.3 26.8 10.3 51.6-4.1 52.7-5.2 1 0 20.7-12.9 26.8-37.2 1.5-4.1 1.5-5.2 1.5-33.6V559v-46.5s0-40.3-1.5-66.1"/><path fill="#434649" d="M813.7 547.7c29.4 0 29.4-45.4 0-45.4-29.4.5-29.4 45.4 0 45.4zM477.1 545.1c29.9 0 29.9-45.4 0-45.4s-29.9 45.4 0 45.4zM772.9 449.6c26.8-9.3 54.2-11.4 81.1-7.7 16.5 2.6 23.2-23.2 6.2-24.3-32-5.2-64.5-2.6-95.5 7.7-15 3.7-7.8 29.5 8.2 24.3zM447.2 447c24.8-5.2 47.5-10.3 72.3-1 15.5 6.2 21.7-19.6 6.2-24.8-28.4-10.3-56.8-5.2-85.2 1-15 3.1-8.8 29 6.7 24.8z"/><g opacity=".5"><path fill="#5E5F5F" d="M388.3 751.6V598.3c0-4.1-6.2-4.1-6.2 0v153.3c-.5 5.2 6.2 5.2 6.2 0zM411 812.6V651.5c0-4.1-6.2-4.1-6.2 0v161.1c0 3.6 6.2 3.6 6.2 0zM452.3 844.6V721.7c0-4.1-6.2-4.1-6.2 0v122.9c0 4.1 6.2 4.1 6.2 0zM473 861.1V732c0-3.6-6.2-3.6-6.2 0v129.1c0 4.1 6.2 4.1 6.2 0zM510.7 892.1V748.6c0-4.1-6.2-4.1-6.2 0v143.5c-.5 4.1 6.2 4.1 6.2 0zM549.4 914.3V738.8c0-3.6-6.2-3.6-6.2 0v175.5c0 3.6 6.2 3.6 6.2 0zM564.9 924.6V705.2c0-3.6-6.2-3.6-6.2 0v219.4c0 4.1 6.2 4.1 6.2 0zM588.1 933.9V692.3c0-3.6-6.2-3.6-6.2 0v241.6c-.5 3.6 6.2 3.6 6.2 0zM625.8 934.9V698.4c0-3.6-6.2-3.6-6.2 0v236.5c-.5 3.6 6.2 3.6 6.2 0zM642.3 941.6V698.9c0-3.6-6.2-3.6-6.2 0v242.7c0 3.6 6.2 3.6 6.2 0zM683.6 934.9V691.2c0-3.6-6.2-3.6-6.2 0v243.7c-1.5 3.6 6.2 3.6 6.2 0zM705.3 933.9V699c0-3.6-6.2-3.6-6.2 0v234.9c0 3.6 6.2 3.6 6.2 0zM739.4 928.7V696.4c0-4.1-6.2-4.1-6.2 0v232.3c-.5 3.6 6.2 3.6 6.2 0zM777.6 916.8V737.1c0-3.6-6.2-3.6-6.2 0v179.7c0 4.2 6.2 4.2 6.2 0zM794.6 901.4V764.6c0-3.6-6.2-3.6-6.2 0v136.8c-.5 4.1 6.2 4.1 6.2 0zM822 882.3V743.9c0-3.6-6.2-3.6-6.2 0v138.4c-.5 3.6 6.2 3.6 6.2 0zM854 851.3V722.2c0-4.1-6.2-4.1-6.2 0v129.1c0 3.6 6.2 3.6 6.2 0zM882.4 812.6V660.3c0-3.6-6.2-3.6-6.2 0v152.3c0 3.6 6.2 3.6 6.2 0zM916 764.5V601.9c0-4.1-6.2-4.1-6.2 0v162.6c0 5.2 6.2 5.2 6.2 0zM431.7 821.3V667.4c0-3.6-6.2-3.6-6.2 0v153.9c0 5.2 6.2 5.2 6.2 0zM493.6 867.8V744.9c0-3.6-6.2-3.6-6.2 0v122.9c0 3.6 6.2 3.6 6.2 0zM528.7 903.9V760.4c0-4.1-6.2-4.1-6.2 0v143.5c0 4.2 6.2 4.2 6.2 0zM606.2 927.2V707.8c0-4.1-6.2-4.1-6.2 0v219.4c0 4.1 6.2 4.1 6.2 0zM663 936.5V700c0-3.6-6.2-3.6-6.2 0v236.5c0 3.6 6.2 3.6 6.2 0zM723.9 934.9V691.2c0-3.6-6.2-3.6-6.2 0v243.7c-.5 3.6 6.2 3.6 6.2 0zM760 922V689.7c0-4.1-6.2-4.1-6.2 0V922c-.5 4.1 6.2 4.1 6.2 0zM838.5 865.2V728.4c0-4.1-6.2-4.1-6.2 0v136.8c0 4.1 6.2 4.1 6.2 0zM897.9 780V650.9c0-4.1-6.2-4.1-6.2 0V780c-.5 3.6 6.2 3.6 6.2 0zM866.9 828V665.4c0-4.1-6.2-4.1-6.2 0V828c-.5 5.2 6.2 5.2 6.2 0z"/></g><path fill="none" stroke="#5E5F5F" stroke-width="10" stroke-miterlimit="10" d="M608.8 835.3c24.8 0 49 1.5 74.9 1.5M510.7 751.6c10.3 7.7 26.8 19.6 49 27.4 29.9 11.4 54.2 11.4 78.5 12.9 24.8 1 52.7 1 87.8-10.3 27.4-9.3 48-21.7 59.4-31"/><path fill="#FFF" stroke="#5E5F5F" stroke-width="10" stroke-miterlimit="10" d="M641.8 1292.2c1-14.5 1-25.8 1-33.6-1-31-5.2-42.3 1-59.4 4.1-11.4 6.2-7.7 14.5-23.2 14.5-28.4 6.2-40.3 19.6-67.1 7.7-14.5 18.1-26.8 18.1-26.8s-10.3 16.5-29.4 31c-6.2 2.6-12.9 2.6-24.8 1-14.5-1-25.8-1-35.1-7.7-12.9-9.3-12.9-29.9-12.9-29.9-1 0 11.4 49 11.4 49 5.2 15.5 9.3 36.1 16.5 50.6 1 2.6 5.2 9.3 12.9 16.5 2.6 2.6 5.2 5.2 7.7 6.2"/><path fill="#FFF" stroke="#5E5F5F" stroke-width="10" stroke-miterlimit="10" d="M628.9 1194.1c-5.2-1-19.6-6.2-33.6-16.5-10.3-7.7-19.6-19.6-35.1-41.3-15.5-22.2-21.7-32-26.8-42.3-12.9-32-16.5-42.3-16.5-42.3-2.6-6.2-4.1-12.9-10.3-18.1-7.7-6.2-14.5-3.6-16.5-10.3-5.2-7.7 6.2-23.2 8.8-24.8 5.2-7.7 14.5-12.9 36.1-23.2 23.2-9.3 36.1-14.5 54.2-15.5 15.5-1 10.3 1 49 2.6h65.6c15.5 0 35.1 1.5 56.8 9.3 15.5 5.2 28.4 10.3 37.2 23.2 3.6 5.2 2.6 12.9 9.3 23.2 2.6 5.2 5.2 7.7 4.1 10.3-1.5 5.2-7.7 7.7-14.5 12.9-6.2 5.2-7.7 10.3-14.5 23.2 0 0-9.3 19.6-18.1 37.2-3.6 7.7-14.5 25.8-31 45.4-10.3 11.4-19.6 19.6-28.4 28.4-18.1 15.5-25.8 19.6-28.4 20.7-5.2 2.6-15.5 6.2-28.4 5.2-7.6-3.7-12.8-5.7-19-7.3z"/><path fill="none" stroke="#5E5F5F" stroke-width="10" stroke-miterlimit="10" d="M510.2 1028.9c5.2-1 11.4-3.6 20.7-7.7 6.2-2.6 7.7-4.1 18.1-9.3 4.1-1 4.1-1 20.7-9.3 14.5-6.2 16.5-6.2 18.1-5.2 4.1 2.6 1.5 9.3 1.5 20.7 0 6.2 1 15.5 2.6 33.6 2.6 24.3 5.2 28.4 6.2 31 5.2 7.7 12.9 12.9 19.6 15.5 10.3 5.2 24.8 14.5 42.9 10.3 21.7-5.2 32-23.2 35.1-26.8 2.6-3.6 0-1 10.3-35.1 6.2-20.7 7.7-25.8 6.2-36.1-1.5-5.2-2.6-9.3-1.5-11.4 2.6-2.6 10.3 1.5 20.7 7.7 0 0 14.5 6.2 35.1 14.5 9.3 2.6 20.7 6.2 37.2 7.7"/><path fill="#7F7E7E" stroke="#5E5F5F" stroke-width="10" stroke-miterlimit="10" d="M507.6 1033c-5.2 0-10.3-1-12.9-5.2-5.2-5.2-4.1-12.9-4.1-14.5 1-10.3 9.3-16.5 14.5-23.2 9.3-7.7 16.5-10.3 32-16.5 10.3-4.1 18.1-6.2 24.8-9.3 9.3-2.6 15.5-5.2 21.7-6.2 11.4-2.6 16.5-1 38.7 0 1 0 20.7 1.5 41.3 1.5h36.1c12.9 0 20.7 1 32 2.6 25.8 4.1 41.3 10.3 45.4 12.9 12.9 6.2 16.5 11.4 18.1 12.9 1.5 2.6 5.2 9.3 10.3 22.2 3.6 9.3 5.2 12.9 3.6 16.5-1 2.6-3.6 7.7-7.7 9.3-5.2 1-7.7-5.2-18.1-9.3-6.2-2.6-6.2 0-15.5-2.6-10.3-2.6-10.3-5.2-23.2-9.3-10.3-3.6-9.3-1-18.1-5.2-6.2-2.6-11.4-3.6-18.1-6.2-2.6-1-4.1-1-5.2-1-2.6 1 0 6.2 0 14.5 1 7.7 0 14.5 0 20.7-1 9.3-2.6 14.5-3.6 20.7-2.6 11.4-5.2 18.1-9.3 25.8-2.6 5.2-7.7 12.9-16.5 19.6-1.5 1-11.4 7.7-24.8 9.3-9.3 1.5-7.7-1-29.9-3.6-10.3-1-14.5-1-19.6-5.2-5.2-3.6-6.2-9.3-9.3-12.9-2.6-5.2-2.6-9.3-4.1-19.6-2.6-15.5-2.6-23.2-2.6-25.8 0-6.2 0-11.4 1-24.8 1-11.4 1-15.5-1-18.1-1-1.5-4.1-2.6-14.5 0-9.3 1-14.5 5.2-28.4 10.3-19.6 9.3-19.6 7.7-23.2 10.3-1 3.8-3.1 7.9-9.8 9.4z"/><path fill="#F3EDEE" stroke="#5E5F5F" stroke-width="10" stroke-miterlimit="10" d="M591.7 958.2c-1 31-1 54.2-1 67.1-1.5 32-1.5 42.3 5.2 54.2 9.3 15.5 25.8 25.8 45.4 28.4 28.4 2.6 50.6-16.5 59.4-33.6 3.6-7.7 5.2-15.5 6.2-40.3 1-18.1 2.6-43.9 2.6-73.3h-3.1c-37.2-1.5-74.9-1.5-112.5-2.6"/></svg>