<svg xmlns="http://www.w3.org/2000/svg" viewBox="0 0 1280 1300"><path fill="#FEF7FA" stroke="#5E5F5F" stroke-width="10" stroke-miterlimit="10" d="M580.5 946.8c-1 30.1-1 52.7-1 65.3-1.5 31.1-1.5 41.2 5 52.7 9 15.1 25.1 25.1 44.2 27.6 27.6 2.5 49.2-16.1 57.8-32.7 3.5-7.5 5-15.1 6-39.2 1-17.6 2.5-42.7 2.5-71.3h-2.5c-36.2-1.5-72.8-1.5-109.5-2.5"/><path fill="#FFE9BF" stroke="#5E5F5F" stroke-width="10" stroke-miterlimit="10" d="M882.9 640.4H395.6c-47.7 0-86.4-39.2-86.4-86.4V268.6c0-47.7 39.2-86.4 86.4-86.4h487.2c47.7 0 86.4 39.2 86.4 86.4V554c.6 47.2-38.1 86.4-86.3 86.4z"/><ellipse fill="#FCF6F9" stroke="#5E5F5F" stroke-width="10" stroke-miterlimit="10" cx="355.4" cy="617.2" rx="72.8" ry="85.4"/><ellipse fill="#FCF6F9" stroke="#5E5F5F" stroke-width="10" stroke-miterlimit="10" cx="924.6" cy="607.2" rx="72.8" ry="85.4"/><ellipse fill="#F2E1E9" cx="924.6" cy="613.7" rx="30.1" ry="57.8"/><ellipse fill="#F2E1E9" cx="346.9" cy="627.3" rx="30.1" ry="57.8"/><g fill="#FEF7FA" stroke="#5E5F5F" stroke-width="10" stroke-miterlimit="10"><path d="M519.2 730.8c79.4-1 158.2 1 237.1 3.5 44.2-2.5 87.9-2.5 131.6 1.5 10-4 22.6-5 34.2-4V284.7c0-22.6-17.6-40.2-40.2-40.2H394.6c-22.6 0-40.2 17.6-40.2 40.2v449.6c56.3-3.5 111.5-2.5 164.8-3.5z"/><path d="M633.2 734.3c-64.3-2.5-130.6-7.5-194.9-6-27.6 1.5-56.3 5-84.4 2.5 49.2 126.6 156.7 216 283.8 216 125.6 0 232.1-86.4 282.3-212-94.4 4.5-191.3 3-286.8-.5z"/></g><path fill="#FFE9BF" stroke="#5E5F5F" stroke-width="10" stroke-miterlimit="10" d="M891.9 200.3c0 69.3-121.6 140.6-255.2 140.6s-251.2-71.3-251.2-140.6S502.1 59.7 636.7 59.7s255.2 71.8 255.2 140.6z"/><path fill="#FEF7FA" d="M486 691.6c-10 10-71.3 0-86.4 0-40.2 0-40.2 61.3 0 62.8 160.7 3.5 326.5 15.1 486.2-2.5 40.2-3.5 40.2-66.3 0-62.8-159.7 17.6-325.5 5-486.2 2.5v62.8c54.3 0 87.9 21.1 130.6-19.1 30.2-27.6-14-71.3-44.2-43.7z"/><path fill="#FEF7FA" d="M397.1 716.7c-5 0-9 0-12.6-2.5v27.6s1 0 1-1.5c-2.5 1.5-5 1.5-7.5 2.5h1c20.1 0 20.1-31.1 0-31.1-4 0-7.5 1-10 2.5-10 6-10 20.1 0 27.6 9 6 19.1 6 29.1 6 19.1 0 19.1-31.1-1-31.1z"/><path fill="#FFE9BF" d="M412.2 767.9l4-4c6-6-4-15.1-9-9-1 1-2.5 2.5-4 3.5-6.1 7.5 2.5 16.1 9 9.5zM442.3 792.1c1-5 4-9 6-11.1 5-6-6-12.6-11.1-6-4 5-6 10-7.5 15.1-.9 6 10.1 9.5 12.6 2zM453.9 823.2c2.5-4 5-7.5 9-11.1 5-6-4-15.1-9-9-4 4-7.5 9-10 14.1-5.1 6 6 12.5 10 6zM487.5 857.4c5-11.1 9-24.1 14.1-35.2 2.5-7.5-9-11.1-12.6-3.5-5 11.1-9 24.1-14.1 35.2-2.4 7.5 10.1 9.5 12.6 3.5zM526.2 862.4v-24.1s-12.6-7.5-12.6 0v24.1c.1 8 12.6 7.5 12.6 0zM549.3 887.5c1-11.1 2.5-22.6 4-34.2 1-7.5-11.1-7.5-12.6 0-1 11.1-2.5 22.6-4 34.2-1.4 7.5 11.1 7.5 12.6 0zM576.5 892.5c5-6 9-11.1 12.6-19.1 4-7.5-7.5-14.1-11.1-6-2.5 6-6 11.1-10 16.1-6.6 6.5 2.4 15 8.5 9zM620.7 905.1c2.5-7.5 4-15.1 4-24.1 0-7.5-12.6-7.5-12.6 0s-1 14.1-4 20.1c-1.5 9 11.6 12.5 12.6 4zM664.9 908.6c0-7.5 0-15.1-1-21.1 0-7.5-12.6-7.5-12.6 0s0 15.1 1 21.1c-.5 9 12.6 9 12.6 0zM698.5 896.5c1-6 4-12.6 5-20.1 2.5-7.5-10-11.1-12.6-4-1 6-4 12.6-5 20.1-.9 9.1 10.1 12.6 12.6 4zM738.7 881.5v-21.6c0-7.5-12.6-7.5-12.6 0v21.6s12.6 7 12.6 0zM763.8 871.4c-1.5-5-1.5-11.1-2.5-16.1-1-7.5-14.1-7.5-12.6 0 1 5 1 11.1 2.5 16.1.1 7.1 12.6 7.1 12.6 0zM785.4 853.3c-1-5-4-10-5-15.1-2.5-7.5-15.1-4-12.6 4 1 5 4 10 5 15.1 3.6 7.6 16.1 5.1 12.6-4zM801.5 837.3c0-5-1.5-10-1.5-16.1-1-7.5-14.1-7.5-12.6 0 0 5 1.5 10 1.5 16.1 1.5 7.5 13.6 7.5 12.6 0zM822.6 813.1c-1-5-4-10-6-15.1-4-7.5-15.1-1.5-11.1 6 2.5 3.5 4 7.5 5 12.6 2 8.1 13.6 4.6 12.1-3.5zM847.7 796.1c-1-3.5-4-6-5-10-3.5-7.5-15.1-1.5-11.1 6 1.5 3.5 4 6 5 10 4.1 6 15.1 0 11.1-6zM770.4 702.6c-5-10-9-19.1-12.6-29.1-2.5-7.5-15.1-4-12.6 4 3.5 11.1 9 22.6 14.1 32.7 4.5 6.5 14.6-1 11.1-7.6zM738.7 712.7c-4-9-7.5-17.6-10-27.6-1-7.5-14.1-5-12.6 4 2.5 10 6 21.6 11.1 30.1 4 7.6 15 1.5 11.5-6.5zM707.1 724.2c-5-9-7.5-19.1-10-27.6-1-7.5-14.1-5-12.6 4 2.5 11.1 6 21.1 11.1 31.1 4.4 6.1 15.5.1 11.5-7.5zM660.8 730.8c0-10 0-19.1-3.5-29.1-2.5-7.5-14.1-5-12.6 4 2.5 9 3.5 16.1 2.5 25.1 1.1 7 13.6 7 13.6 0zM626.7 727.8v-25.1c0-7.5-12.6-7.5-12.6 0v25.1c.5 8 12.6 8 12.6 0zM585.5 729.3c0-11.1 1-22.6 4-34.2 1.5-7.5-10-11.1-12.6-4-2.5 12.6-4 25.1-5 36.2 1 9.5 13.6 9.5 13.6 2zM524.2 714.2c6-2.5 10-7.5 14.1-11.1 5-5 11.1-10 17.6-14.1 6.5-4 0-15.1-6-11.1s-11.1 7.5-16.1 12.6c-5 5-9 10-15.1 12.6-8.5 3.6-2.5 14.6 5.5 11.1z"/><circle fill="#5E5F5F" stroke="#5E5F5F" stroke-width="10" stroke-miterlimit="10" cx="791.4" cy="493.2" r="20.1"/><circle fill="#5E5F5F" stroke="#5E5F5F" stroke-width="10" stroke-miterlimit="10" cx="470" cy="493.2" r="20.1"/><g><path fill="#5E5F5F" d="M420.7 435.4c30.1-2.5 65.3-7.5 95.4 0 11.1 2.5 16.1-15.1 5-17.6-31.1-7.5-67.8-4-100.5-1-11.9 1-11.9 19.6.1 18.6z"/></g><g><path fill="#5E5F5F" d="M745.2 434.4c30.1-2.5 65.3-7.5 95.4 0 11.1 2.5 16.1-15.1 5-17.6-31.1-7.5-67.8-4-100.5-1-11.4.5-11.4 19.6.1 18.6z"/></g><circle fill="#F2E1E9" cx="791.4" cy="596.1" r="39.2"/><circle fill="#F2E1E9" cx="467.5" cy="596.1" r="39.2"/><g><path fill="#F2E1E9" d="M669.9 610.2c-10 14.1-24.1 15.1-40.2 11.1-11.1-2.5-25.1-6-32.7-15.1-12.6-15.1-35.2 6-22.6 22.6 14.1 17.6 42.7 25.1 64.3 26.1 25.1 2.5 42.7-10 57.8-29.1 12.1-15.6-15.6-30.7-26.6-15.6z"/></g><ellipse fill="none" stroke="#5E5F5F" stroke-width="10" stroke-miterlimit="10" cx="634.7" cy="613.7" rx="70.3" ry="44.2"/><path fill="none" stroke="#5E5F5F" stroke-width="10" stroke-miterlimit="10" d="M638.2 489.7v86.4M497.6 732.8s35.2 54.3 141.7 54.3c32.7 0 94.4-11.1 134.6-51.2M773.9 223.4c-21.1 2.5-52.7 4-89.4 1-15.1-1-62.8-5-163.3-39.2-40.2-14.1-92.9-34.2-151.7-61.3M748.8 151.6c-19.1 1-40.2 1-61.3 0-109-6-196.9-45.2-256.2-80.4"/><g fill="none" stroke="#5E5F5F" stroke-width="10" stroke-miterlimit="10"><path d="M740.2 997c26.1 14.1 47.7 24.1 62.8 30.1 20.1 9 31.1 14.1 49.2 24.1 15.1 9 26.1 16.1 36.2 27.6 14.1 16.1 16.1 35.2 20.1 74.3 2.5 25.1 3.5 51.2 3.5 103v14.1s-118 9-568.6-2.5"/><path d="M519.2 1002c-26.1 14.1-47.7 24.1-62.8 30.1-20.1 9-31.1 14.1-49.2 24.1-15.1 9-26.1 16.1-36.2 27.6-14.1 16.1-16.6 35.2-20.1 74.3-2.5 25.1-4 51.2-4 103v14.1s118 9 568.6-2.5"/></g><path fill="#ACD9B3" stroke="#5E5F5F" stroke-width="10" stroke-miterlimit="10" d="M590.5 1251l36.2 22 36.7-22 5-176.6h-77.9v179.4"/><g fill="#FFF"><circle cx="623.2" cy="1182.9" r="7.5"/><circle cx="639.7" cy="1234.1" r="7.5"/><circle cx="640.8" cy="1204" r="7.5"/><circle cx="614.6" cy="1218" r="6"/></g><path fill="#ADD9B2" stroke="#5E5F5F" stroke-width="10" stroke-miterlimit="10" d="M678.4 1074.4c-1 1-17.6 23.6-45.2 25.1-25.1-1.5-47.7-26.6-50.2-29.1l2.5-1c-4 6-7.5 15.1-9 27.6-1 26.1 19.1 59.3 47.7 60.3 30.1 1 50.2-32.7 54.3-57.8 1-10 0-17.6-2.5-22.6"/><path fill="#FFF" stroke="#5E5F5F" stroke-width="10" stroke-miterlimit="10" d="M675.9 1085.9c10-39.2 20.1-78.9 30.1-118 17.6 11.1 30.1 21.1 47.7 32.7-6 37.7-11.1 70.3-24.1 106.5-14.5-4.6-37.6-13.7-53.7-21.2M583 1078.4c-2.5-40.2-6-81.4-10-121.6-20.1 9-39.2 17.6-59.3 25.1 7.5 39.2 15.1 76.4 22.6 115.5 15-6.5 30.1-13 46.7-19"/></svg>