<svg width="718" height="1304" viewBox="0 0 718 1304" xmlns="http://www.w3.org/2000/svg"><title>artem</title><g fill="none" fill-rule="evenodd"><g stroke-width="10" stroke="#5E5F5F" fill="#C1E1F7"><path d="M460.9 1016c26.3 14.2 48.1 24.3 63.2 30.4 20.2 9.1 31.4 14.2 49.6 23.8 15.2 9.1 26.3 16.2 36.4 27.8 14.2 16.2 16.2 35.4 20.2 74.9 2.5 25.3 3.5 51.6 3.5 103.7v14.2c0-5-118.9 9.1-572.6-2.5"/><path d="M238.4 1021c-26.3 14.2-48.1 23.8-63.2 30.4-20.2 9.1-31.4 14.2-49.1 24.3-15.2 9.1-26.8 16.2-36.4 27.8-14.2 16.2-16.2 35.4-20.2 74.4-2.5 25.3-4 52.1-4 103.7v14.2c0-5 118.9 9.1 572.6-2.5"/><path d="M353.7 1299.2c0-2.5 1-39.5 1-41.5v-41.5c-1-37.9-9.1-50.6-1-56.7 4-4 9.1-1.5 25.3 0 10.1 0 27.8 0 44.5-5.1 4-1 25.3-9.1 36.4-29.3 11.1-19.2 5.1-32.9 6.1-56.7 1-17.7 7.6-41.5 27.8-71.8"/><path d="M126.1 1073.1c-4-17.7-1-31.4 0-39.5 12.6-54.6 80.9-85 121.4-79.9 2.5 0 4 1 21.2 2.5 27.8 3.5 43 6.1 53.1 7.6 34.4 3.5 60.7 1 68.3 0 39.5-4 37.9-12.6 60.7-12.6 32.9 0 69.8 16.2 92.1 45.5 25.3 30.4 26.3 64.7 27.8 75.9"/><path d="M212.1 988.2c4 5.1 9.1 11.1 14.2 20.2 4 6.1 10.1 17.7 12.6 30.4 5.1 22.8-4 26.8 0 48.1 4 15.2 11.1 26.3 16.2 32.9 2.5 4 16.7 20.2 40.5 30.4 18.7 7.6 33.9 7.6 64.2 7.6 29.3 0 43 0 60.7-7.6 11.1-5.1 36.4-15.2 46.5-37.9 7.6-19.2-1-29.3 1-54.6 1-15.2 7.6-36.4 27.8-61.7M572.2 1073.1c-32.9-12.6-65.8-25.3-100.2-36.4M133.1 1073.1c32.9-12.6 65.8-25.3 100.2-36.4"/></g><path d="M303.1 940.1c-1 30.4-1 53.1-1 65.8-1 31.4-1 41.5 5.1 53.1 8.6 15.2 25.3 25.3 44.5 27.8 27.8 2.5 49.1-16.2 58.2-32.9 3.5-7.6 5.1-15.2 6.1-39.5 1-17.7 2.5-43 2.5-72.3h-3c-36.4-1-73.3-1-110.3-2.5" stroke="#5E5F5F" stroke-width="10" fill="#F3EDEE"/><g transform="translate(5 35)"><ellipse stroke="#5E5F5F" stroke-width="10" fill="#FCF6F9" cx="74" cy="643.1" rx="73.3" ry="86"/><ellipse stroke="#5E5F5F" stroke-width="10" fill="#FCF6F9" cx="634" cy="633" rx="73.3" ry="86"/><ellipse fill="#F2E1E9" cx="647.1" cy="639.5" rx="30.4" ry="58.2"/><ellipse fill="#F2E1E9" cx="65.4" cy="653.2" rx="30.4" ry="58.2"/><path d="M62.4 553.5c-12.6 9.1-29.3 16.2-35.4 10.1-6.1-5.1-2.5-17.7-1-32.9 2.5-20.2-1-16.2-2.5-68.3-1-32.9 1-30.4 2.5-100.2 1-59.2 0-60.7 2.5-69.8 9.1-25.3 20.2-30.4 41.5-75.9 9.1-17.7 7.6-19.2 15.2-32.9 6.1-12.6 19.2-35.4 39.5-54.6 5.1-5.1 30.4-29.3 71.8-40.5 25.3-7.6 51.6-6.1 106.2-4 49.6 2.5 65.8 6.1 91.1-5.1 10.1-5.1 31.4-14.2 40.5-35.4 9.1-19.2 0-34.4 10.1-40.5 10.1-7.6 29.3 1.5 48.1 11.1 20.2 10.1 40.5 20.2 58.2 43 17.7 24.3 24.3 48.1 26.3 60.7 6.1 29.3 0 37.9 10.1 53.1 11.1 17.7 24.3 15.2 46.5 30.4 34.4 23.8 47 60.7 50.6 73.3 5.1 14.2 4 20.2 4 86v110.3c2.5 59.7 10.1 85-2.5 92.1-11.1 6.1-30.4-5.1-44.5-15.2" stroke="#5E5F5F" stroke-width="10" fill="#F9C99B"/><path d="M410.4 919.3c16.2-2.5 27.8-5.1 40.5-10.1 19.2-6.1 31.4-15.2 48.1-25.3 16.2-10.1 35.4-22.8 56.7-44.5 26.3-25.3 40.5-49.1 44.5-55.6 6.1-11.1 20.2-36.4 30.4-70.8 6.1-22.8 6.1-37.9 10.1-93.6 5.1-97.1 5.1-96.1 5.1-98.6-1.5-65.8-1.5-99.6-20.2-140.6-17.7-36.4-25.3-25.3-60.7-83.5-7.6-14.2-17.7-31.4-31.4-31.4-10.1 0-12.6 10.1-26.3 19.2-16.2 10.1-32.9 9.1-55.6 7.6-17.7-1-41.5-2.5-65.8-15.2-43-22.8-68.3-71.8-68.3-73.3 0 0-27.8 11.1-40.5 17.7-35.4 15.2-53.1 22.8-65.8 30.4-7.6 4-35.4 20.2-64.7 49.1-17.7 16.7-39.5 39.5-55.6 74.9-12.6 27.8-15.2 51.6-17.7 64.7-2.5 24.3-1 32.9 0 73.3v40.5c0 22.8-1 39.5-1 44.5-1 36.9-2.5 70.8 5.1 102.2 10.1 48.1 32.9 80.9 44.5 96.1 7.6 11.1 35.4 49.6 87 81.9 22.8 14.2 59.7 37.9 112.3 44.5 28.6 4.5 54.9.9 89.3-4.1z" stroke="#5E5F5F" stroke-width="10" fill="#FEF7FA"/></g><path d="M421.5 261.3c12.6-2.5 28.8-6.1 48.1-15.2 25.3-11.1 43-25.3 53.1-32.9 25.3-20.2 40.5-40.5 44.5-45.5 7.6-10.1 20.2-26.3 27.8-50.6 12.6-32.9 11.1-63.2 10.1-83.5M424.5 214.2c10.1-5.1 21.8-12.6 35.4-22.8 12.6-9.1 32.9-23.8 53.1-49.1 10.1-12.6 35.4-44.5 45.5-92.6 4-20.2 5.1-37.9 4-49.1M266.2 789.4c6.1 3.5 14.2 9.1 25.3 12.6 19.2 7.6 35.4 10.1 46.5 11.1 11.1 1 27.8 2.5 48.1 0s35.4-7.6 43-11.1c11.1-5.1 21.2-10.1 27.8-15.2M377.5 894.6c0-2.5 1-6.1 0-12.6 0-1.5-4-9.1-11.1-11.1-10.1-2.5-19.2 5.1-21.2 7.6-2.5 1-11.1 10.1-10.1 22.8 1 11.1 9.1 17.7 10.1 19.2 10.1 7.6 21.2 6.1 25.3 5.1 9.1-1 14.2-6.1 16.2-9.1" stroke="#5E5F5F" stroke-width="10"/><path d="M342.1 687.2h54.6c24.3 0 24.3-37.9 0-37.9h-54.6c-25.3-.1-25.3 37.9 0 37.9z" fill="#F1E0E8"/><g fill="#5E5F5F"><path d="M480.1 482.3c29.3-2.5 58.2-7.6 87-4 20.2 2.5 28.8-27.8 9.1-30.4-32.9-5.1-63.2 0-96.1 2.5-20.2 1.6-20.2 33.4 0 31.9zM167.5 475.7H256c20.2 0 20.2-31.4 0-31.4h-88.5c-20.2.1-20.2 31.4 0 31.4zM534.3 573.4c32.9 0 32.9-50.6 0-50.6-31.4 0-31.4 50.6 0 50.6zM204 573.4c32.9 0 32.9-50.6 0-50.6-31.4 0-32.4 50.6 0 50.6z"/></g><path d="M335.5 504.1V542c1 21.2 2.5 36.4 2.5 36.4 2.5 30.4 6.1 39.5 0 45.5-6.1 6.1-12.6 1-22.8 7.6-10.1 6.6-16.2 21.2-14.2 34.4s15.2 19.2 25.3 25.3c4 2.5 24.3 12.6 51.6 10.1 14.2-1 41.5-4 53.1-25.3 5.1-9.1 9.1-25.3 2.5-35.4-9.1-14.2-27.8-6.1-36.4-20.2-3.5-5.1-1-7.6-1-35.4 0-21.2-1-21.2 0-40.5 0-14.2 1-25.3 2.5-33.9" stroke="#5E5F5F" stroke-width="10"/><path d="M433.1 1155.1v107.2c0 12.6 19.2 12.6 19.2 0v-107.2c1-11.7-19.2-11.7-19.2 0zM263.6 1154.1v104.7c0 12.6 19.2 12.6 19.2 0v-104.7c.1-12.7-19.2-12.7-19.2 0z" fill="#FFF"/><path d="M74.49 594.9c4.098 0 9.353 40.3 11.35 56.6 2.628 25.6 1.052 30.5 4.1 60.5 2.627 23.1 4.1 43.3 10.3 66.4 7.778 27.1 10.3 39.4 20.707 50.7 27.433 28 85.347 28 100.903 8.9 6.202-9.8 0-18.7 7.778-30.5s24.806-18.7 46.563-22.1c82.72-15.7 128.233 1 175.847 0 2.628 0 7.778 0 14.505 2.5 16.502 7.4 11.35 28.5 23.23 41.8 23.227 27.1 88.92 9.8 104.476-2.5 4.1-3.4 7.778-7.4 7.778-7.4 7.778-9.8 7.778-22.1 7.778-25.6 0-22.1 7.778-43.3 10.3-64 1.577-13.8 6.202-71.3 25.857-132.9 2.63-8.9 4.1-12.3 5.15-12.3 9.356 0 4.1 112.2-1.05 219 0 7.4-1.05 19.7-6.2 35.4-2.63 8.9-7.78 18.7-28.485 46.7-18.08 24.6-26.908 35.4-37.21 45.3-20.705 18.7-40.36 27.1-54.34 34.4-7.777 3.4-31.006 13.8-63.064 22.1-42.358 9.8-74.94 8.9-117.93 7.4-49.086-1-72.42-2.5-104.478-12.3-45.512-13.8-74.942-35.4-85.347-44.3-12.93-9.8-38.785-30.5-57.915-65-18.08-33.5-21.757-61.5-27.433-91-4.1-23.6-2.628-48.2-1.05-96 2.732-46.6 4.203-90.8 7.882-91.8z" stroke="#5E5F5F" stroke-width="10" fill="#F9C99B"/><path d="M297.5 850c10.8 4.9 24.6 9.8 41.8 12.3 35.4 5.9 64-1.5 81.2-5.9" stroke="#FEF7FA" stroke-width="10" fill="#FEF7FA"/></g></svg>