<?xml version="1.0" encoding="utf-8"?>
<!-- Generator: Adobe Illustrator 19.1.1, SVG Export Plug-In . SVG Version: 6.00 Build 0)  -->
<svg version="1.1" id="Layer_1" xmlns="http://www.w3.org/2000/svg" xmlns:xlink="http://www.w3.org/1999/xlink" x="0px" y="0px"
	 viewBox="0 0 512 512" style="enable-background:new 0 0 512 512;" xml:space="preserve">
<style type="text/css">
	.st0{fill:#F15B24;}
	.st1{fill:#43413E;}
</style>
<g id="напитки">
	<path class="st0" d="M132.8,164.1c0,0,51.3-41,88.4-13.6s111.5,60.1,153.2,13.6l-19.4,317c0,0-19.4,17.3-86.7,17.3
		s-116.2-17.3-116.2-17.3L132.8,164.1z"/>
	<g>
		<path class="st1" d="M206.7,263.3c-17.8,0-32.2-14.4-32.2-32.2s14.4-32.2,32.2-32.2c17.8,0,32.2,14.4,32.2,32.2
			S224.5,263.3,206.7,263.3z M206.7,217c-7.8,0-14.1,6.3-14.1,14.1s6.3,14.1,14.1,14.1c7.8,0,14.1-6.3,14.1-14.1
			S214.5,217,206.7,217z"/>
	</g>
	<g>
		<path class="st1" d="M253.6,373.7c-21.7,0-39.4-17.7-39.4-39.4c0-21.7,17.7-39.4,39.4-39.4s39.4,17.7,39.4,39.4
			C293,356,275.3,373.7,253.6,373.7z M253.6,312.9c-11.8,0-21.4,9.6-21.4,21.4c0,11.8,9.6,21.4,21.4,21.4s21.4-9.6,21.4-21.4
			C274.9,322.5,265.3,312.9,253.6,312.9z"/>
	</g>
	<path class="st1" d="M398.4,47.3L398.4,47.3L398.4,47.3C398.4,2.3,278,0,253.9,0c-24.1,0-144.6,2.3-144.6,47.3
		c0,0.9,0.1,1.8,0.2,2.7l-0.2-0.1c0,0,29.3,421.4,29.3,424.5c0,34.4,88,37.7,115,37.7c26.3,0,110.6-2.6,114.8-35.1l29.9-426.6
		C398.4,49.3,398.4,48.3,398.4,47.3L398.4,47.3z M339,447c-28.1-9.2-68.6-10.3-85.4-10.3s-57.3,1.1-85.4,10.3L142.8,80
		c37.5,13.5,95.2,14.5,111.1,14.5c15.8,0,72.9-1,110.4-14.3L339,447z M253.9,31.6c56.6,0,93.9,8.9,108.1,15.6
		c-14.2,6.8-51.5,15.6-108.1,15.6c-56.6,0-93.9-8.9-108.1-15.6C160,40.5,197.3,31.6,253.9,31.6z M253.6,484.9
		c-40.5,0-68.6-5.7-81.6-10.5c13-4.9,41.1-10.5,81.6-10.5s68.6,5.7,81.6,10.5C322.1,479.2,294,484.9,253.6,484.9z"/>
</g>
</svg>
