<?xml version="1.0" encoding="utf-8"?>
<!-- Generator: Adobe Illustrator 19.1.1, SVG Export Plug-In . SVG Version: 6.00 Build 0)  -->
<svg version="1.1" id="Layer_1" xmlns="http://www.w3.org/2000/svg" xmlns:xlink="http://www.w3.org/1999/xlink" x="0px" y="0px"
	 viewBox="0 0 512 512" style="enable-background:new 0 0 512 512;" xml:space="preserve">
<style type="text/css">
	.st0{fill:#43413E;}
	.st1{fill:#F15B24;}
</style>
<g id="салат">
	<path class="st0" d="M243.5,48.5c-12.9-29-44.8-48.7-80.1-48.7c-35.3,0-67.1,19.7-80.1,48.7C37.7,50.4,1.2,84.3,1.2,125.8
		c0,42.7,38.7,77.4,86.2,77.4c9.4,0,18.4-1.4,27-3.9c1.9,12.6,4.1,31.6,4.1,49.9c0,21.5-1.4,57.8-4.7,74.6
		c-1.3,6.6,3.8,12.7,10.5,12.7h78.2c6.7,0,11.8-6.1,10.5-12.7c-3.3-16.8-4.7-53.1-4.7-74.6c0-18.4,2.3-37.3,4.1-49.9
		c8.5,2.5,17.6,3.9,27,3.9c47.5,0,86.2-34.7,86.2-77.4C325.7,84.3,289.2,50.4,243.5,48.5z M148.9,259.5c-12.5,0-11.6-47.1-10.3-71.3
		c5.9-3.9,11.2-8.5,15.9-13.6C156,203.8,157.8,259.5,148.9,259.5z M178,259.5c-7.9,0-6.1-54.3-4.5-83.8c4.5,4.8,9.5,9,15.1,12.6
		C190.2,212.6,191.7,259.5,178,259.5z M239.4,182.7c-28.6,0-53.7-15.8-62.5-39.4c-2.1-5.5-7.5-9.2-13.5-9.2c-6,0-11.4,3.7-13.4,9.2
		c-8.8,23.6-34,39.4-62.5,39.4c-36.2,0-65.7-25.5-65.7-56.9s29.5-56.9,65.7-56.9c0.9,0,1.7,0,2.6,0.1l7.7,0.3l2.4-7.3
		c7.9-24.5,34-41.6,63.3-41.6s55.4,17.1,63.3,41.6l2.4,7.3l7.7-0.3c0.9,0,1.7-0.1,2.6-0.1c36.2,0,65.7,25.5,65.7,56.9
		S275.7,182.7,239.4,182.7z"/>
	<g>
		<g>
			<path class="st1" d="M449.3,156.5L302.5,335.1c-6,7.3-15.4,1.7-11.9-7.1L378,114c6.2-15.3,22.8-23,34.5-16l34.4,20.5
				C458.7,125.5,459.8,143.7,449.3,156.5z"/>
			<path class="st0" d="M296.2,347.3c-2.6,0-5.3-0.7-7.7-2.1c-6.8-4-9.2-12.4-6-20.4l87.3-214c4.3-10.6,13-19,23.2-22.4
				c8.4-2.8,16.9-2,24,2.2l34.4,20.5c7.1,4.2,11.8,11.3,13.3,20.1c1.8,10.6-1.4,22.2-8.7,31L309.3,340.7
				C305.8,345,301,347.3,296.2,347.3z M402.9,104.2c-1.6,0-3.1,0.3-4.3,0.7c-5.4,1.8-10.1,6.4-12.5,12.4l-82.8,203l139.2-169.4
				c4.1-5,5.9-11.3,5-16.9c-0.4-2.5-1.7-6-5-8l-34.4-20.5C406.4,104.6,404.6,104.2,402.9,104.2z"/>
		</g>
		<g>
			<path class="st0" d="M434.2,117.9c-2.5,0-5-0.7-7.3-2.2c-5.2-3.4-7.2-9.9-5-15.7l22.3-58.3c2-5.3,7.9-7.9,13.2-5.9
				c5.3,2,7.9,7.9,5.9,13.2l-10.5,27.6l41.8-40.3c4.1-3.9,10.6-3.8,14.5,0.3c3.9,4.1,3.8,10.6-0.3,14.5l-65.5,63.2
				C440.8,116.6,437.6,117.9,434.2,117.9z"/>
		</g>
		<g>
			<path class="st0" d="M387.5,189.3c-1.8,0-3.6-0.5-5.2-1.4l-24.5-14.6c-4.9-2.9-6.5-9.2-3.6-14c2.9-4.9,9.2-6.5,14-3.6l24.5,14.6
				c4.9,2.9,6.5,9.2,3.6,14C394.4,187.5,391,189.3,387.5,189.3z"/>
		</g>
		<g>
			<path class="st0" d="M379.8,236.4c0.9-1,1.9-2.1,2.9-3.2l-22.3-13.3c-4.9-2.9-11.1-1.3-14,3.6c-2.9,4.9-1.3,11.1,3.6,14l18.4,11
				C372.2,244.5,376,240.4,379.8,236.4z"/>
		</g>
		<g>
			<path class="st0" d="M438.7,174.4c-1.8,0-3.6-0.5-5.2-1.4l-31.2-18.6c-4.9-2.9-6.5-9.2-3.6-14c2.9-4.9,9.2-6.4,14-3.6l31.2,18.6
				c4.9,2.9,6.5,9.2,3.6,14C445.6,172.6,442.2,174.4,438.7,174.4z"/>
		</g>
	</g>
</g>
</svg>
