<?xml version="1.0" encoding="utf-8"?>
<!-- Generator: Adobe Illustrator 19.1.1, SVG Export Plug-In . SVG Version: 6.00 Build 0)  -->
<svg version="1.1" id="Layer_1" xmlns="http://www.w3.org/2000/svg" xmlns:xlink="http://www.w3.org/1999/xlink" x="0px" y="0px"
	 viewBox="0 0 512 512" style="enable-background:new 0 0 512 512;" xml:space="preserve">
<style type="text/css">
	.st0{fill:#43413E;}
	.st1{fill:#F15B24;}
</style>
<g id="суп">
	<g>
		<g>
			<path class="st0" d="M141,153.7c-2.5,0-5-0.8-7-2.4c-4.9-3.9-5.8-11.1-1.9-16c2.2-2.8,21-28.4,0.9-48.4
				c-27.6-27.6-12.9-65.7-1.2-82.1c3.6-5.1,10.8-6.3,15.9-2.7c5.1,3.6,6.3,10.7,2.7,15.9c-0.9,1.3-22,32-1.2,52.8
				c27.8,27.8,12.8,63.6,0.9,78.7C147.7,152.2,144.3,153.7,141,153.7z"/>
		</g>
		<g>
			<path class="st0" d="M226.5,153.7c-2.5,0-5-0.8-7-2.4c-4.9-3.9-5.8-11.1-1.9-16c2.2-2.8,21-28.4,0.9-48.4
				c-27.6-27.6-12.9-65.7-1.2-82.1c3.6-5.1,10.8-6.3,15.9-2.7c5.1,3.6,6.3,10.7,2.7,15.9c-0.9,1.3-22,32-1.2,52.8
				c27.8,27.8,12.8,63.6,0.9,78.7C233.2,152.2,229.9,153.7,226.5,153.7z"/>
		</g>
		<g>
			<path class="st0" d="M312,153.7c-2.5,0-5-0.8-7-2.4c-4.9-3.9-5.8-11.1-1.9-16c2.2-2.8,21-28.4,0.9-48.4
				c-27.6-27.6-12.9-65.7-1.2-82.1c3.6-5.1,10.8-6.3,15.9-2.7c5.1,3.6,6.3,10.7,2.7,15.9c-0.9,1.3-22,32-1.2,52.8
				c27.8,27.8,12.8,63.6,0.9,78.7C318.7,152.2,315.4,153.7,312,153.7z"/>
		</g>
	</g>
	<path class="st1" d="M238.7,250.7c-87.4,0-166.3,31.4-203.4,61.6c0,59.6,116,63.4,203.4,63.4c87.4,0,203.1-26.1,203.1-63.9
		C404.7,281.7,326.1,250.7,238.7,250.7z"/>
	<path class="st0" d="M402.6,213.3c-44-18.2-102.2-28.3-163.8-28.3c-61.7,0-119.9,10-163.8,28.3c-47.7,19.8-74,47.5-74,78.1
		c0,14,14,59.6,21.7,77c12,27.2,28.7,51.7,49.1,72.5c43,44,102.3,71.2,167.3,71.2c70,0,133-31.4,176.3-81.3
		c16.1-18.6,29.5-39.7,39.5-62.7c7.3-16.7,21.8-61.1,21.8-76.6C476.5,260.8,450.3,233.1,402.6,213.3z M239,485.4
		c-88.2,0-165.6-54.1-197.3-133.3c9.5,6.3,20.6,12,33.3,17.3c44,18.2,102.2,28.3,163.8,28.3s119.9-10,163.8-28.3
		c12.9-5.3,24.2-11.3,33.9-17.7C404.8,431.2,327.3,485.4,239,485.4z M438.6,315.6c-27.3,29.5-101.9,55.5-199.9,55.5
		c-94.6,0-167.3-24.2-196.9-52.4c-1.9-1.8-8.8-10.3-10.1-12.5c-2.8-4.9-4.3-9.9-4.3-14.8c0-37.7,86.8-79.7,211.2-79.7
		c124.5,0,211.2,42,211.2,79.7c0,6.6-2.7,13.4-7.8,20.1C441.7,312,439.4,314.8,438.6,315.6z"/>
	<g>
		<path class="st0" d="M169.3,348.1c-14.9,0-27-12.1-27-27c0-14.9,12.1-27,27-27c14.9,0,27,12.1,27,27
			C196.3,335.9,184.2,348.1,169.3,348.1z M169.3,309.2c-6.5,0-11.9,5.3-11.9,11.9c0,6.5,5.3,11.9,11.9,11.9
			c6.5,0,11.9-5.3,11.9-11.9C181.2,314.5,175.8,309.2,169.3,309.2z"/>
	</g>
	<g>
		<path class="st0" d="M258.6,356.4c-12.8,0-23.2-10.4-23.2-23.2c0-12.8,10.4-23.2,23.2-23.2c12.8,0,23.2,10.4,23.2,23.2
			C281.8,346,271.4,356.4,258.6,356.4z M258.6,325.3c-4.4,0-8,3.6-8,8c0,4.4,3.6,8,8,8c4.4,0,8-3.6,8-8
			C266.6,328.8,263,325.3,258.6,325.3z"/>
	</g>
</g>
</svg>
