<svg width="282" height="62" viewBox="0 0 282 62" xmlns="http://www.w3.org/2000/svg"><title>logo + Shape</title><g fill="#43413E" fill-rule="evenodd"><path d="M70.462 45.028c8.307 0 14.346-6.317 14.346-14.028v-.077c0-7.712-5.962-13.95-14.27-13.95-8.307 0-14.346 6.316-14.346 14.027v.078c0 7.71 5.962 13.95 14.27 13.95zm.076-5.503c-4.77 0-8.153-3.875-8.153-8.525v-.077c0-4.65 3.307-8.448 8.077-8.448S78.615 26.35 78.615 31v.078c0 4.65-3.307 8.447-8.077 8.447zm34.327 5.503c5.193 0 8.27-1.86 11.04-4.844l-3.77-3.836c-2.116 1.937-4 3.177-7.077 3.177-4.616 0-7.808-3.875-7.808-8.525v-.077c0-4.65 3.27-8.448 7.808-8.448 2.692 0 4.807 1.163 6.884 3.06l3.77-4.377c-2.5-2.48-5.54-4.185-10.616-4.185-8.27 0-14.038 6.316-14.038 14.027v.078c0 7.788 5.884 13.95 13.807 13.95zm17.943-.465h20.5v-5.31h-14.616v-5.696h12.693V28.25h-12.693v-5.504h14.423v-5.31h-20.307v27.126zm25.634 0h6.04l2.46-6.084h11.385l2.46 6.083h6.194l-11.538-27.32h-5.46l-11.54 27.32zm10.616-11.354l3.577-8.798 3.577 8.797h-7.154zm24.25 11.352h5.846V27.32l13.038 17.242h5.04V17.439h-5.847v16.7l-12.616-16.7h-5.462v27.125zm57.038.466c7.192 0 12-6.162 12-14.028v-.077c0-7.867-4.808-13.95-11.923-13.95-7.154 0-12 6.16-12 14.027v.078c0 7.866 4.73 13.95 11.923 13.95zm.077-5.387c-3.577 0-5.923-3.68-5.923-8.64v-.078c0-4.96 2.308-8.563 5.846-8.563 3.54 0 5.923 3.72 5.923 8.64v.078c0 4.92-2.27 8.563-5.847 8.563zm31.48 4.922h5.655v-5.85h3.615v-4.845h-3.615V17.244h-5l-14.77 17.244.962 4.223h13.154v5.852zm-7.153-10.694l7.154-8.448v8.447h-7.154zM29.423 28.772c0 1.744-.192 3.487.577 5.037.77 1.55 1.923 2.906 3.462 3.68 0 0 1.538 1.744 1.153 4.07-.192.968-.192 1.937-.384 2.906l-1.538 11.237v1.356c0 .58.193 1.162.385 1.937.577 1.744 2.115 2.712 3.846 2.712 1.923 0 3.654-1.357 4.23-3.488V57.253l-.19-4.456-1.348-14.92c-.192-2.905-.384-8.136-.384-9.493l-.192-9.687V.87l-.192-.194C38.27.484 37.116.29 36.538.29c-3.076 0-6.153 2.132-6.923 5.232-.577 2.13-.192 4.262-.192 6.394v16.858zm7.692 16.47h.193l.384 11.624v.193c0 .58-.384.968-.96.968-.578 0-.963-.387-.963-.97l1.345-11.817zM35.577 4.55h.192v10.465l.384 17.05c0 .967-.77 1.742-1.73 1.742-.962 0-1.54-.582-1.732-1.744V9.398c0-.194-.384-3.875 2.885-4.844zm-29.423 18.6l-.577 6.976c-.192 2.52-.385 5.038-.77 7.75l-.576 6.975c-.192 1.55-.384 3.1-.384 4.65-.192 1.744-.192 3.488-.384 5.23-.193 1.745-.385 3.49.77 4.845.96 1.163 2.306 2.13 3.845 2.13 1.346 0 2.692-.58 3.654-1.742 1.155-1.163 1.155-2.713 1.155-4.263 0-1.937-.193-3.875-.385-5.812-.192-1.162-.192-2.324-.385-3.293 0-.97-.192-1.938-.192-2.906-.385-4.456-.96-9.106-1.346-13.562-.192-1.162-.192-2.52-.385-3.68 0-.195-.384-3.295-.192-3.295 2.885-.775 4.615-3.487 5-6.394v-.582c0-4.07 0-8.33-.192-12.4v-1.55c0-.387-.193-.58-.385-.58h-2.308c-.192 0-.384.193-.384.58L11.54 17.34c-.192.582-.576.582-.96.582l-.386-.194c-.384-.194-.384-.775-.384-.97v-.192L9.615 2.228c0-.387-.192-.58-.384-.58H6.924c-.192 0-.385.193-.385.58L6.346 17.34c-.192.582-.577.582-.96.582-.386 0-.578-.194-.963-.58L4.23 2.227c0-.387-.192-.58-.384-.58H1.538c-.192 0-.384.193-.384.58l-.192 14.53v.195c0 .775.192 1.55.576 2.13.962 1.94 2.693 3.49 4.616 4.07zm1.923 14.34h.192l1.153 18.986v.388c0 .775-.385 1.55-1.154 1.55-.578 0-1.155-.582-1.155-1.357l.962-19.57z"/></g></svg>