<?xml version="1.0" encoding="utf-8"?>
<!-- Generator: Adobe Illustrator 17.0.0, SVG Export Plug-In . SVG Version: 6.00 Build 0)  -->
<!DOCTYPE svg PUBLIC "-//W3C//DTD SVG 1.1//EN" "http://www.w3.org/Graphics/SVG/1.1/DTD/svg11.dtd">
<svg version="1.1" id="BackToMenu" xmlns="http://www.w3.org/2000/svg" xmlns:xlink="http://www.w3.org/1999/xlink" x="0px" y="0px"
	 width="26px" height="23px" viewBox="0 0 26 23" enable-background="new 0 0 26 23" xml:space="preserve">
<path fill="#42413E" d="M24.5,22h-23C0.673,22,0,21.327,0,20.5v-19C0,0.673,0.673,0,1.5,0h23C25.327,0,26,0.673,26,1.5v19
	C26,21.327,25.327,22,24.5,22z M1.5,1C1.224,1,1,1.224,1,1.5v19C1,20.775,1.224,21,1.5,21h23c0.275,0,0.5-0.225,0.5-0.5v-19
	C25,1.224,24.775,1,24.5,1H1.5z"/>
<rect y="3" fill="#42413E" width="26" height="1"/>
<g id="Menu_Item_1_">
	<g id="Lines_1_">
		<rect x="13" y="16" fill="#42413E" width="8" height="1"/>
		<rect x="13" y="19" fill="#42413E" width="8" height="1"/>
	</g>
	<path fill="#42413E" d="M8.5,22h-3C4.673,22,4,21.327,4,20.5v-3C4,16.673,4.673,16,5.5,16h3c0.827,0,1.5,0.673,1.5,1.5v3
		C10,21.327,9.327,22,8.5,22z M5.5,17C5.224,17,5,17.225,5,17.5v3C5,20.775,5.224,21,5.5,21h3C8.776,21,9,20.775,9,20.5v-3
		C9,17.225,8.776,17,8.5,17H5.5z"/>
</g>
<g id="Menu_Item">
	<g id="Lines">
		<rect x="13" y="7" fill="#42413E" width="8" height="1"/>
		<rect x="13" y="10" fill="#42413E" width="8" height="1"/>
	</g>
	<path fill="#42413E" d="M8.5,13h-3C4.673,13,4,12.327,4,11.5v-3C4,7.673,4.673,7,5.5,7h3C9.327,7,10,7.673,10,8.5v3
		C10,12.327,9.327,13,8.5,13z M5.5,8C5.224,8,5,8.224,5,8.5v3C5,11.776,5.224,12,5.5,12h3C8.776,12,9,11.776,9,11.5v-3
		C9,8.224,8.776,8,8.5,8H5.5z"/>
</g>
</svg>
