<?xml version="1.0" encoding="UTF-8" standalone="no"?>
<svg width="15px" height="19px" viewBox="0 0 15 19" version="1.1" xmlns="http://www.w3.org/2000/svg" xmlns:xlink="http://www.w3.org/1999/xlink" xmlns:sketch="http://www.bohemiancoding.com/sketch/ns">
    <!-- Generator: Sketch 3.5.1 (25234) - http://www.bohemiancoding.com/sketch -->
    <title>filter-vegan</title>
    <desc>Created with Sketch.</desc>
    <defs></defs>
    <g id="Page-1" stroke="none" stroke-width="1" fill="none" fill-rule="evenodd" sketch:type="MSPage">
        <g id="filter-sprites-23x27-1bdec2050d7d023d1835d5d890ae5152_1" sketch:type="MSLayerGroup" transform="translate(-4.000000, -303.000000)">
            <g id="filter-vegan" transform="translate(4.000000, 303.000000)" sketch:type="MSShapeGroup">
                <g id="XMLID_3_">
                    <g id="Group">
                        <path d="M7.8,13.9 C9.3,13.9 10.5,12.7 10.5,11.2 C10.5,9.7 9.3,8.5 7.8,8.5 C6.3,8.5 5.1,9.7 5.1,11.2 C5.1,12.6 6.3,13.9 7.8,13.9 L7.8,13.9 Z M7.8,16.3 C5.7,16.2 3.9,14.9 3.1,13 C3,12.9 3,12.7 3,12.6 C2.9,12.1 2.8,10.2 3.6,8.8 L6.5,3.7 C6.7,3.5 6.8,3.2 6.9,2.9 C7.2,2.3 7.5,2.2 7.7,2.2 L7.7,2.2 L7.8,2.2 L7.9,2.2 L7.9,2.2 C8.1,2.2 8.4,2.4 8.7,2.9 C8.8,3.1 9,3.4 9.1,3.7 L12,8.8 C12.8,10.1 12.7,12 12.6,12.6 C12.6,12.7 12.5,12.9 12.5,13 C11.7,14.9 9.9,16.2 7.8,16.3 L7.8,16.3 Z" id="Shape" fill="#FFFFFF"></path>
                        <path d="M10.5,11.1 C10.5,12.6 9.3,13.8 7.8,13.8 C6.3,13.8 5.1,12.6 5.1,11.1 C5.1,9.6 6.3,8.4 7.8,8.4 C9.3,8.4 10.5,9.6 10.5,11.1 L10.5,11.1 Z" id="Shape" fill="#F15B24"></path>
                        <path d="M7.6,18.1 C4.3,17.9 1.6,15.6 0.8,12.6 C0.7,12.1 0.5,9.8 1.4,8.3 L4.5,2.9 C4.6,2.7 4.8,2.4 4.9,2.2 C5.4,1.3 6.2,0.4 7.6,0.3 L7.6,0.3 L7.7,0.3 L7.8,0.3 L7.8,0.3 C9.2,0.4 10,1.3 10.5,2.2 C10.6,2.4 10.7,2.6 10.9,2.9 L14,8.3 C14.9,9.8 14.7,12.1 14.6,12.6 C13.8,15.6 11.1,17.9 7.8,18.1 L7.8,18.1 L7.7,18.1 L7.6,18.1 L7.6,18.1 L7.6,18.1 Z M6.4,3.8 L3.5,8.9 C2.7,10.2 2.8,12.1 2.9,12.7 C2.9,12.8 3,13 3,13.1 C3.8,14.9 5.6,16.2 7.7,16.4 C9.8,16.3 11.6,15 12.5,13.1 C12.6,13 12.6,12.8 12.6,12.7 C12.7,12.2 12.8,10.3 12,8.9 L9.1,3.8 C8.9,3.6 8.8,3.3 8.7,3 C8.4,2.4 8.1,2.3 7.9,2.3 L7.9,2.3 L7.8,2.3 L7.7,2.3 L7.7,2.3 C7.5,2.3 7.2,2.5 6.9,3 C6.7,3.3 6.5,3.5 6.4,3.8 L6.4,3.8 Z" id="Shape" fill="#43413E"></path>
                    </g>
                </g>
            </g>
        </g>
    </g>
</svg>