<?xml version="1.0" encoding="UTF-8" standalone="no"?>
<svg width="14px" height="21px" viewBox="0 0 14 21" version="1.1" xmlns="http://www.w3.org/2000/svg" xmlns:xlink="http://www.w3.org/1999/xlink" xmlns:sketch="http://www.bohemiancoding.com/sketch/ns">
    <!-- Generator: Sketch 3.5.1 (25234) - http://www.bohemiancoding.com/sketch -->
    <title>filter-low-carb</title>
    <desc>Created with Sketch.</desc>
    <defs></defs>
    <g id="Page-1" stroke="none" stroke-width="1" fill="none" fill-rule="evenodd" sketch:type="MSPage">
        <g id="filter-sprites-23x27-1bdec2050d7d023d1835d5d890ae5152_1" sketch:type="MSLayerGroup" transform="translate(-4.000000, -109.000000)">
            <g id="filter-low-carb" transform="translate(4.000000, 109.000000)" sketch:type="MSShapeGroup">
                <path d="M5.1,12.8 L5.1,12.5 C5,11.6 4.9,10.7 4.8,9.7 C4.7,8.8 4.6,7.8 4.6,6.9 C4.5,6.1 4.5,5.4 4.7,4.6 C4.9,3.9 5.2,3.2 5.7,2.6 C6.4,1.8 7.5,1.3 8.5,1.2 C9.7,1.1 10.7,1.5 11.5,2.3 C12.7,3.6 13.3,5.6 12.6,7.3 C12.3,8 11.8,8.8 11.2,9.3 C10.3,10 9.5,10.8 8.6,11.6 C8.2,12 7.7,12.4 7.3,12.8 C7,13.1 6.5,13.7 6,13.7 C5.4,13.8 5.2,13.2 5.1,12.8 L5.1,12.8 Z" id="Shape" fill="#F15B24"></path>
                <path d="M10.7,0.5 C8.9,-0.3 6.7,0.2 5.2,1.5 C4.6,2 4.2,2.6 3.9,3.3 C3.2,5.1 3.7,7.2 3.9,9.1 C4,9.6 4,10.2 4.1,10.7 C4.2,11.2 4.2,11.8 4.3,12.2 L2.8,16.2 C2,16.2 1.3,16.7 1,17.5 C0.8,18 0.8,18.6 1,19.1 C1.2,19.6 1.6,20 2.1,20.2 C2.3,20.3 2.5,20.3 2.8,20.4 C3,20.6 3.2,20.7 3.4,20.8 C3.6,20.9 3.9,21 4.1,21 C4.9,21 5.6,20.5 5.9,19.7 C6.2,19 6.1,18.2 5.6,17.6 L7.2,13.6 C7.9,13.3 8.4,12.8 9,12.3 C9.4,11.9 9.8,11.6 10.2,11.3 C11.1,10.5 12.2,9.8 12.9,8.7 C14.4,6.5 14.1,3.2 12.1,1.3 C11.6,1 11.2,0.7 10.7,0.5 L10.7,0.5 Z M4.5,19.2 C4.4,19.5 4.1,19.6 3.8,19.5 C3.7,19.5 3.6,19.4 3.6,19.3 C3.5,19.1 3.3,19 3,19 L2.9,19 L2.6,19 C2.5,18.9 2.4,18.8 2.3,18.7 C2.2,18.6 2.2,18.4 2.3,18.3 C2.4,18 2.7,17.9 3,18 C3.4,18.2 3.8,18 3.9,17.6 L4.1,17.7 C4,18 4.1,18.4 4.4,18.6 C4.5,18.7 4.6,19 4.5,19.2 L4.5,19.2 Z M11.9,6.1 C11.8,6.5 11.4,7.8 10.6,8.4 L7.6,11 C7.4,11.1 7.3,11.3 7.1,11.4 C6.8,11.7 6.6,11.7 6.4,11.7 L6.4,11.7 L6.3,11.7 C6.3,11.7 6.3,11.7 6.2,11.7 L6.2,11.7 C6.1,11.6 5.9,11.5 5.9,11 C5.9,10.8 5.9,10.6 5.8,10.4 L5.4,6.3 C5.3,5.2 5.8,4 6,3.7 C6.1,3.6 6.1,3.5 6.2,3.5 C7.1,2.5 8.6,2.1 9.9,2.6 C11.1,3.3 11.9,4.6 11.9,6 C11.9,5.9 11.9,6 11.9,6.1 L11.9,6.1 Z" id="Shape" fill="#43413E"></path>
            </g>
        </g>
    </g>
</svg>