<?xml version="1.0" encoding="UTF-8" standalone="no"?>
<svg width="23px" height="24px" viewBox="0 0 23 24" version="1.1" xmlns="http://www.w3.org/2000/svg" xmlns:xlink="http://www.w3.org/1999/xlink" xmlns:sketch="http://www.bohemiancoding.com/sketch/ns">
    <!-- Generator: Sketch 3.5.1 (25234) - http://www.bohemiancoding.com/sketch -->
    <title>filter-dairy-free</title>
    <desc>Created with Sketch.</desc>
    <defs></defs>
    <g id="Page-1" stroke="none" stroke-width="1" fill="none" fill-rule="evenodd" sketch:type="MSPage">
        <g id="filter-sprites-23x27-1bdec2050d7d023d1835d5d890ae5152_1" sketch:type="MSLayerGroup" transform="translate(0.000000, -206.000000)">
            <g id="filter-dairy-free" transform="translate(0.000000, 206.000000)" sketch:type="MSShapeGroup">
                <path d="M13.9,1.1 L21.8,7.7 L5,6.5 C7.4,3.9 10.5,2 13.9,1.1 L13.9,1.1 Z" id="Shape" fill="#F15B24"></path>
                <g id="XMLID_1_" transform="translate(4.000000, 0.000000)">
                    <path d="M13.1,10.8 C11.9,10.8 11,11.7 11,12.9 C11,14.1 11.9,15 13.1,15 C14.3,15 15.2,14 15.2,12.9 C15.2,11.7 14.3,10.8 13.1,10.8 L13.1,10.8 Z M7.1,14.3 C8.6,14.3 9.8,13.1 9.8,11.6 C9.8,10.1 8.6,8.9 7.1,8.9 C5.6,8.9 4.4,10.1 4.4,11.6 C4.5,13.1 5.7,14.3 7.1,14.3 L7.1,14.3 Z M2.6,15.2 L2.6,7.7 L16.6,8.7 L16.6,16.3 L2.6,15.2 L2.6,15.2 Z" id="Shape" fill="#FFFFFF"></path>
                    <path d="M14.2,12.9 C14.2,12.3 13.7,11.8 13.1,11.8 C12.5,11.8 12,12.3 12,12.9 C12,13.5 12.5,14 13.1,14 C13.7,14.1 14.2,13.5 14.2,12.9 L14.2,12.9 Z M11,12.9 C11,11.7 11.9,10.8 13.1,10.8 C14.3,10.8 15.2,11.7 15.2,12.9 C15.2,14.1 14.2,15 13.1,15 C11.9,15.1 11,14.1 11,12.9 L11,12.9 Z" id="Shape" fill="#43413E"></path>
                    <path d="M7.1,9.9 C6.2,9.9 5.5,10.7 5.5,11.6 C5.5,12.5 6.2,13.3 7.1,13.3 C8,13.3 8.7,12.6 8.7,11.6 C8.7,10.6 8.1,9.9 7.1,9.9 L7.1,9.9 Z M9.8,11.6 C9.8,13.1 8.6,14.3 7.1,14.3 C5.6,14.3 4.4,13.1 4.4,11.6 C4.4,10.1 5.6,8.9 7.1,8.9 C8.6,8.9 9.8,10.1 9.8,11.6 L9.8,11.6 Z" id="Shape" fill="#43413E"></path>
                    <path d="M2.6,7.7 L2.6,15.2 L16.6,16.3 L16.6,8.7 L2.6,7.7 L2.6,7.7 Z M2.2,4.6 C4.3,2.5 7.1,0.7 10.1,0.1 C10.7,0.1 11.3,0.6 11.7,1 C12.4,1.6 13.1,2.3 13.9,2.9 C14.9,3.8 15.9,4.8 17,5.7 C17.5,6.1 18,6.4 18.3,7 C18.6,7.6 18.6,8.3 18.6,9 C18.6,9.9 18.6,10.8 18.5,11.7 C18.5,12.5 18.4,13.2 18.5,14 C18.5,14.7 18.5,15.3 18.6,16 C18.6,16.5 18.6,17.1 18.2,17.5 C18,17.8 17.6,17.9 17.2,17.9 C16.8,17.9 16.3,17.8 15.9,17.8 C15.7,17.8 15.4,17.8 15.2,17.7 C13.7,17.6 12.1,17.5 10.6,17.3 C9.6,17.2 8.6,17.1 7.7,17.1 L1.5,16.7 C0.8,16.6 0.7,16.1 0.7,15.8 L0.7,14 L0.7,11.6 L0.7,6.4 C0.7,6.3 0.9,6 1,5.9 C1.1,5.7 1.2,5.5 1.4,5.4 C1.6,5.2 1.9,4.9 2.2,4.6 L2.2,4.6 Z M9.8,1.7 C7.1,2.5 4.7,4 2.8,6 L16,6.9 L9.8,1.7 L9.8,1.7 Z" id="Shape" fill="#43413E"></path>
                </g>
                <path d="M1.9,20.6 L7.4,15.1 L8.2,15.9 L2.7,21.4 L1.9,20.6 L1.9,20.6 Z" id="Shape" fill="#F15B24"></path>
                <path d="M5.1,14.1 C2.6,14.1 0.6,16.1 0.6,18.6 C0.6,21.1 2.6,23.1 5.1,23.1 C7.6,23.1 9.6,21.1 9.6,18.6 C9.6,16.1 7.6,14.1 5.1,14.1 L5.1,14.1 Z M5.1,21.8 C3.4,21.8 2,20.4 2,18.7 C2,17 3.4,15.6 5.1,15.6 C6.8,15.6 8.2,17 8.2,18.7 C8.2,20.4 6.9,21.8 5.1,21.8 L5.1,21.8 Z" id="Shape" fill="#F15B24"></path>
            </g>
        </g>
    </g>
</svg>