<?xml version="1.0" encoding="UTF-8" standalone="no"?>
<svg width="21px" height="19px" viewBox="0 0 21 19" version="1.1" xmlns="http://www.w3.org/2000/svg" xmlns:xlink="http://www.w3.org/1999/xlink" xmlns:sketch="http://www.bohemiancoding.com/sketch/ns">
    <!-- Generator: Sketch 3.5.1 (25234) - http://www.bohemiancoding.com/sketch -->
    <title>filter-vegetarian</title>
    <desc>Created with Sketch.</desc>
    <defs></defs>
    <g id="Page-1" stroke="none" stroke-width="1" fill="none" fill-rule="evenodd" sketch:type="MSPage">
        <g id="filter-sprites-23x27-1bdec2050d7d023d1835d5d890ae5152_1" sketch:type="MSLayerGroup" transform="translate(-1.000000, -63.000000)">
            <g id="filter-vegetarian" transform="translate(1.000000, 63.000000)" sketch:type="MSShapeGroup">
                <path d="M14.9,8.5 C14.4,9 3.7,16.9 3.1,17.4 C2.6,17.8 1,16.2 1.4,15.8 C2.2,15 3,14.2 3.7,13.3 C5.1,11.8 6.5,10.4 7.9,8.9 C8.7,8 9.5,7.1 10.4,6.3 C11.1,5.5 12,4.5 13.1,4.6 C13.6,4.6 14.2,4.8 14.6,5.1 L14.7,5.2 C14.8,5.5 16.6,7.1 14.9,8.5 L14.9,8.5 Z" id="Shape" fill="#F15B24"></path>
                <path d="M19,2 L16,4.1 L16,4.1 L16,4.1 L18.2,1.2 L17,0.2 L16.7,0.5 L14.8,3.4 C14.6,3.6 14.5,3.9 14.3,4.1 C13.3,3.3 11.7,3 9.2,5.7 C8.5,6.4 7.2,7.9 4.8,10.6 C3.6,11.9 2.3,13.5 0.7,15.4 C-0.4,16.8 1.7,19.1 3.2,18.2 C6.1,16.2 9.2,14.1 9.2,14.1 C9.2,14.1 13.2,11.5 14.8,10.4 C17.3,8.6 16.9,7 16.1,5.9 L16.1,5.9 C16.4,5.7 16.6,5.6 16.9,5.4 L19.9,3.6 L20.2,3.4 L19,2 L19,2 Z M13.6,8.6 C13.1,9 4,15.6 3.5,16 C3.1,16.3 2.6,15.7 2.9,15.4 C3.3,14.9 11.2,6.6 11.2,6.6 C12.3,5.1 13.3,5.7 13.7,6.1 C13.9,6.3 15.1,7.3 13.6,8.6 L13.6,8.6 Z" id="Shape" fill="#43413E"></path>
            </g>
        </g>
    </g>
</svg>