<?xml version="1.0" encoding="utf-8"?>
<!-- Generator: Adobe Illustrator 18.1.1, SVG Export Plug-In . SVG Version: 6.00 Build 0)  -->
<svg version="1.1" id="Layer_1" xmlns="http://www.w3.org/2000/svg" xmlns:xlink="http://www.w3.org/1999/xlink" x="0px" y="0px"
	 width="15px" height="72.8px" viewBox="-298 360.2 15 72.8" enable-background="new -298 360.2 15 72.8" xml:space="preserve">
<path fill="#79776B" d="M-290.5,360.2c-4.1,0-7.5,3.4-7.5,7.5s3.4,7.5,7.5,7.5s7.5-3.4,7.5-7.5S-286.4,360.2-290.5,360.2z
	 M-286.3,362.8l-2.1,2.1c-0.6-0.4-1.3-0.7-2.1-0.7s-1.5,0.3-2.1,0.7l-2.1-2.1c1.1-1,2.6-1.6,4.2-1.6S-287.4,361.8-286.3,362.8z
	 M-293,367.7c0-1.4,1.1-2.5,2.5-2.5s2.5,1.1,2.5,2.5s-1.1,2.5-2.5,2.5S-293,369.1-293,367.7z M-295.4,363.5l2.1,2.1
	c-0.4,0.6-0.7,1.3-0.7,2.1s0.3,1.5,0.7,2.1l-2.1,2.1c-1-1.1-1.6-2.6-1.6-4.2S-296.4,364.6-295.4,363.5z M-294.7,372.6l2.1-2.1
	c0.6,0.4,1.3,0.7,2.1,0.7s1.5-0.3,2.1-0.7l2.1,2.1c-1.1,1-2.6,1.6-4.2,1.6S-293.6,373.6-294.7,372.6z M-285.6,371.9l-2.1-2.1
	c0.4-0.6,0.7-1.3,0.7-2.1s-0.3-1.5-0.7-2.1l2.1-2.1c1,1.1,1.6,2.6,1.6,4.2S-284.6,370.8-285.6,371.9z"/>
<path fill="#79776B" d="M-298,422v10h15v-10C-283,422-298,422-298,422z M-284,430.3l-3.6-3.6l3.6-3.6V430.3z M-284.7,431h-11.6
	l3.6-3.6l1.7,1.6h1l1.6-1.6L-284.7,431z M-285.4,423l-5,5h-0.2l-5-5C-295.6,423-285.4,423-285.4,423z M-293.4,426.6l-3.6,3.7V423
	L-293.4,426.6z"/>
</svg>
