<?xml version="1.0" encoding="UTF-8" standalone="no"?>
<svg width="58px" height="36px" viewBox="0 0 58 36" version="1.1" xmlns="http://www.w3.org/2000/svg" xmlns:xlink="http://www.w3.org/1999/xlink" xmlns:sketch="http://www.bohemiancoding.com/sketch/ns">
    <!-- Generator: Sketch 3.5.1 (25234) - http://www.bohemiancoding.com/sketch -->
    <title>Group</title>
    <desc>Created with Sketch.</desc>
    <defs></defs>
    <g id="Page-1" stroke="none" stroke-width="1" fill="none" fill-rule="evenodd" sketch:type="MSPage">
        <g id="Group" sketch:type="MSLayerGroup" transform="translate(0.000000, 1.000000)">
            <g id="m-vehicle-icon-68b952c279a8af90eeb2b8b8ae1f3d91" sketch:type="MSShapeGroup">
                <g id="v3-+-mobile">
                    <g id="Desktop---Step-1">
                        <g id="Join">
                            <g id="We're-making-real-fo-+-ApplyNow_CTA-+-Truck">
                                <g id="Truck">
                                    <g id="Group-21">
                                        <path d="M26,25 C23.239,25 21,27.239 21,30 C21,32.761 23.239,35 26,35 C28.761,35 31,32.761 31,30 C31,27.239 28.761,25 26,25 M26,27 C27.654,27 29,28.346 29,30 C29,31.654 27.654,33 26,33 C24.346,33 23,31.654 23,30 C23,28.346 24.346,27 26,27" id="Fill-1" fill="#42413E"></path>
                                        <path d="M48,25 C45.239,25 43,27.239 43,30 C43,32.761 45.239,35 48,35 C50.761,35 53,32.761 53,30 C53,27.239 50.761,25 48,25 M48,27 C49.654,27 51,28.346 51,30 C51,31.654 49.654,33 48,33 C46.346,33 45,31.654 45,30 C45,28.346 46.346,27 48,27" id="Fill-3" fill="#42413E"></path>
                                        <path d="M51.8678,30 C55.9308,30 56.9998,28.779 56.9998,25.5 C56.9998,20.867 54.9328,21.011 50.0928,21.011 L18.5538,21.011 C16.2008,21.011 14.9998,22.066 14.9998,23.492 L14.9998,28.087 C14.9998,29.481 16.0968,30 18.4488,30 L21.6098,30" id="Stroke-5" stroke="#42413E" stroke-width="2"></path>
                                        <path d="M30.12,30 L43.56,30" id="Stroke-7" stroke="#42413E" stroke-width="2"></path>
                                        <path d="M52.1165,20.8795 L45.0325,14.0005 L40.1995,14.0005" id="Stroke-9" stroke="#42413E" stroke-width="2"></path>
                                        <path d="M40,21.0236 L40,7.9996 L15,7.9996 L15,23.7396" id="Stroke-11" stroke="#42413E" stroke-width="2"></path>
                                        <path d="M35,7 C35,3.134 31.642,0 27.5,0 C23.358,0 20,3.134 20,7" id="Stroke-13" stroke="#42413E" stroke-width="2"></path>
                                        <path d="M0,29.5 L12,29.5" id="Stroke-15" stroke="#42413E"></path>
                                        <path d="M7,23.5 L12,23.5" id="Stroke-17" stroke="#42413E"></path>
                                        <path d="M9,17.5 L12,17.5" id="Stroke-19" stroke="#42413E"></path>
                                    </g>
                                </g>
                            </g>
                        </g>
                    </g>
                </g>
            </g>
            <text id="04" sketch:type="MSTextLayer" font-family="Antenna" font-size="6" font-weight="bold" letter-spacing="-0.412500024" fill="#F05A24">
                <tspan x="23" y="17">04</tspan>
            </text>
        </g>
    </g>
</svg>