<?xml version="1.0" encoding="utf-8"?>
<!-- Generator: Adobe Illustrator 19.1.1, SVG Export Plug-In . SVG Version: 6.00 Build 0)  -->
<svg version="1.1" id="Layer_1" xmlns="http://www.w3.org/2000/svg" xmlns:xlink="http://www.w3.org/1999/xlink" x="0px" y="0px"
	 viewBox="0 0 512 512" style="enable-background:new 0 0 512 512;" xml:space="preserve">
<style type="text/css">
	.st0{fill:#F15B24;}
	.st1{fill:#43413E;}
</style>
<g>
	<path class="st0" d="M421.1,275.3c-89.3,89.3-239,84.5-253.9,69.5c-20.5-20.5-19.8-164.6,69.5-253.9S411.4-1.3,462.3,49.7
		S510.5,186,421.1,275.3z"/>
	<path class="st1" d="M473.9,38.1C444.3,8.4,404.4-4.6,361.6,1.5c-44.7,6.3-91.9,33.2-136.5,77.8c-54.9,54.9-74,124.8-80.5,161.5
		c-3.7,20.8-5.5,43.4-4.6,63.5l-53,53c-24-15.1-54-14.1-72.3,4.3c-21.8,21.8-19.1,60.1,6,85.2C28.6,454.6,38,460.5,48,464
		c3.5,10,9.4,19.4,17.2,27.2c11.8,11.8,26.8,19.1,42.3,20.6c1.9,0.2,3.8,0.3,5.7,0.3c14.3,0,27.6-5.3,37.2-14.8
		c10.8-10.8,16.2-26.5,14.6-42.9c-1-10.3-4.6-20.4-10.3-29.4l55.3-55.3c1.9,0,3.8,0.1,5.8,0.1c17.2,0,35.8-1.6,53.2-4.4
		c46.4-7.4,112.5-27.1,163.8-78.4v0c44.6-44.6,71.5-91.8,77.8-136.5C516.6,107.6,503.6,67.7,473.9,38.1z M109.6,423.6l11.6,11.6
		c6.3,6.3,10.4,14.4,11.1,22.3c0.4,3.9,0.2,11.3-5.1,16.6c-5.3,5.3-12.7,5.5-16.6,5.1c-7.8-0.8-16-4.8-22.3-11.1
		c-5.7-5.7-9.6-12.9-10.8-20.2l-1.9-11.5l-11.5-1.9c-7.3-1.2-14.4-5.1-20.2-10.8c-12.2-12.2-14.9-30-6-38.9
		c3.5-3.5,8.5-5.2,13.9-5.2c8.3,0,17.6,3.9,25,11.3l11.6,11.6l59-59c2.2,5.3,4.9,9.7,8.2,13c3.1,3.1,7.8,5.6,13.7,7.6L109.6,423.6z
		 M478.1,145.8c-5.3,37.6-29,78.4-68.6,117.9v0c-80.4,80.4-211.2,77.9-231.1,68.9c-4.3-7.3-10.1-40.2-1.1-88.8
		c6-32.3,23.2-93.7,70.9-141.5C323.4,27.3,401,11.5,450.8,61.2C473.3,83.8,482.8,113,478.1,145.8z"/>
</g>
</svg>
