<?xml version="1.0" encoding="UTF-8" standalone="no"?>
<svg width="548px" height="512px" viewBox="0 0 548 512" version="1.1" xmlns="http://www.w3.org/2000/svg" xmlns:xlink="http://www.w3.org/1999/xlink" xmlns:sketch="http://www.bohemiancoding.com/sketch/ns">
    <!-- Generator: Sketch 3.4.1 (15681) - http://www.bohemiancoding.com/sketch -->
    <title>Layer_1@2x</title>
    <desc>Created with Sketch.</desc>
    <defs></defs>
    <g id="Page-1" stroke="none" stroke-width="1" fill="none" fill-rule="evenodd" sketch:type="MSPage">
        <g id="Rocket_delivery" sketch:type="MSLayerGroup">
            <g id="Layer_1" transform="translate(0.000000, 140.000000)" sketch:type="MSShapeGroup">
                <g id="доставка">
                    <g id="Group" transform="translate(475.360624, 0.000000)" fill="#43413E">
                        <path d="M65.5890838,80.3862069 L65.4822612,80.3862069 C62.1707602,80.2793103 59.6070175,77.3931034 59.7138402,73.8655172 C60.3547758,41.4758621 36.3196881,14.4310345 6.08888889,13.6827586 C2.77738791,13.5758621 0.213645224,10.6896552 0.320467836,7.16206897 C0.427290448,3.63448276 3.09785575,0.855172414 6.40935673,0.962068966 C43.2631579,1.81724138 72.5325536,34.6344828 71.6779727,74.0793103 C71.4643275,77.6068966 68.7937622,80.3862069 65.5890838,80.3862069 L65.5890838,80.3862069 Z" id="Shape"></path>
                        <path d="M36.4265107,78.2482759 L36.3196881,78.2482759 C33.0081871,78.1413793 30.4444444,75.2551724 30.5512671,71.7275862 C30.7649123,59.4344828 21.6849903,49.2793103 10.2549708,48.9586207 C6.94346979,48.8517241 4.3797271,45.9655172 4.48654971,42.437931 C4.59337232,39.0172414 7.15711501,36.237931 10.3617934,36.237931 L10.468616,36.237931 C28.4148148,36.6655172 42.7290448,52.7 42.3017544,71.9413793 C42.3017544,75.4689655 39.6311891,78.2482759 36.4265107,78.2482759 L36.4265107,78.2482759 Z" id="Shape"></path>
                    </g>
                    <g id="Group" transform="translate(0.000000, 211.655172)" fill="#43413E">
                        <path d="M59.2865497,85.6241379 L58.5387914,85.6241379 C40.8062378,83.2724138 24.9964912,73.6517241 14.1005848,58.6862069 C3.20467836,43.6137931 -1.70916179,24.8 0.53411306,5.87931034 C0.961403509,2.35172414 3.84561404,-0.106896552 7.15711501,0.320689655 C10.3617934,0.748275862 12.7118908,3.95517241 12.2846004,7.37586207 C10.468616,22.9827586 14.4210526,38.3758621 23.5009747,50.7758621 C32.4740741,63.1758621 45.5064327,71.0862069 60.034308,73.0103448 C63.2389864,73.437931 65.5890838,76.6448276 65.1617934,80.0655172 C64.8413255,83.2724138 62.2775828,85.6241379 59.2865497,85.6241379 L59.2865497,85.6241379 Z" id="Shape"></path>
                        <path d="M58.8592593,51.737931 L58.111501,51.737931 C40.6994152,49.3862069 28.3079922,32.3896552 30.4444444,13.6827586 C30.8717349,10.1551724 33.7559454,7.69655172 37.0674464,8.12413793 C40.2721248,8.55172414 42.6222222,11.7586207 42.1949318,15.1793103 C40.8062378,26.8310345 48.6042885,37.6275862 59.5001949,39.0172414 C62.7048733,39.4448276 65.0549708,42.6517241 64.6276803,46.0724138 C64.3072125,49.3862069 61.7434698,51.737931 58.8592593,51.737931 L58.8592593,51.737931 Z" id="Shape"></path>
                    </g>
                    <g id="Group" transform="translate(58.752437, 57.724138)">
                        <path d="M14.6346979,170.713793 C4.05925926,164.941379 -2.77738791,143.027586 3.09785575,131.375862 C20.2962963,97.1689655 60.4615984,112.241379 60.4615984,112.241379 L61.6366472,109.568966 C61.6366472,109.568966 47.8565302,86.3724138 45.5064327,69.3758621 C42.0881092,44.7896552 52.5567251,14.2172414 72.1052632,4.48965517 C87.8081871,-3.3137931 102.763353,0.534482759 112.163743,10.6896552 C138.22846,38.5896552 117.504873,119.617241 89.3037037,149.762069 C63.2389864,177.662069 42.0881092,185.465517 14.6346979,170.713793 L14.6346979,170.713793 Z" id="Shape" fill="#F15B24"></path>
                        <path d="M453.782456,170.713793 C464.357895,164.941379 471.194542,143.027586 465.319298,131.375862 C448.120858,97.1689655 407.955556,112.241379 407.955556,112.241379 L406.780507,109.568966 C406.780507,109.568966 420.560624,86.3724138 422.910721,69.3758621 C426.329045,44.7896552 415.860429,14.2172414 396.311891,4.48965517 C380.608967,-3.3137931 365.653801,0.534482759 356.253411,10.6896552 C330.188694,38.5896552 350.912281,119.617241 379.11345,149.762069 C405.178168,177.662069 426.329045,185.465517 453.782456,170.713793 L453.782456,170.713793 Z" id="Shape" fill="#F15B24"></path>
                        <path d="M445.450292,261.682759 C443.207018,254.093103 436.797661,248.962069 429.426901,248.962069 L423.65848,248.962069 C420.453801,202.355172 400.798441,159.062069 367.683431,125.924138 C341.939181,100.268966 310.212865,82.9517241 275.709162,75.362069 C276.136452,73.3310345 276.45692,71.1931034 276.45692,68.8413793 C277.097856,46.3931034 261.608577,26.6172414 240.88499,23.5172414 C215.461209,19.7758621 193.562573,40.9413793 193.562573,67.5586207 C193.562573,70.337931 193.883041,72.9034483 194.310331,75.362069 C159.806628,82.9517241 128.080312,100.268966 102.336062,125.924138 C69.2210526,158.955172 49.565692,202.248276 46.3610136,248.962069 L43.797271,248.962069 C36.4265107,248.962069 29.5898635,253.772414 27.3465887,261.362069 C24.8896686,269.486207 27.8807018,278.037931 34.7173489,282.42069 C57.0432749,296.744828 109.920468,313.741379 235.116569,313.741379 C339.909552,313.741379 410.412476,302.731034 439.040936,281.77931 C445.023002,277.289655 447.586745,269.272414 445.450292,261.682759 L445.450292,261.682759 Z M240.244055,46.0724138 C249.430799,48.5310345 255.733333,57.6172414 255.733333,67.6655172 C255.733333,69.0551724 255.626511,70.0172414 255.519688,70.4448276 C253.490058,71.0862069 247.82846,70.8724138 243.982846,70.6586207 C241.312281,70.5517241 238.214425,70.4448276 235.116569,70.4448276 C232.018713,70.4448276 228.920858,70.5517241 226.250292,70.6586207 C222.404678,70.8724138 216.74308,71.0862069 214.71345,70.4448276 C214.606628,70.0172414 214.499805,69.0551724 214.499805,67.5586207 C214.28616,53.5551724 226.57076,42.5448276 240.244055,46.0724138 L240.244055,46.0724138 Z M235.009747,93.2137931 C322.817934,93.2137931 395.777778,162.162069 402.721248,249.068966 L67.2982456,249.068966 C74.2417154,162.055172 147.201559,93.2137931 235.009747,93.2137931 L235.009747,93.2137931 Z M235.009747,291.506897 C136.732943,291.506897 86.6331384,280.924138 61.4230019,271.196552 L412.442105,271.196552 C388.834308,280.924138 339.054971,291.506897 235.009747,291.506897 L235.009747,291.506897 Z" id="Shape" fill="#43413E"></path>
                    </g>
                </g>
            </g>
        </g>
    </g>
</svg>