<?xml version="1.0" encoding="utf-8"?>
<!-- Generator: Adobe Illustrator 19.1.1, SVG Export Plug-In . SVG Version: 6.00 Build 0)  -->
<svg version="1.1" id="Layer_1" xmlns="http://www.w3.org/2000/svg" xmlns:xlink="http://www.w3.org/1999/xlink" x="0px" y="0px"
	 viewBox="0 0 512 512" style="enable-background:new 0 0 512 512;" xml:space="preserve">
<style type="text/css">
	.st0{fill:#43413E;}
	.st1{fill:#FFFFFF;}
	.st2{fill:none;}
	.st3{fill:#F15B24;}
</style>
<g id="завтраки">
	<g>
		<g>
			<g>
				<path class="st0" d="M332.2,271.2l0.7-15.6c0.1-1.3,1.6-32,8.3-63.5c10.4-48.5,27.5-72.6,52.3-73.6c23.9-1,45.2,20.7,65,66.5
					c13.1,30.3,20.8,60.2,21.1,61.5l4.3,16.7L332.2,271.2z M395.1,146.8c-0.1,0-0.2,0-0.4,0c-14.7,0.6-28.2,47.7-32.5,94.6l85.3-4.5
					C433.6,191.2,410.8,146.8,395.1,146.8z"/>
			</g>
			<g>
				<path class="st1" d="M347,337.9l-14.2-45.2c-9.1-29,7.2-60.1,36.1-69.2l45.2-14.2c29-9.1,73,4.7,83.3,81.4
					c6.4,47.3-81.4,83.3-81.4,83.3C387.2,383.1,356.1,366.9,347,337.9z"/>
				<path class="st0" d="M399.7,390.7c-11,0-22-2.7-32.1-8c-16.4-8.6-28.5-23-34.1-40.6l-14.2-45.2c-5.5-17.6-3.8-36.4,4.8-52.8
					c8.6-16.4,23-28.5,40.6-34.1l45.2-14.2c19.1-6,39.9-3.2,56.9,7.6c16.6,10.5,37.7,33.9,44.7,85.4c7.6,56.5-80,94.2-90,98.3
					l-1.1,0.4C413.6,389.7,406.6,390.7,399.7,390.7z M430.2,221c-4,0-7.9,0.6-11.8,1.8L373.2,237c-10.4,3.3-18.9,10.4-24,20.2
					c-5.1,9.8-6.1,20.9-2.8,31.3l14.2,45.2c3.3,10.4,10.4,18.9,20.2,24c9.6,5,20.5,6.1,30.7,3c20.6-8.6,76.1-38.7,72.1-68.1
					c-4.3-32.2-15.3-54.8-31.8-65.3C445.2,223.2,437.7,221,430.2,221z"/>
			</g>
		</g>
		<g>
			<g>
				<path class="st0" d="M256.2,496c-24.5,0-40.8-6.7-49.4-20.3c-13.3-20.9-3.2-48.7,30.6-85c22-23.5,46.3-42.3,47.4-43l12.4-9.5
					l80.1,129.1l-16.2,6c-1.2,0.5-30.2,11.2-62.5,17.8C282.4,494.4,268.3,496,256.2,496z M289.8,379.9c-36,30.3-66.9,68.3-59.1,80.7
					c8.4,13.3,58.4,6.7,104.1-8L289.8,379.9z"/>
			</g>
			<g>
				<path class="st1" d="M360.4,312.3l-45.2,14.2c-29,9.1-45.2,40.2-36.1,69.2l14.2,45.2c9.1,29,45.5,57.3,114.4,22
					c42.5-21.8,22-114.4,22-114.4C420.5,319.5,389.3,303.2,360.4,312.3z"/>
				<path class="st0" d="M349.5,493.3c-12.9,0-23.2-2.6-31-5.9c-18.6-7.8-32.7-23.2-38.7-42.4l-14.2-45.2
					c-5.5-17.6-3.8-36.4,4.8-52.8c8.6-16.4,23-28.5,40.6-34.1l45.2-14.2c17.6-5.5,36.4-3.8,52.8,4.8c16.4,8.6,28.5,23,34.1,40.6
					l0.3,1.2c2.3,10.6,21.4,104-29.3,130C387.8,488.8,366.4,493.3,349.5,493.3z M364.6,325.8L319.4,340c-10.4,3.3-18.9,10.4-24,20.2
					c-5.1,9.8-6.1,20.9-2.8,31.3l14.2,45.2c3.5,11.2,11.8,20.2,22.7,24.8c18,7.6,42.8,3.7,71.8-11.1c26.5-13.6,19.5-76.3,14.8-98.1
					c-3.3-10.2-10.4-18.5-20-23.5C386.1,323.5,375,322.5,364.6,325.8L364.6,325.8z"/>
			</g>
		</g>
		<g>
			<path class="st1" d="M309.6,301.5c17.6-33.6,113.8-32.6,150.2-22c29.1,8.5,52.7,63,26,114.1c-25.9,49.5-84.9,62.8-108.5,43.8
				C347.7,413.5,292,335.1,309.6,301.5z"/>
			<path class="st0" d="M405,459.8c-14.4,0-27.2-3.9-36.6-11.4c-30.9-25-94.3-109.6-71.4-153.4s128.6-40.2,166.7-29
				c16.5,4.8,30.9,19.3,39.6,39.8c12.4,29.2,10.5,64.5-5.1,94.4c-15.5,29.6-43.6,51.2-75.2,57.8C416.9,459.2,410.8,459.8,405,459.8z
				 M401.2,287.1c-7.4,0-14.9,0.3-22.4,0.9c-35.7,3-52.7,12.4-56.7,20.1l0,0c-4,7.7-2,27,15.9,58c15.2,26.3,35.7,50.3,48.2,60.3
				c6.3,5.1,18.2,6.5,31.2,3.8c23.4-4.9,44.3-21,55.9-43.2c11.7-22.5,13.3-48.7,4.1-70.2c-5.2-12.3-13.5-21.4-21.5-23.7
				C444.3,289.7,423.6,287.1,401.2,287.1z"/>
		</g>
	</g>
	<path class="st2" d="M71.8,310.1c1,11.1,9.5,19.5,19.7,19.5h118.1c10.2,0,18.7-8.4,19.7-19.5l4.3-46.3H67.4L71.8,310.1z"/>
	<polygon class="st3" points="67.4,263.8 233.6,263.8 240.5,190.2 60.6,190.2 	"/>
	<g>
		<path class="st0" d="M278.9,57.5c-0.1-2.3-0.5-4.6-1.2-6.8l-9.2-30.6C264.9,8.1,254.2,0,241.9,0H59.2C46.9,0,36.2,8.1,32.6,20.1
			l-9.2,30.6c-0.7,2.2-1.1,4.5-1.2,6.8C9.3,62.3,0,74.7,0,89.2V100c0,16.3,11.6,29.9,26.9,33.1c0,0.7,0.1,1.5,0.2,2.2l16.6,177.4
			c2.4,25.8,23,45.2,47.9,45.2h118.1c24.9,0,45.5-19.4,47.9-45.2L274,135.3c0.1-0.7,0.1-1.5,0.2-2.2c15.3-3.2,26.9-16.8,26.9-33.1
			V89.2C301.1,74.7,291.8,62.3,278.9,57.5z M59.7,28.3C59.7,28.3,59.7,28.3,59.7,28.3l181.8,0c0,0,0,0,0,0l8.2,27.2H51.5L59.7,28.3z
			 M240.5,190.2l-6.9,73.6l-4.3,46.3c-1,11.1-9.5,19.5-19.7,19.5H91.5c-10.2,0-18.7-8.4-19.7-19.5l-4.3-46.3l-6.9-73.6l-5.3-56.4
			h190.5L240.5,190.2z M272.8,100c0,2.9-2.2,5.2-5,5.5c-0.2,0-0.3,0.1-0.5,0.1H33.8c-0.2,0-0.3,0-0.5-0.1c-2.8-0.3-5-2.6-5-5.5V89.2
			c0-3,2.5-5.5,5.5-5.5h1.8h22.2h185.4h22.2h1.8c3,0,5.5,2.5,5.5,5.5V100z"/>
	</g>
</g>
</svg>
