<?xml version="1.0" encoding="UTF-8" standalone="no"?>
<svg width="513px" height="512px" viewBox="0 0 513 512" version="1.1" xmlns="http://www.w3.org/2000/svg" xmlns:xlink="http://www.w3.org/1999/xlink" xmlns:sketch="http://www.bohemiancoding.com/sketch/ns">
    <!-- Generator: Sketch 3.4.1 (15681) - http://www.bohemiancoding.com/sketch -->
    <title>Rocket_menu</title>
    <desc>Created with Sketch.</desc>
    <defs></defs>
    <g id="Page-1" stroke="none" stroke-width="1" fill="none" fill-rule="evenodd" sketch:type="MSPage">
        <g id="Rocket_menu" sketch:type="MSLayerGroup" transform="translate(0.000000, 53.000000)">
            <g id="меню" sketch:type="MSShapeGroup">
                <rect id="Rectangle-path" fill="#F15B24" x="115.3" y="374.1" width="276.3" height="62.7"></rect>
                <path d="M262.1,279.6 L237.9,279.6 L237.9,315.5 L214.6,315.5 L214.6,207.5 L266.8,207.5 C300.8,207.5 308.9,222.1 308.9,242.8 C308.9,257.7 304.1,271.4 286.2,277.1 L307.6,315.6 L282.1,315.6 L262.1,279.6 L262.1,279.6 Z M266,259 C279,259 284.8,255.8 284.8,243.5 C284.8,231 279.3,227.8 265.7,227.8 L237.9,227.8 L237.9,259 L266,259 L266,259 Z" id="Shape" fill="#F15B24"></path>
                <path d="M477,255.4 C458.4,255.4 443.2,270.6 443.2,289.2 C443.2,294.6 438.8,298.9 433.5,298.9 L410.9,298.9 L411.2,210.2 C411.2,196.9 402.3,185.2 389.5,181.7 C350.3,171.1 332.2,92.4 328.4,22.3 C327.7,9.8 317.4,0 304.8,0 L293.3,0 C286.8,0 280.8,2.6 276.3,7.2 C271.8,11.9 269.5,18 269.7,24.4 C270.8,56.5 266.8,82.1 259.3,89.7 C258,91.1 253.3,91.1 252,89.7 C244.4,81.9 240.4,55.5 241.7,22.5 C241.9,16.6 239.8,10.9 235.7,6.6 C231.7,2.4 226,0 220.1,0 L204.7,0 C193.2,0 183.7,9 183.1,20.6 C179.7,88.2 161.6,171 121.9,181.8 C109.1,185.3 100.2,197 100.2,210.3 L100.5,299 L78.5,299 C73.1,299 68.8,294.6 68.8,289.3 C68.8,270.7 53.6,255.5 35,255.5 L0,255.5 L0,279.6 L35,279.6 C40.4,279.6 44.7,284 44.7,289.3 C44.7,307.9 59.9,323.1 78.5,323.1 L100.6,323.1 L101,429.6 C101.1,445.8 114.3,459 130.5,459 L381,459 C397.2,459 410.4,445.8 410.5,429.6 L410.9,323.1 L433.6,323.1 C452.2,323.1 467.4,307.9 467.4,289.3 C467.4,283.9 471.8,279.6 477.1,279.6 L512.1,279.6 L512.1,255.5 L477,255.5 L477,255.4 Z M386.4,429.4 C386.4,432.4 384,434.8 381,434.8 L255.7,434.8 L130.4,434.8 C127.4,434.8 125,432.4 125,429.4 L124.2,210.2 C124.2,207.8 125.8,205.6 128.1,205 C191,188 204.3,74.6 207,24.1 L217.6,24.1 C216.6,53.3 218.9,90.3 234.7,106.6 C240.4,112.5 247.6,115.5 255.5,115.5 L255.5,115.5 L255.7,115.5 L255.9,115.5 L255.9,115.5 C263.8,115.5 270.9,112.5 276.6,106.7 C292.6,90.4 294.8,52.9 293.8,24.2 L304.4,24.2 C307.1,73.2 320.2,188 383.3,205.1 C385.6,205.7 387.2,207.9 387.2,210.3 L386.4,429.4 L386.4,429.4 Z" id="Shape" fill="#43413E"></path>
            </g>
        </g>
    </g>
</svg>