<?xml version="1.0" encoding="utf-8"?>
<!-- Generator: Adobe Illustrator 19.1.1, SVG Export Plug-In . SVG Version: 6.00 Build 0)  -->
<svg version="1.1" id="Layer_1" xmlns="http://www.w3.org/2000/svg" xmlns:xlink="http://www.w3.org/1999/xlink" x="0px" y="0px"
	 viewBox="0 0 512 512" style="enable-background:new 0 0 512 512;" xml:space="preserve">
<style type="text/css">
	.st0{fill:#F15B24;}
	.st1{fill:#43413E;}
	.st2{fill:#FFFFFF;}
</style>
<g id="ризотто">
	<path class="st0" d="M272.9,197c0,0-153.7,5.6-205,40.6S52.8,371.1,52.8,371.1s72.1,120.7,165.1,131.2c93,10.4,168-26.6,194.5-65.5
		s68.1-108.4,68.1-108.4s9.8-62.6-25.8-81.5S272.9,197,272.9,197z"/>
	<g>
		<g>
			<path class="st1" d="M158.8,153.7c-2.5,0-5-0.8-7-2.4c-4.9-3.9-5.8-11.1-1.9-16c2.2-2.8,21-28.4,0.9-48.4
				c-27.6-27.6-12.9-65.7-1.2-82.1c3.6-5.1,10.8-6.3,15.9-2.7c5.1,3.6,6.3,10.7,2.7,15.8c-0.9,1.3-22,32-1.2,52.8
				c27.8,27.8,12.8,63.6,0.9,78.7C165.5,152.2,162.1,153.7,158.8,153.7z"/>
		</g>
		<g>
			<path class="st1" d="M244.3,153.7c-2.5,0-5-0.8-7-2.4c-4.9-3.9-5.8-11.1-1.9-16c2.2-2.8,21-28.4,0.9-48.4
				c-27.6-27.6-12.9-65.7-1.2-82.1c3.6-5.1,10.8-6.3,15.9-2.7c5.1,3.6,6.3,10.7,2.7,15.8c-0.9,1.3-22,32-1.2,52.8
				c27.8,27.8,12.8,63.6,0.9,78.7C251,152.2,247.6,153.7,244.3,153.7z"/>
		</g>
		<g>
			<path class="st1" d="M329.8,153.7c-2.5,0-5-0.8-7-2.4c-4.9-3.9-5.8-11.1-1.9-16c2.2-2.8,21-28.4,0.9-48.4
				c-27.6-27.6-12.9-65.7-1.2-82.1c3.6-5.1,10.8-6.3,15.9-2.7c5.1,3.6,6.3,10.7,2.7,15.8c-0.9,1.3-22,32-1.2,52.8
				c27.8,27.8,12.8,63.6,0.9,78.7C336.5,152.2,333.2,153.7,329.8,153.7z"/>
		</g>
	</g>
	<path class="st2" d="M429.3,312.4c-1.9,0-2.9-2.4-4.4-3.6c-2.3-1.8-2.7-5.1-1.1-7.5c1.6-2.3,2.5-4.8,2.5-7.3
		c0.2-14.1-24.5-25.9-55.4-26.4c-12.1-0.2-23.3,1.4-32.4,4.2c-3.5,1.1-7.1-0.9-8.3-4.3c-0.2-0.5-0.4-1-0.7-1.5
		c-6.5-12.5-33.9-11.1-61.3,3l-0.2,0.1c-4.3,2.2-8.9-2.3-6.9-6.7c5.4-11.7,6-22,0.6-27.6c-8.1-8.4-27.3-3.5-46.3,10.6
		c-4,3-9.4,3.6-13.9,1.3c-12.8-6.5-24.2-7.7-30.2-1.9c-3.1,3-8.9,9.4-12.9,18.4c-1.6,3.6-33-18.5-48.1,5.9
		c-4.8,7.8-9.4,15.7-18.3,13.3c-12.8-3.4-23.3-2.3-27.9,4.1c-6.4,9-13.3,36.1,22.3,62.5c13.2,7.4,127.9,70,309.1,16.4
		c19.3-7.5,37.8-16.7,55.9-26.8C458.3,328,453.5,312.2,429.3,312.4z"/>
	<g>
		<circle class="st0" cx="376.7" cy="302.8" r="13.8"/>
	</g>
	<g>
		<circle class="st0" cx="220.5" cy="291.4" r="26.6"/>
	</g>
	<g>
		<circle class="st0" cx="311.2" cy="332.6" r="23.8"/>
	</g>
	<g>
		<circle class="st0" cx="133.2" cy="320.8" r="18"/>
	</g>
	<path class="st1" d="M494.3,291.4c0-30.6-26.3-58.3-74-78.1c-44-18.2-102.2-28.3-163.8-28.3c-61.7,0-119.9,10-163.8,28.3
		c-47.7,19.8-74,47.5-74,78.1c0,31.5,33.8,109.2,64.7,142.9c43.5,47.3,105,77.1,172.4,77.7c63.1,0.6,120.7-25.1,163.6-67
		C454.8,410.3,494.3,348.5,494.3,291.4z M256.5,211.6c124.5,0,211.2,42,211.2,79.7s-86.7,79.7-211.2,79.7
		c-124.5,0-211.2-42-211.2-79.7S132,211.6,256.5,211.6z M256.1,485.4C169,484.6,92.9,431.2,61.2,353.3c9.1,5.8,19.7,11.2,31.5,16.1
		c44,18.2,102.2,28.3,163.8,28.3c61.7,0,119.9-10,163.8-28.3c13.7-5.7,25.6-12,35.7-18.9C424.4,431.3,345.5,486.2,256.1,485.4z"/>
</g>
</svg>
