<?xml version="1.0" encoding="utf-8"?>
<!-- Generator: Adobe Illustrator 19.1.1, SVG Export Plug-In . SVG Version: 6.00 Build 0)  -->
<svg version="1.1" id="Layer_1" xmlns="http://www.w3.org/2000/svg" xmlns:xlink="http://www.w3.org/1999/xlink" x="0px" y="0px"
	 viewBox="0 0 512 512" style="enable-background:new 0 0 512 512;" xml:space="preserve">
<style type="text/css">
	.st0{fill:#43413E;}
	.st1{fill:#FFFFFF;}
	.st2{fill:#F15B24;}
</style>
<g id="десерты">
	<g>
		<path class="st0" d="M256,367.6c-66.4,0-129-10.8-176.4-30.4C28.3,315.9,0,286.1,0,253.2c0-32.9,28.3-62.7,79.6-84
			c47.3-19.6,110-30.4,176.4-30.4s129,10.8,176.4,30.4c51.3,21.3,79.6,51.1,79.6,84c0,32.9-28.3,62.8-79.6,84
			C385,356.8,322.4,367.6,256,367.6z M256,167.3c-134,0-227.4,45.2-227.4,85.8S122,339,256,339s227.4-45.2,227.4-85.8
			S390,167.3,256,167.3z"/>
	</g>
	<g>
		<g>
			<polygon class="st1" points="104.8,111.9 391.4,127.6 397.4,264.5 375.6,294.3 134.6,278.6 108.8,260.9 			"/>
		</g>
		<g>
			<path class="st2" d="M112,106.9l3.6,67.4c6.5-3.7,9-13.9,18.3-13.3c11.6,0.7,10.6,16.7,22.2,17.4c11.6,0.7,12.5-15.3,24.1-14.7
				c11.6,0.7,10.6,16.7,22.2,17.4c11.6,0.7,12.5-15.3,24.1-14.7c11.6,0.7,10.6,16.7,22.2,17.4c11.6,0.7,12.5-15.3,24.1-14.7
				c11.6,0.7,10.6,16.7,22.2,17.4c11.6,0.7,12.5-15.3,24.1-14.7c11.6,0.7,10.6,16.7,22.2,17.4c11.6,0.7,12.5-15.3,24.1-14.7
				c11.6,0.7,10.6,16.7,22.2,17.4c4.4,0.3,7.3-1.9,9.8-4.7l0.3-63.9L247.2,9.6L112,106.9z"/>
		</g>
		<path class="st0" d="M389.4,108.6L285.6,13.3C271.6,0.5,251.9-3.4,234,3.2c-73.3,27-114.9,71.5-133.2,95.7
			c-7.2,9.5-10.8,21.4-10.2,33.3l6.5,115.6c1.4,25.4,21.6,45.8,47,47.4l208,13.4c1.1,0.1,2.1,0.1,3.2,0.1c12.7,0,25.1-4.9,34.5-13.6
			c10.1-9.5,15.9-22.9,15.9-36.7V145.6C405.7,131.6,399.8,118.1,389.4,108.6z M119.4,134.3l257.7,15.4v52.1l-254.8-15.2L119.4,134.3
			z M243.9,30c2.5-0.9,5.1-1.4,7.7-1.4c5.4,0,10.6,2,14.7,5.7l93.3,85.6l-228-13.6C149.3,85.7,185.6,51.5,243.9,30z M370.2,274.2
			c-4.4,4.1-10.2,6.2-16.3,5.8l-208-13.4c-11-0.7-19.7-9.5-20.3-20.5l-1.7-30.8l253.2,15.1v27.9C377.1,264.4,374.7,270,370.2,274.2z
			"/>
	</g>
</g>
</svg>
