<?xml version="1.0" encoding="utf-8"?>
<!-- Generator: Adobe Illustrator 17.0.0, SVG Export Plug-In . SVG Version: 6.00 Build 0)  -->
<!DOCTYPE svg PUBLIC "-//W3C//DTD SVG 1.1//EN" "http://www.w3.org/Graphics/SVG/1.1/DTD/svg11.dtd">
<svg version="1.1" id="Layer_1" xmlns="http://www.w3.org/2000/svg" xmlns:xlink="http://www.w3.org/1999/xlink" x="0px" y="0px"
	 width="63.31px" height="64.009px" viewBox="0.187 0 63.31 64.009" style="enable-background:new 0.187 0 63.31 64.009;"
	 xml:space="preserve">
<style type="text/css">
	.st0{opacity:0.8;fill:#F15B24;enable-background:new    ;}
	.st1{fill:#43413E;}
	.st2{opacity:0.1;fill:#F15B24;enable-background:new    ;}
</style>
<g id="Hills">
	<path class="st0" d="M0.529,59.244c0.394,0.502,0.819,0.674,1.197,0.781h48.911L33.491,45.852c0,0-6.155-5.493-9.782-5.493
		s-7.804,3.556-10.002,5.461l-12.2,9.672c0,0-1.319,1.506-1.319,2.627"/>
	<path class="st0" d="M61.968,60.027H28.324c0,0,11.016-8.828,12.003-9.564c0.608-0.453,2.459-1.578,4.28-2.447
		c1.533-0.732,2.398-0.684,3.236-0.705c2.06-0.051,4.369,0.973,6.335,2.343c0,0,4.483,3.236,5.283,3.814
		c0.79,0.57,3.074,2.253,3.055,2.26c0,0,0.983,1.482,0.983,2.244c0,0,0,0.813-0.409,1.265
		C62.791,59.567,62.231,59.952,61.968,60.027z"/>
</g>
<g id="Trees">
	<g>
		<path class="st1" d="M21,34.294l-2.161-4.937c-0.025-0.064-2.031-5.26-2.798-5.685c-0.004-0.002-0.007,0-0.009-0.002
			c-0.264-0.282-0.353-0.463-0.769-0.463c-0.004,0-0.007,0.002-0.011,0.002s-0.007-0.002-0.011-0.002
			c-0.416,0-0.787,0.181-1.05,0.463c-0.002,0.002-0.005,0-0.009,0.002c-0.766,0.425-2.773,5.621-2.798,5.685l-2.161,4.937
			l-3.962,11.07C5.064,46.385,5,48.056,7.433,48.056h0.974c0.031,0,0.058-0.029,0.089-0.038v0.038h4.608V62.36
			c0,0.911,0.737,1.65,1.647,1.65h0.72c0.909,0,1.647-0.739,1.647-1.65V48.055h4.608v-0.038c0.031,0.009,0.058,0.038,0.089,0.038
			h0.974c2.433,0,2.369-1.671,2.172-2.692L21,34.294z M13.105,44.041h-3.07l3.068-10.462c0-0.001,0.002-0.002,0.002-0.002V44.041z
			 M17.118,44.041V33.577c0,0,0.002,0.001,0.002,0.002l3.068,10.462H17.118z M45.113,22.944l6.404,9.687l0.027-0.008
			c0.166,0.246,0.349,0.431,0.552,0.431h3.671c0.282,0,0.512-0.322,0.512-0.716l-0.78-1.435l-6.735-10.227
			c-0.436-0.683-0.854-1.339-1.225-1.932c-0.503-0.802-0.943-1.43-1.354-1.983l-0.042-0.066l0.009,0.017
			c-0.047-0.063-0.101-0.139-0.145-0.199c-0.074-0.107-0.154-0.208-0.232-0.313c-0.241-0.31-0.458-0.565-0.664-0.798v-4.797
			l0.002,0.002l6.404,9.999l0.027-0.008c0.166,0.246,0.349,0.431,0.552,0.431h3.671c0.282,0,0.512-0.322,0.512-0.716l-0.78-1.748
			l-0.793-1.204c-0.027-0.043-10.153-16.18-11.098-16.917c-0.002-0.002-0.005-0.002-0.005-0.002C43.342,0.169,42.977,0,42.573,0
			s-0.769,0.169-1.03,0.439c-0.002,0.001-0.002,0-0.004,0.002C40.594,1.179,30.467,17.316,30.44,17.358l-0.793,1.204l-0.78,1.748
			c0,0.394,0.23,0.716,0.512,0.716h3.671c0.203,0,0.386-0.185,0.552-0.431l0.027,0.008l6.467-9.999l0.002-0.002V15.4
			c-0.206,0.233-0.422,0.488-0.664,0.798c-0.078,0.105-0.221,0.206-0.295,0.313c-0.045,0.06-0.098,0.136-0.145,0.199l0.009-0.017
			l-0.042,0.066c-0.411,0.553-0.852,1.181-1.354,1.983c-0.371,0.593-0.789,1.249-1.224,1.932l-6.735,10.227l-0.78,1.435
			c0,0.394,0.23,0.716,0.512,0.716h3.671c0.203,0,0.386-0.185,0.552-0.431l0.027,0.008l6.467-9.687l0.002-0.002v5.026
			c-0.206,0.231-0.485,0.488-0.726,0.797c-0.078,0.105-0.159,0.206-0.232,0.313c-0.045,0.061-0.098,0.137-0.145,0.199l0.009-0.017
			l-0.042,0.066c-0.411,0.553-0.852,1.181-1.354,1.983c-0.371,0.593-0.789,1.249-1.224,1.932L29.646,43.45l-0.78,1.873
			c0,0.394,0.23,0.716,0.512,0.716h3.671c0.203,0,0.386-0.186,0.552-0.432l0.027,0.009l6.404-10.105c0,0,0.002-0.001,0.002-0.003
			c0.018-0.023,0.044-0.051,0.062-0.075V62.36c0,0.911,0.737,1.65,1.647,1.65h1.721c0.909,0,1.647-0.739,1.647-1.65V35.507
			c0,0.002,0.002,0.003,0.002,0.003l6.404,10.105l0.027-0.009c0.166,0.246,0.349,0.432,0.552,0.432h3.671
			c0.282,0,0.512-0.323,0.512-0.716l-0.78-1.873l-6.735-10.208c-0.436-0.683-0.854-1.339-1.225-1.932
			c-0.503-0.803-0.943-1.431-1.354-1.983l-0.042-0.066l0.009,0.017c-0.047-0.062-0.101-0.139-0.145-0.199
			c-0.074-0.107-0.154-0.208-0.232-0.313c-0.241-0.309-0.458-0.566-0.664-0.797v-5.026L45.113,22.944z"/>
	</g>
</g>
<g id="Transparency">
	<path class="st2" d="M0.529,59.244c0.394,0.502,0.819,0.674,1.197,0.781h48.911L33.491,45.852c0,0-6.155-5.493-9.782-5.493
		s-7.804,3.556-10.002,5.461l-12.2,9.672c0,0-1.319,1.506-1.319,2.627"/>
	<path class="st2" d="M61.968,60.027H28.324c0,0,11.016-8.828,12.003-9.564c0.608-0.453,2.459-1.578,4.28-2.447
		c1.533-0.732,2.398-0.684,3.236-0.705c2.06-0.051,4.369,0.973,6.335,2.343c0,0,4.483,3.236,5.283,3.814
		c0.79,0.57,3.074,2.253,3.055,2.26c0,0,0.983,1.482,0.983,2.244c0,0,0,0.813-0.409,1.265
		C62.791,59.567,62.231,59.952,61.968,60.027z"/>
</g>
</svg>
