<?xml version="1.0" encoding="utf-8"?>
<!-- Generator: Adobe Illustrator 17.0.0, SVG Export Plug-In . SVG Version: 6.00 Build 0)  -->
<!DOCTYPE svg PUBLIC "-//W3C//DTD SVG 1.1//EN" "http://www.w3.org/Graphics/SVG/1.1/DTD/svg11.dtd">
<svg version="1.1" id="Layer_1" xmlns="http://www.w3.org/2000/svg" xmlns:xlink="http://www.w3.org/1999/xlink" x="0px" y="0px"
	 width="22.624px" height="72.974px" viewBox="0 0 22.624 72.974" style="enable-background:new 0 0 22.624 72.974;"
	 xml:space="preserve">
<style type="text/css">
	.st0{fill-rule:evenodd;clip-rule:evenodd;fill:#F15B24;}
	.st1{fill-rule:evenodd;clip-rule:evenodd;fill:#43413E;}
	.st2{opacity:0.2;fill-rule:evenodd;clip-rule:evenodd;fill:#F15B24;}
</style>
<path id="Handle" class="st0" d="M8.478,15.335h5.685v11.501H8.478V15.335z"/>
<g id="Whisk">
	<g>
		<path class="st1" d="M20.463,52.991l-3.455-9.209l-2.014-7c0,0-1.434-5.891-1.726-9.022c-0.292-3.131-0.524-12.9-0.466-13.498
			c0.058-0.598,0.787-4.482,0.787-4.482s1.283-5.71,1.256-6.67C14.818,2.15,13.736,0,11.293,0C8.85,0,7.858,2.211,7.876,3.11
			c0.018,0.899,1.229,6.82,1.229,6.82s0.724,3.459,0.75,4.331c0.026,0.872-0.02,1.987-0.02,1.987l-0.157,5.019
			c0,0-0.25,6.98-0.657,9.297c-0.407,2.317-1.961,8.768-1.961,8.768l-1.617,4.983l-2.207,6.145c0,0-0.75,1.702-1.377,3.663
			c-0.682,2.13-1.253,4.567-1.44,5.46c-0.361,1.716-0.401,3.29-0.401,3.29s-0.307,2.764,1.658,5.442
			c1.965,2.678,5.117,3.072,5.117,3.072s1.562,1.586,4.521,1.586s4.546-1.586,4.546-1.586c1.867-0.327,3.748-1.378,5.05-3.072
			c1.302-1.694,1.715-3.486,1.715-5.807C22.624,60.187,20.463,52.991,20.463,52.991z M8.735,46L5.696,66.969
			c0,0-2.119,0.118-2.14-2.932c0,0,0.394-2.45,0.71-3.896c0.316-1.445,3.786-14.226,3.786-14.226s0.099-0.348,0.425-0.316
			C8.805,45.631,8.759,45.884,8.735,46z M10.158,3.11c0.116-0.57,0.817-0.773,1.237-0.773c0.421,0,1.075,0.275,1.163,0.773
			c0.087,0.498-0.24,5.594-1.267,8.564C10.63,8.43,10.042,3.68,10.158,3.11z M11.306,68.862c-1.02,0.044-1.53-0.673-1.728-1.462
			c0,0,1.935-27.283,1.947-27.344c0.012-0.062,0.101-0.138,0.193-0.137c0.096,0.001,0.174,0.064,0.197,0.146
			c0.012,0.042,0.261,13.548,0.285,14.067c0.024,0.519,0.797,13.052,0.797,13.052C13.031,67.857,12.326,68.818,11.306,68.862z
			 M16.891,67.035c0,0-3.002-21.275-2.963-21.108c0,0-0.052-0.293,0.219-0.343c0.228-0.042,0.347,0.124,0.375,0.247l2.339,8.407
			l1.536,5.878c0,0,0.687,3.001,0.679,4.007C19.069,65.128,18.776,66.674,16.891,67.035z"/>
	</g>
</g>
<path id="_x32_0_x25__transparency" class="st2" d="M8.478,15.335h5.685v11.501H8.478V15.335z"/>
</svg>
