<?xml version="1.0" encoding="utf-8"?>
<!-- Generator: Adobe Illustrator 16.0.0, SVG Export Plug-In . SVG Version: 6.00 Build 0)  -->
<!DOCTYPE svg PUBLIC "-//W3C//DTD SVG 1.1//EN" "http://www.w3.org/Graphics/SVG/1.1/DTD/svg11.dtd">
<svg version="1.1" id="Filled_Icons" xmlns="http://www.w3.org/2000/svg" xmlns:xlink="http://www.w3.org/1999/xlink" x="0px"
	 y="0px" width="24px" height="24px" viewBox="0 0 24 24" enable-background="new 0 0 24 24" xml:space="preserve">
<g>
	<path d="M12,6c-3.309,0-6,2.691-6,6c0,3.31,2.691,6,6,6s6-2.69,6-6C18,8.691,15.309,6,12,6z"/>
</g>
<g>
	<path d="M4,1.051C3.646,1.102,3.312,1.202,3,1.352V8.5h1V1.051z"/>
</g>
<path d="M6,8.422V1H5v7.5h0.947C5.963,8.473,5.983,8.448,6,8.422z"/>
<g>
	<path d="M23,18.848V8.5V5.152V4.5C23,2.57,21.43,1,19.5,1H7v6.119C8.271,5.815,10.04,5,12,5c2.584,0,4.84,1.411,6.053,3.5H22
		v10.348C22,20.586,20.586,22,18.848,22H5.152C3.414,22,2,20.586,2,18.848V8.5V5.152V2.058C1.383,2.69,1,3.55,1,4.5v0.652V8.5
		v10.348C1,21.137,2.863,23,5.152,23h13.695C21.137,23,23,21.137,23,18.848z M21.5,7h-3C18.224,7,18,6.776,18,6.5v-3
		C18,3.224,18.224,3,18.5,3h3C21.776,3,22,3.224,22,3.5v1.652V6.5C22,6.776,21.776,7,21.5,7z"/>
</g>
</svg>
