<svg xmlns="http://www.w3.org/2000/svg" viewBox="0 0 81 25.3"><path fill="#505B79" d="M.1 24.6c.3.1.9-.2 1.6-.5 1.6-.8 3.5-1.9 4.2-2.4 1.7-1 3.3-1.8 4.8-2.7l.6-.3c.2-.1.5-.3.6-.5.2-.2.3-.5.4-.7.1-.3.1-.4.2-.6.3-.8.8-1.5 1.5-1.9.3-.2.7-.3 1.1-.4h.5c.1 0 .2 0 .3-.1.2-.1.3-.2.4-.4.1-.2.1-.4.1-.5.6-2.8 2.5-5.4 5-6.6.7-.4 1.7-.6 2.4-.1s1.1 1.5 1.3 2.3V10.9h.1c.9-.5 3.1-1.8 4.6-2.7.3-.2.6-.3.8-.4.9-.5.9-1.4-.5-.6-.1-.2-.3-.1-.7.1-1 .6-2.8 1.6-3.4 1.9V9c-.1-.3-.1-.5-.1-.7-.1-.3-.2-.5-.2-.6-.2-.6-.6-1.2-1.1-1.6-.5-.4-1.2-.6-1.8-.6-1.3 0-2.2.7-3.1 1.3-1.7 1.3-3.1 3.1-3.9 5.3-.1.4-.3.8-.4 1.2v.1h-.3c-.1 0-.3.1-.4.1-.6.2-1.2.4-1.6.8-.5.4-.9.9-1.1 1.4-.1.3-.2.6-.3.8l-.1.4c0 .1 0 .2-.1.2-.1.2-.2.3-.3.4l-.7.4L8.9 19l-2.7 1.5c-.2.1-2.9 1.7-4.9 3-.9.6-1.5 1.1-1.2 1.1zM72 22.3c0-.3-.5-.9-1.3-1-.6-.1-1.3.1-1.5.3-1.1.5-1.8 1.2-2.6 2l-.4.4-.3.3c-.3-.3-.7-.7-1.1-.9-.5-.3-1.2-.7-1.8-.8-.3-.1-1.2-.1-1.7.1-.4.1-.7.3-.9.4-.5.3-.7.8-.6.9.1.1.2.1.3.1.2-.1.4-.2.7-.3.1 0 .3-.2.6-.2.2-.1.6-.1.9-.1.3.1.6.2.7.2.8.4 1.5.8 2.1 1.5.3.4.9.5 1.3.2.5-.5.9-1 1.4-1.5.4-.4.9-.8 1.4-1.1 0 0 .7-.4 1.2-.4 1-.4 1.6.2 1.6-.1zM66.1 3.2c.3-.1.7-.6 1.3-.8.5-.2 1.2-.2 1.5-.1 1.2.3 2.2.9 3.2 1.8l.3.3.1.1c.1.1.2.2.3.2.2.1.5.1.8 0 .2-.1.5-.3.6-.5.5-.7 1-1.3 1.5-1.8.4-.4 1.1-.9 1.7-1.2.3-.1 1.1-.4 1.7-.3.4 0 .6.1.8.1.5.1.9.1 1 0 .1-.1-.1-.5-.9-.8-.2 0-.4-.1-.8-.1s-1 0-1.5.1-.9.3-1 .4c-.8.3-1.3.8-1.9 1.4-.5.5-.9 1.1-1.4 1.7l-.1.1h-.1l-.1-.1-.2-.2c-.3-.3-.7-.5-1.1-.8-.7-.5-1.5-.9-2.4-1.1 0 0-.4-.1-.8-.1-.5 0-1.1.1-1.5.4-.3.2-.5.3-.6.6-.2.2-.3.4-.3.5-.3.1-.3.2-.1.2z"/></svg>