<svg xmlns="http://www.w3.org/2000/svg" viewBox="0 0 181.8 107.8"><path fill="#505B79" d="M3.6 56.4l3-1.7"/><path fill="#FFF" d="M81.1 104.9L.3 58.3 100.6.4 181.4 47"/><path opacity=".1" fill="#505B79" d="M97.1 36.7l3.4-1.8 5.1-12.8L92 18.7l-13.7 7.2"/><g opacity=".15"><path fill="#505B79" d="M129.7 66.3L67.2 30.2c-.2-.1-.2-.3 0-.4l3.6-2.1c.2-.1.5-.1.7 0L134 63.8c.2.1.2.3 0 .4l-3.6 2.1c-.3.1-.6.1-.7 0z"/><path fill="#505B79" d="M122.7 57.1c-13.4-7.8-24.6-14.2-37.9-22-3.3-1.9-6.7-3.9-10-5.8l-2.5-1.5-.7-.4c-.3-.1-.7-.1-.9.1l-1.3.7-1.4.8-.6.4-.3.2c-.1 0-.3.2-.3.4s.2.4.3.4l.3.2.6.4 1.3.7c6.8 3.9 13.5 7.8 20 11.6 6.4 3.7 15.2 8.7 21.6 12.4 3.1 1.8 11.9 6.8 18.4 10.6.1.1.2.1.3.1l.2-.4c-.1 0-.1-.1-.3-.1-7.8-4.5-21-12.1-22.6-13.1-8-4.6-15.1-8.7-22.2-12.8-3.5-2-7.1-4.1-10.7-6.2-1.8-1.1-3.7-2.1-5.5-3.2l-.7-.4-.4-.2c-.1 0-.1 0-.1-.1.4-.3.9-.5 1.3-.8.5-.3 1-.5 1.4-.8l.7-.4c.2-.1.4-.1.6 0 15.8 9.1 32 18.5 47.8 27.7.3.2 2.9 1.6 6.4 3.7 1.8 1 3.8 2.2 6 3.4.5.3 1.1.6 1.6.9l.4.2c.1.1.1 0 .1.1l-.7.4-1.6.9-.8.5-.4.2c-.1.1-.2.1-.3.1h-.2l-.2.4c.1.1.2.1.3.1h.4c.2 0 .2-.1.3-.2l.6-.3c.4-.2.8-.5 1.2-.7l1.2-.7c.2-.1.4-.2.6-.4.1-.1.2-.3.1-.5 0-.1-.1-.2-.2-.2l-.1-.1c-1.6-.9-3.1-1.8-4.5-2.6-2.7-1.5-5.1-2.9-6.6-3.7zM152.8 53l-35.9-20.7c-.2-.1-.2-.3 0-.4l3.6-2.1c.2-.1.5-.1.7 0l35.9 20.7c.2.1.2.3 0 .4l-3.6 2.1c-.2.1-.5.1-.7 0z"/><path fill="#505B79" d="M152.2 47.5c-8.1-4.7-14.8-8.6-22.9-13.3-2-1.2-4-2.3-6-3.5l-1.5-.9-.4-.2c-.2-.1-.4-.1-.6-.1-.1 0-.2 0-.3.1l-.2.1-.4.2-3.1 1.8c-.2.1-.3.4-.2.6 0 .1.1.1.1.1l.1.1.2.1.8.4 1.5.9 3 1.8c2 1.2 4 2.3 6 3.5 3.9 2.2 9.2 5.3 13 7.5 1.9 1.1 7.2 4.1 11.1 6.4.1.1.2.1.3.1l.2-.4c-.1 0-.1-.1-.3-.1C148 50 140 45.4 139 44.8c-4.8-2.8-9.1-5.2-13.3-7.7-2.1-1.2-4.2-2.4-6.4-3.7-.5-.3-1.1-.6-1.7-1l-.4-.2-.1-.1.8-.4c.6-.3 1.1-.6 1.7-1 .3-.2.6-.3.9-.5l.2-.1c.1 0 .1 0 .2-.1.1 0 .2 0 .3.1 9.5 5.5 19.3 11.1 28.8 16.7.2.1 1.7 1 3.9 2.2.5.3 1.1.6 1.7 1 .3.2.6.3.9.5l.4.3-.1.1c-.6.4-1.3.7-1.9 1.1l-1 .6-.5.3c-.1.1-.1.1-.2.1h-.2-.2l-.2.4c.1.1.2.1.3.1.2 0 .3 0 .5-.1l.4-.2.7-.4 1.4-.8.7-.4.4-.2.2-.1c.1 0 .2-.1.2-.2.1-.2-.1-.4-.2-.5l-.3-.2c-.2-.1-.4-.3-.7-.4-1.7-1.2-3.2-2-4-2.5z"/><g><path fill="#505B79" d="M141.2 59.6L105.4 39c-.2-.1-.2-.3 0-.4l3.6-2.1c.2-.1.5-.1.7 0l35.8 20.7c.2.1.2.3 0 .4l-3.6 2.1c-.2.1-.5.1-.7-.1z"/><path fill="#505B79" d="M140.6 54.1c-8.1-4.7-14.8-8.6-22.8-13.2-2-1.2-4-2.3-6-3.5l-1.5-.9-.4-.2c-.2-.1-.4-.1-.6-.1-.1 0-.2 0-.3.1l-.2.1-.4.2-3.1 1.8c-.2.1-.3.4-.2.6 0 .1.1.1.1.1s.1 0 .1.1l.2.1.8.4 1.5.9 3 1.8c2 1.2 4 2.3 6 3.5 3.9 2.2 9.2 5.2 13 7.5 1.9 1.1 7.2 4.1 11.1 6.4.1.1.2.1.3.1l.2-.4c-.1 0-.1-.1-.3-.1-4.7-2.7-12.6-7.3-13.6-7.9-4.8-2.8-9.1-5.2-13.3-7.7-2.1-1.2-4.2-2.4-6.4-3.7-.5-.3-1.1-.6-1.7-1l-.4-.2-.1-.1.8-.4c.6-.3 1.1-.6 1.7-1 .3-.2.6-.3.9-.5l.2-.1c.1 0 .1 0 .2-.1.1 0 .2 0 .3.1 9.5 5.5 19.2 11.1 28.7 16.6.2.1 1.7 1 3.9 2.2.5.3 1.1.6 1.7 1 .3.2.6.3.9.5l.4.3-.1.1c-.6.4-1.3.7-1.9 1.1l-1 .6-.5.3c-.1.1-.1.1-.2.1h-.2-.2l-.2.4c.1.1.2.1.3.1.2 0 .3 0 .5-.1l.4-.2.7-.4 1.4-.8.7-.4.4-.2c.1-.1.3-.1.4-.3.1-.2-.1-.4-.2-.5l-.3-.2c-.2-.1-.4-.3-.7-.4-1.7-1.2-3.1-2-4-2.5z"/></g><g><path fill="#505B79" d="M118.1 72.9l-62.4-36c-.2-.1-.2-.3 0-.4l3.6-2.1c.2-.1.5-.1.7 0l62.5 36.1c.2.1.2.3 0 .4l-3.6 2.1c-.3 0-.6 0-.8-.1z"/><path fill="#505B79" d="M111.2 63.7c-13.4-7.8-24.6-14.2-37.9-22-3.3-1.9-6.7-3.9-10-5.8l-2.5-1.5-.7-.4c-.3-.1-.7-.1-.9.1l-1.3.7-1.3.7-.7.5-.3.2c-.1 0-.3.2-.3.4s.2.4.3.4l.3.2.6.4 1.3.7c6.8 3.9 13.5 7.8 20 11.6 6.4 3.7 15.2 8.7 21.6 12.4 3.1 1.8 11.9 6.8 18.4 10.6.1.1.2.1.3.1l.2-.4c-.1 0-.1-.1-.3-.1-7.8-4.5-21-12.1-22.6-13.1-8-4.6-15.1-8.7-22.2-12.8-3.5-2-7.1-4.1-10.7-6.2-1.8-1.1-3.7-2.1-5.5-3.2l-.7-.4-.4-.2c-.1 0-.1 0-.1-.1.4-.3.9-.5 1.3-.8.5-.3 1-.5 1.4-.8l.7-.4c.2-.1.4-.1.6 0 15.8 9.1 32 18.5 47.8 27.7.3.2 2.9 1.6 6.4 3.7 1.8 1 3.8 2.2 6 3.4.5.3 1.1.6 1.6.9l.4.2c.1.1.1 0 .1.1l-.7.4-1.6.9-.8.5-.4.2c-.1.1-.2.1-.3.1h-.2l-.2.4c.1.1.2.1.3.1h.4c.2 0 .2-.1.3-.2l.6-.3c.4-.2.8-.5 1.2-.7l1.2-.7c.2-.1.4-.2.6-.4.1-.1.2-.3.1-.5 0-.1-.1-.2-.2-.2l-.1-.1c-1.6-.9-3.1-1.8-4.5-2.6-2.7-1.4-5.2-2.9-6.6-3.7z"/></g></g><path opacity=".1" fill="#898AA0" d="M49 58.6c-4.1-2.4-10.7-2.4-14.8 0-4.1 2.4-4.1 6.2 0 8.5 3 1.7 7.4 2.2 11.2 1.4 1.3-.3 2.6-.7 3.6-1.4 4.2-2.3 4.1-6.1 0-8.5zM75.8 73.1c-4.2-2.4-11.1-2.5-15.3 0-4.2 2.4-4.2 6.4 0 8.8 3.1 1.8 7.7 2.3 11.5 1.4 1.4-.3 2.7-.8 3.8-1.4 4.2-2.4 4.2-6.4 0-8.8z"/><path fill="#505B79" d="M47.1 65.6v-.2c0-.5.1-.9.1-1.1 0-.4.1-.8.1-1.2v-1.2c0-.4-.1-.8-.1-1.2 0-.3.1-.6.1-.9 0-.3-.1-.6-.1-.9V58v-.9c0-.3 0-.7-.1-1v-1V54c0-.2 0-.5-.1-.7v-.5h-.5v5.7c0 .3-.1.7-.1 1v2.2c0 .4.1.7.1 1.1 0 .4-.1.7-.1 1.1 0 .2.1.5.1.9 0 .2 0 .3.1.5 0 .1 0 .3.1.4h.5c-.1 0-.1-.1-.1-.1z"/><path fill="#FFF" d="M57 46.8c-5.6-3.3-14.8-3.3-20.4 0s-5.6 8.5.1 11.8c4.2 2.4 10.2 3 15.4 1.9l-5.2-8.4L57 46.8z"/><path fill="#BFE5F9" d="M57 46.8l-10.2 5.3 5.2 8.4c1.8-.4 3.5-1 5-1.9 5.7-3.2 5.7-8.5 0-11.8z"/><path opacity=".1" fill="#898AA0" d="M36.7 58.6c2.8 1.6 6.5 2.4 10.2 2.5v-8.9l-9.8-5.6c-.1.1-.3.1-.4.2-5.7 3.2-5.6 8.5 0 11.8z"/><path fill="#505B79" d="M73.5 81.2V81c0-.5.1-.9.1-1.1 0-.4.1-.8.1-1.2v-1.2c0-.4-.1-.8 0-1.2 0-.3.1-.6.1-.9 0-.3-.1-.6-.1-.9v-.9-.9c0-.3 0-.7-.1-1v-1-1.1c0-.2 0-.5-.1-.7v-.5H73v5.7c0 .3-.1.7-.1 1v2.2c0 .4.1.7.1 1.1 0 .4-.1.7-.1 1.1 0 .2 0 .5.1.9 0 .2 0 .3.1.5 0 .1 0 .3.1.4h.5c-.2 0-.2 0-.2-.1z"/><path fill="#FFF" d="M73.3 67.7l10.3-5.4c-5.7-3.3-15-3.3-20.6 0-5.7 3.3-5.6 8.6.1 11.9 5.7 3.3 15 3.3 20.6 0 1-.6 1.8-1.2 2.5-1.9l-12.9-4.6z"/><path fill="#F9BDB7" d="M86.1 72.3c3-3.2 2.1-7.3-2.6-10l-10.3 5.4 12.9 4.6z"/><path opacity=".1" fill="#898AA0" d="M63.3 62.2c-.1.1-.3.1-.4.2-5.6 3.2-5.6 8.5.1 11.8 2.8 1.6 6.5 2.4 10.2 2.5v-9l-9.9-5.5z"/><path fill="#505B79" d="M73.3 65.8c-.3 0-.3.3-.3.3 0 .2 0 .3-.1.5s-.1.3-.1.5c0 .1 0 .2.1.3 0 .1.1.2.1.3 0 .1.5.1.5 0v-.3c0-.2-.1-.4 0-.6.1-.2 0-.4 0-.6.1 0 .1-.4-.2-.4z"/><path fill="#BFE5F9" d="M105.6 12.7l-22.1 2.9 17 9.8"/><path fill="#BECBE8" d="M105.6 12.7v9.4l-5.1 12.8v-9.5"/><path fill="#6CCBF3" d="M105.6 12.7v9.4l-5.1 12.8v-9.5M83.5 15.6v9.5l17 9.8v-9.5"/><path opacity=".15" fill="#505B79" d="M83.5 15.6v9.5l17 9.8v-9.5"/><path fill="#505B79" d="M91.1 23.6c-.7-.4-1.3-.1-1.3.8v4.3l2.6 1.5v-4.3c.1-.8-.5-1.8-1.3-2.3z"/><path fill="#FFF" d="M92.5 27.2l-2.7 1.5 2.7 1.5"/><path opacity=".1" fill="#505B79" d="M92.5 27.2l-2.7 1.5 2.7 1.5"/><g><path fill="#FFF" d="M.3 58.3v2.3l80.8 46.6v-2.3"/><path opacity=".15" fill="#505B79" d="M.3 58.3v2.3l80.8 46.6v-2.3"/><path fill="#FFF" d="M81.1 104.9v2.3l100.3-57.9V47"/><path opacity=".05" fill="#505B79" d="M81.1 104.9v2.3l100.3-57.9V47"/></g><g><path fill="#505B79" d="M108.4 29.8v-.2c0-.2.1-.5.1-.6 0-.2.1-.4.1-.6v-.6c0-.2-.1-.4 0-.6 0-.2.1-.3.1-.5s-.1-.3-.1-.5v-.5-.5c0-.1 0-.3-.1-.5v-.5-.6c0-.1 0-.3-.1-.3v-.5h-.5v3.1c0 .2-.1.3-.1.5v1.2c0 .2.1.4.1.6 0 .2-.1.4-.1.6 0 .1 0 .2.1.5 0 .1 0 .2.1.2 0 .1 0 .3.1.4h.5c-.2.1-.2 0-.2-.1z"/><path fill="#505B79" d="M109 23.8c0-.3-.1-.3-.2-.4l-.2-.2-.1-.1-.2-.2c-.1-.1-.2-.2-.2-.3-.2.2-.3.4-.5.5-.1.1-.1.2-.2.2l-.2.2s-.1.5.1.5c.1 0 .4-.2.4-.2l.2-.2s0-.1.1 0v.1l.3.3s.1.1.3.1c.3-.1.5-.2.4-.3zM109.5 25.7c-.1-.3-.3-.3-.4-.4l-.3-.3-.1-.1c-.1-.1-.1-.2-.2-.2l-.3-.5c-.2.3-.6.7-.6.8l-.3.3c-.1.1-.3.2-.4.2-.1 0-.2.5.1.5.2 0 .6-.3.7-.3.2-.1.3-.2.4-.4l.1-.1v.1l.1.1.4.4.4.2c.2 0 .5-.1.4-.3z"/><path fill="#505B79" d="M109.9 27.7c-.1-.3-.5-.4-.6-.5-.3-.2-.5-.4-.7-.8-.1-.2-.3-.5-.4-.7-.1.2-.3.5-.5.7l-.2.2-.1.1-.4.4c-.1.1-.4.3-.5.3-.1 0-.3.5.1.5.2 0 .8-.3.9-.4.4-.2.7-.8.7-.7-.2 0 .4.5.8.8 0 0 .3.2.5.2.3.1.5.1.4-.1z"/></g><g opacity=".1"><path fill="#505B79" d="M107.9 29.7c-.1 0-.1.1-.2.1-.2.1-.3.1-.4.2-.1.1-.3.1-.4.2l-.4.2-.3.3c-.1.1-.3 0-.4.1l-.3.3c-.1.1-.2.1-.3.2-.1.1-.2.1-.3.2l-.3.3c-.1.1-.2.2-.3.2-.1 0-.2.1-.3.3l-.2.2c-.2.1-.3.2-.4.3l.3.4c.1 0 .2-.1.4-.3.1 0 .2-.1.3-.2.2-.1.4-.2.4-.3.1-.1.2-.1.3-.2.1-.1.2-.1.3-.2.1-.1.2-.2.3-.2.1-.1.2-.1.4-.2.1-.1.2-.2.4-.2.1-.1.3-.1.4-.2l.3-.3c.1-.1.3-.1.4-.1.1 0 .1-.1.3-.3l.1-.1.3-.3-.3-.4c0-.1-.1 0-.1 0z"/><path fill="#505B79" d="M103.5 32c-.2.2-.1.3-.1.4v.2c0 .1 0 .3-.1.4v.2c.1 0 .2 0 .4.1h.7s.4-.3.2-.4c-.1-.1-.4-.1-.4-.2-.1 0-.2 0-.3-.1h-.1v-.2s0-.1-.1-.3c.1-.2-.1-.2-.2-.1zM104.5 30.9c-.2.3 0 .4 0 .5 0 .2.1.3-.1.8l-.1.3h1.4c.1 0 .3 0 .3.1 0 0 .5-.2.3-.4-.1-.1-.5-.2-.6-.2-.3-.1-.7 0-.6-.1v-.5s0-.2-.1-.4c-.2-.2-.4-.3-.5-.1z"/><path fill="#505B79" d="M105.6 29.7c-.1.3 0 .5 0 .6V30.9c0 .1-.1.3-.1.4l-.2.4H107c.1 0 .4.1.5.2.1.1.5-.2.3-.4-.1-.1-.7-.3-.7-.3-.2-.1-.4-.1-.6-.1h-.3V31v-.6s0-.3-.2-.5-.4-.3-.4-.2z"/></g><g><path fill="#505B79" d="M65.9 54.1v-.2c0-.2.1-.4.1-.5 0-.2.1-.4.1-.5v-.5c0-.2-.1-.3 0-.5 0-.1.1-.3.1-.4 0-.1-.1-.3-.1-.4v-.4-.4c0-.1 0-.3-.1-.5v-.4-.5c0-.1 0-.2-.1-.3v-.5h-.5v3c0 .1-.1.3-.1.5v1c0 .2.1.3.1.5s-.1.3-.1.5c0 .1 0 .2.1.4v.2c0 .1 0 .3.1.4h.5c-.1-.3-.1-.4-.1-.5z"/><path fill="#505B79" d="M66.5 48.6c0-.3-.1-.3-.2-.4-.1-.1-.2-.1-.4-.5-.1-.1-.1-.2-.2-.3-.2.1-.3.4-.5.5l-.2.2s-.1.2-.2.2c0 0-.1.5.1.5.1 0 .4-.2.4-.2.2-.1.2-.3.3-.2v.1c.1 0 .2.1.3.2 0 0 .1.1.3.1.1 0 .3 0 .3-.2zM66.9 50.4c-.1-.3-.3-.3-.4-.4-.1-.1-.2-.2-.3-.2-.1-.1-.1-.1-.3-.4l-.3-.5-.3.4-.3.3c-.1.1-.2.2-.2.3 0 .1-.2.2-.3.2-.1 0-.2.5.1.5.2 0 .6-.3.6-.3.2-.1.3-.2.4-.3.1-.1.1-.1.1 0v.1l.1.1c.1.1.3.2.4.4l.4.2c.1-.1.3-.2.3-.4z"/><path fill="#505B79" d="M67.3 52.2c-.1-.3-.4-.4-.6-.4-.1-.1-.2-.2-.4-.3l-.2-.2c0-.1-.1-.1-.2-.3l-.4-.7-.2.7-.3.3c-.1.1-.2.3-.4.4-.1.1-.4.3-.5.3-.1 0-.2.5.1.5.2 0 .8-.3.8-.4.2-.1.3-.3.5-.4l.1-.1c0 .1-.1 0 .1.2s.4.3.6.5c0 0 .2.2.5.2s.6-.1.5-.3z"/></g><g opacity=".1"><path fill="#505B79" d="M65.4 54.3c-.1 0-.1.1-.2.1-.1.1-.3.1-.3.1-.1.1-.2.1-.3.1l-.3.2c-.1.1-.2.2-.3.2-.1 0-.2 0-.3.1-.1 0-.1.2-.2.2s-.1.1-.2.2-.2.1-.2.1l-.2.2c-.1.1-.2.1-.2.2 0 0-.2.1-.3.2l-.1.1-.3.2c-.1.1-.2.1-.2.2l.3.4c.1-.1.4-.3.6-.4.2-.1.3-.2.3-.2.1 0 .2-.1.3-.2.1-.1.2-.1.3-.2.1-.1.2-.1.2-.2.1 0 .2-.1.3-.1.1 0 .2-.1.3-.2.1-.1.2-.1.3-.2.1-.1.1-.2.2-.2.1-.1.2 0 .3-.1l.2-.2.1-.1.1-.1.2-.2-.3-.4c0 .2-.1.2-.1.2z"/><path fill="#505B79" d="M61.8 56.2c-.2.2-.2.2-.2.3v.2c0 .1 0 .2-.1.4v.1c.2.1.5.1.6.1h.4s.4-.3.3-.4c-.1-.1-.3-.1-.3-.1-.1 0-.2 0-.2-.1v-.2s0-.1-.1-.2c-.2-.2-.3-.3-.4-.1z"/><path fill="#505B79" d="M62.6 55.2c-.2.3-.1.4-.1.4 0 .2.1.2-.1.7l-.1.2c.3 0 .6.1.8.1h.3c.1 0 .2 0 .3.1 0 0 .5-.3.3-.4-.1-.1-.4-.2-.5-.2-.2-.1-.6 0-.5-.1v-.4s0-.2-.1-.3c0-.2-.2-.2-.3-.1z"/><path fill="#505B79" d="M63.5 54.3c-.2.3 0 .5 0 .6v.5c0 .1-.1.2-.1.4l-.1.3h1.5c.1 0 .3.1.4.1.1.1.5-.2.3-.4-.1-.1-.6-.3-.6-.3-.2-.1-.3-.1-.5-.1h-.2v-.1-.5s0-.2-.2-.4c-.3-.2-.5-.2-.5-.1z"/></g><g opacity=".1"><path fill="#505B79" d="M97.9 76.1c-.1 0-.1.1-.2.1-.2.1-.4.2-.5.3-.2.1-.4.2-.5.3l-.5.3c-.2.1-.3.3-.5.4-.1.1-.3.1-.5.2s-.2.3-.4.3c-.1.1-.3.2-.4.3-.1.1-.3.1-.4.2-.1.1-.3.2-.4.3-.1.1-.3.2-.4.3-.1.1-.3.2-.5.3l-.3.3c-.2.1-.3.2-.4.3l.3.4c.1-.1.2-.1.4-.3.1-.1.3-.2.4-.3.3-.2.5-.3.6-.4.2-.1.3-.2.4-.3.2-.1.3-.2.5-.3.1-.1.3-.2.4-.3.1-.1.3-.2.5-.2.2-.1.3-.2.5-.3.2-.1.3-.2.5-.3.2-.1.3-.3.4-.4.2-.1.4-.1.5-.2.1-.1.2-.2.4-.3l.2-.2.3-.3-.2-.3c-.1 0-.1.1-.2.1z"/><path fill="#505B79" d="M92.1 79.2c-.2.2-.1.3-.1.4 0 .2 0 .3-.1.7l-.1.2c.3 0 .7.1.8.1h.6s.5-.3.2-.4c-.1-.1-.4-.2-.5-.2-.2-.1-.6 0-.5-.1v-.4s0-.2-.1-.3c.1-.1-.1-.2-.2 0z"/><path fill="#505B79" d="M92.8 78.5c-.2.2-.1.4-.1.5v1c.3.1.5.1.8.2h.3c.1 0 .3 0 .3.1 0 0 .5-.3.3-.4-.1-.1-.5-.2-.5-.2-.1-.1-.3-.1-.4-.1h-.2v-.1c0-.1 0-.3-.1-.4 0 0 0-.2-.1-.3 0-.4-.2-.5-.3-.3z"/><path fill="#505B79" d="M93.8 77.4c-.1.3 0 .5 0 .6V78.6c0 .1-.1.3-.1.4l-.1.4H95.3c.1 0 .4.1.5.1.1.1.5-.2.3-.4-.1-.1-.6-.3-.7-.3-.2-.1-.4-.1-.6-.1h-.3v-.1-.6s0-.3-.2-.5c-.2-.1-.5-.2-.5-.1z"/><path fill="#505B79" d="M94.8 76.1c-.1.3.1.6.1.8v.5c0 .2 0 .3-.2.7l-.2.5H96c.2 0 .4 0 .6.1.1 0 .5.1.6.2.1.1.6-.2.3-.4-.2-.2-.8-.4-.9-.4-.3-.1-.5-.1-.7-.1h-.5c0 .2.1-.6.1-1 0 0 0-.3-.2-.6s-.5-.4-.5-.3z"/></g><g opacity=".1"><path fill="#505B79" d="M93.4 82.6c-.1 0-.1.1-.2.1-.1.1-.3.1-.3.1-.1.1-.2.1-.3.2l-.3.2-.3.3c-.1 0-.2 0-.3.1-.1 0-.1.2-.2.2-.1.1-.2.1-.2.2-.1.1-.2.1-.3.1l-.2.2c-.1.1-.2.1-.3.2 0 0-.2.1-.3.2l-.1.1-.3.2c-.1.1-.2.1-.2.2l.3.4c.1 0 .2-.1.4-.3.1 0 .2-.1.2-.2.2-.1.3-.2.4-.2.1-.1.2-.1.3-.2.1-.1.2-.1.3-.2.1-.1.2-.1.3-.2.1-.1.2-.1.3-.1.1 0 .2-.1.3-.2.1-.1.2-.1.3-.2l.3-.3c.1-.1.3 0 .4-.1l.2-.2.1-.1.1-.1.2-.2-.3-.4c-.2.2-.2.2-.3.2z"/><path fill="#505B79" d="M89.6 84.6c-.2.2-.2.2-.2.3v.2c0 .1 0 .2-.1.4v.2c.2 0 .5.1.6.1h.4s.4-.3.2-.4c-.1-.1-.3-.1-.3-.1H90v-.2s0-.1-.1-.2c0-.4-.2-.4-.3-.3z"/><path fill="#505B79" d="M90.5 83.6c-.2.3-.1.4-.1.4 0 .2.1.3-.1.8l-.1.2c.3 0 .8 0 .9.1h.3c.1 0 .3 0 .3.1 0 0 .5-.2.3-.4-.1-.1-.5-.2-.5-.2-.3-.1-.6 0-.5-.1v-.4s0-.2-.1-.3c-.1-.3-.3-.3-.4-.2z"/><path fill="#505B79" d="M91.4 82.6c-.1.3 0 .5 0 .6v.5c0 .1-.1.2-.1.4l-.1.3h1.5c.1 0 .3.1.4.1.1.1.5-.2.3-.4-.1-.1-.6-.3-.6-.3-.2-.1-.4-.1-.5-.1h-.2v-.1-.5s0-.2-.2-.4c-.2-.1-.4-.2-.5-.1z"/></g><g><path fill="#505B79" d="M93.9 82.5v-.2c0-.2.1-.4.1-.5 0-.2.1-.3.1-.5v-.5c0-.2-.1-.3 0-.5 0-.1.1-.3.1-.4 0-.1-.1-.3-.1-.4v-.4-.4c0-.1 0-.3-.1-.4v-.4-.5c0-.1 0-.2-.1-.3v-.5h-.5V79.2c0 .1-.1.3-.1.4v1c0 .2.1.3.1.5s-.1.3-.1.5c0 .1 0 .2.1.4v.2s0 .3.1.4h.5c-.1 0-.1-.1-.1-.1z"/><path fill="#505B79" d="M94.4 77.4c0-.3-.1-.3-.2-.4-.1-.1-.2-.1-.4-.4-.1-.1-.1-.2-.2-.3l-.5.5c-.1.1-.1.1-.1.2l-.1.2s-.1.5.1.5c.1 0 .4-.2.4-.2.2-.1.2-.2.2-.2v.1s.2.1.2.2c0 0 .1.1.2.1.3-.1.5-.1.4-.3z"/><path fill="#505B79" d="M94.8 79.1c-.1-.3-.3-.3-.3-.4-.1-.1-.2-.1-.2-.2-.1-.1-.1-.1-.3-.4l-.3-.5-.3.4c-.1.1-.2.3-.3.3-.1.1-.2.2-.2.3 0 .1-.2.2-.3.2 0 0-.2.5.1.5.2 0 .5-.2.6-.3l.3-.3s0-.1.1 0v.1c.1.1.3.2.4.3 0 0 .2.1.4.1.2.1.3 0 .3-.1z"/><path fill="#505B79" d="M95.2 80.7c-.1-.3-.4-.3-.5-.4l-.3-.3s-.1-.1-.1-.2l-.1-.1-.2-.1-.4-.6c-.2.4-.6.9-.7.9-.1.1-.2.3-.3.3-.1.1-.3.2-.4.2-.1 0-.2.5.1.5.2 0 .7-.3.7-.3.2-.1.3-.3.4-.4l.1-.1v.1l.1.1c.2.2.3.3.5.4 0 0 .2.1.5.2.4 0 .6 0 .6-.2z"/></g><g><path fill="#505B79" d="M98.3 76.3v-.2c0-.3.1-.7.1-.8 0-.3.1-.6.1-.8v-.8c0-.3-.1-.5 0-.8 0-.2.1-.4.1-.6 0-.2-.1-.4-.1-.7v-.7-.6c0-.2 0-.5-.1-.7v-.7-.8c0-.2 0-.4-.1-.5v-.5h-.5v4.2c0 .2-.1.5-.1.7v1.6c0 .3.1.5.1.8 0 .3-.1.5-.1.8 0 .1 0 .3.1.7 0 .1 0 .2.1.3 0 .1 0 .3.1.4h.5c-.2-.2-.2-.2-.2-.3z"/><path fill="#505B79" d="M99.3 68.1c-.1-.3-.2-.4-.3-.4-.1-.1-.2-.2-.3-.2l-.1-.1-.2-.2-.3-.4-.6.6-.3.3c0 .1-.2.2-.3.2 0 0-.2.5.1.5.2 0 .5-.3.6-.3l.3-.3.1-.1v.1l.1.1.4.3s.2.1.3.2c.3-.1.6-.2.5-.3z"/><path fill="#505B79" d="M99.5 69.4c-.1-.3-.3-.4-.4-.4-.2-.2-.4-.3-.6-.5l-.4-.5c-.2.2-.4.4-.6.5l-.3.3c-.1.1-.3.2-.4.2-.1 0-.2.5.1.5.2 0 .6-.3.6-.3.2-.1.3-.2.4-.3.1-.1.2-.2.2-.1v.1l.2.2.5.3s.2.1.4.1c.1.1.4 0 .3-.1z"/><path fill="#505B79" d="M99.9 71.2c-.1-.3-.5-.4-.6-.5-.3-.2-.5-.4-.7-.8l-.5-.7c-.2.2-.3.4-.5.6l-.3.3-.4.4c-.1.1-.4.3-.5.3-.1 0-.3.5.1.5.2 0 .8-.4.8-.4.2-.1.4-.3.5-.5l.2-.2v.1s.1.2.2.2c.2.2.4.3.6.5 0 0 .2.2.5.2.4.3.7.2.6 0z"/><path fill="#505B79" d="M100.5 73.4c-.1-.2-.3-.2-.4-.3l-.4-.2c-.4-.3-.7-.6-1-1-.1-.2-.3-.6-.5-.9-.2.3-.4.7-.6.9-.1.1-.2.3-.3.4l-.6.6c-.1.1-.6.4-.8.4-.2 0-.4.5.1.5.3 0 1.1-.4 1.1-.5.3-.2.5-.4.7-.6l.3-.3s.1-.1.1 0v.1c.1.1.2.3.3.4.2.2.5.5.8.7 0 0 .3.2.7.3.3-.3.6-.4.5-.5z"/></g><g fill="#505B79"><g opacity=".1"><path d="M80.8 87.2c.6-.4 1.8-.6 2.2-.7.1 0 .1.1.1.1-.2.3-.7 1.3-1.3 1.7-.4.2-.9.2-1.2-.1-.2-.3-.1-.7.2-1zM79.9 88.2c.2-.1.4-.1.6.1s.1.4-.1.5-.4.1-.6-.1c-.1-.1 0-.4.1-.5z"/></g><path d="M84.1 83.8c0 .9-.6 2.3-.9 2.8 0 .1-.1.1-.2 0-.2-.5-.9-1.8-.9-2.8 0-.6.4-1.1 1-1.1s1 .5 1 1.1z"/><circle cx="83.1" cy="82" r=".5"/></g><g fill="#505B79"><g opacity=".1"><path d="M23 64.3c.6-.4 1.8-.6 2.2-.7.1 0 .1.1.1.1-.2.3-.7 1.3-1.3 1.7-.4.2-.9.2-1.2-.1-.2-.3-.1-.8.2-1zM22.1 65.3c.2-.1.4-.1.6.1.1.2.1.4-.1.5s-.4.1-.6-.1 0-.4.1-.5z"/></g><path d="M26.3 60.8c0 .9-.6 2.3-.9 2.8 0 .1-.1.1-.2 0-.2-.5-.9-1.8-.9-2.8 0-.6.4-1.1 1-1.1s1 .5 1 1.1z"/><circle cx="25.3" cy="59" r=".5"/></g><g fill="#505B79"><g opacity=".1"><path d="M19.3 58.5c.6-.4 1.8-.6 2.2-.7.1 0 .1.1.1.1-.2.3-.7 1.3-1.3 1.7-.4.2-.9.2-1.2-.1-.2-.3-.2-.8.2-1zM18.4 59.5c.2-.1.4-.1.6.1.1.2.1.4-.1.5-.2.1-.4.1-.6-.1-.1-.1-.1-.4.1-.5z"/></g><path d="M22.5 55.1c0 .9-.6 2.3-.9 2.8 0 .1-.1.1-.2 0-.2-.5-.9-1.8-.9-2.8 0-.6.4-1.1 1-1.1s1 .5 1 1.1z"/><circle cx="21.6" cy="53.3" r=".5"/></g><g><g fill="#505B79"><g opacity=".1"><path d="M100.3 41.3c.6-.4 1.8-.6 2.2-.7.1 0 .1.1.1.1-.2.3-.7 1.3-1.3 1.7-.4.2-.9.2-1.2-.1-.2-.3-.2-.7.2-1zM99.4 42.3c.2-.1.4-.1.6.1s.1.4-.1.5c-.2.1-.4.1-.6-.1s-.1-.4.1-.5z"/></g><path d="M103.5 37.9c0 .9-.6 2.3-.9 2.8 0 .1-.1.1-.2 0-.2-.5-.9-1.8-.9-2.8 0-.6.4-1.1 1-1.1s1 .5 1 1.1z"/><circle cx="102.6" cy="36.1" r=".5"/></g></g><g><path fill="#505B79" d="M81 106.3c.1-.1.2-.3.2-.6 0-.1.1-.3.1-.5s.1-.5-.2-.7c-.3-.2-.6-.3-.9-.5-3.4-2-7.2-4.2-8.7-5.1-7.7-4.5-14.1-8.2-21.7-12.6-7.5-4.5-15.5-9-22.9-13.3-3.7-2.1-8.7-4.9-12.4-7-2-1.1-8.9-5.1-11.6-6.6-.9-.5-1.7 0-.3.8 2.7 1.6 12.8 7.4 13.9 8 9.2 5.4 16.3 9.3 25.3 14.7 9 5.4 18.4 10.6 27.4 15.9.4.2 5.9 3.4 10.6 6 .2.1.5.3.7.4.1 0 .1 0 .1.3 0 .2.1.4.1.6.1.2.2.3.3.2z"/></g><g><path fill="#505B79" d="M181.4 48.2c-.1.1-.1.3-.2.4 0 .1-.1.2-.1.3 0 .1 0 .1-.1.2h-.1s-.1 0-.2.1c-21.5 12.4-46.9 27-56.9 32.8-8.3 4.8-16.3 9.4-24 13.9-3.9 2.2-7.7 4.5-11.5 6.6-1.9 1.1-3.8 2.2-5.6 3.2l-1.4.8-.2.1H81l-.7-.4c-.9-.5-1.8-1.1-2.8-1.6-13.8-8-27.2-15.7-40.8-23.6-6.8-3.9-13.6-7.9-20.6-11.9-3.5-2-7-4-10.5-6.1l-2.7-1.5-1.3-.8-.5-.3v-1.9-.1l.2-.1.6-.3c.9-.5 1.8-1.1 2.7-1.6l3-1.8 3.1-1.8c2-1.2 4.1-2.3 6.1-3.5 4.1-2.4 8.2-4.7 12.3-7.1 8.2-4.7 16.4-9.5 24.7-14.2 8.2-4.7 16.5-9.5 24.7-14.2 4.1-2.4 8.2-4.7 12.3-7.1 2-1.2 4.1-2.3 6.1-3.5l3-1.8.8-.4c.1 0 0 0 0 0l.2.1 1.5.9c13.3 7.7 26.1 15.1 38.7 22.3 6.1 3.5 12.9 7.4 20 11.5 3.5 2 7.1 4.1 10.7 6.2l5.4 3.1 2.7 1.5.5.3-.7.4c-11.5 6.6-22.6 13-32 18.4-11.3 6.5-49.9 28.7-65 37.4-.9.5-.9 1.4.5.6 15.7-9 73.6-42.3 79.6-45.7 4.4-2.5 8.8-5 13-7.5 1.1-.6 2.1-1.2 3.2-1.8l1.6-.9.5-.3c.2-.1.5-.3.6-.4 0-.1.1-.1.1-.2v-.3c-.1-.1-.2-.3-.5-.4-2.2-1.3-4.3-2.5-6.5-3.7-8.3-4.8-16.3-9.4-24.3-14-15.9-9.2-31.5-18.2-47.6-27.4l-1.5-.9-.2-.1c-.2 0-.4-.1-.5-.1h-.4c-.1 0-.2.1-.3.1l-.8.4c-1 .6-2.1 1.2-3.1 1.8C94 3.5 91.9 4.7 89.7 6c-4.3 2.5-8.6 5-13.1 7.6-8.9 5.1-18.2 10.5-27.8 16C38.3 35.7 27.7 41.8 17 48l-8 4.6c-2.7 1.5-5.3 3.2-7.9 4.7l-.5.3-.1.1c-.1 0-.2.1-.2.1-.1.1-.2.3-.3.4v2.3c0 .2 0 .4.1.5.1.2.2.3.4.4l.3.2.5.3 4 2.3 8 4.6C34.5 81 55.9 93.3 77.1 105.6l2.3 1.3 1.1.7c.2.1.4.2.6.2.2 0 .4-.1.6-.2l.6-.3c1.5-.9 3-1.7 4.5-2.6 3-1.7 6-3.5 9-5.2 6-3.5 12-6.9 18-10.4 2.3-1.3 39-22.6 67.5-39.1.2-.1.4-.3.6-.4v-.5-.3c0-.2-.1-.3-.1-.4-.2-.2-.3-.3-.4-.2z"/></g><g><path fill="#505B79" d="M47.8 51.6c.3.1.9-.1 1.6-.4 2.4-1.2 5.2-2.7 6.4-3.2.2-.1.5-.2.7-.3.2-.1.3-.2.5-.3l.3-.3c.1-.1.1-.3 0-.4-.1-.1-.1-.2-.2-.3-.2-.2-.6-.3-.8-.4-2.2-1.1-4.4-1.5-6.7-1.8-2.3-.2-4.6-.2-7 .2-2.8.5-5.8 1.5-8.1 3.5-1.1 1-2.1 2.4-2.4 3.9-.3 1.6.2 3.2 1.1 4.4.9 1.2 2.2 2.3 3.7 3.1 1.5.8 3.1 1.3 4.4 1.6.9.2 2.9.6 5 .6 1 0 2.1 0 3.1-.1.4 0 .7-.1 1-.1 1.1-.2 1.3-1-.2-.8h-.7c-.2 0-.5 0-.8.1-1.1.1-2.4.1-3.7 0-2.5-.2-4.8-.9-5.2-1.1-1.6-.6-3-1.3-4.2-2.2-1.2-.9-2.1-2.1-2.5-3.4-.4-1.3 0-2.8.8-4 .9-1.2 2.1-2.1 3.6-2.9 3-1.4 6.4-2 9.7-2 1.7 0 3.4.2 5 .6.8.2 1.6.4 2.4.7.4.2.8.3 1.1.5l.1.1c-.1 0-.9.5-2 1-1.4.8-3.2 1.7-4.8 2.6-.8.5-1.5 1-1.2 1.1z"/></g><g><path fill="#505B79" d="M47 49.3c-.2.3-.3.9-.4 1.6v1.3c.1.2.2.3.2.4.4.7.8 1.3 1 1.7.7 1.2 1.4 2.3 2.1 3.4.3.5.7 1.1 1 1.6.2.3.3.6.5.8l.2.3c.1.1.2.3.3.3.2.2.6.1.8 0 .1 0 .2 0 .3-.1 1.4-.3 2.8-.8 4.2-1.5 1.3-.7 2.6-1.7 3.4-2.9.4-.6.9-1.4 1-2.3.2-.9.2-1.8 0-2.5 0-.2-.1-.5-.2-.8-.1-.3-.3-.7-.5-1-.4-.7-1-1.4-1.5-1.8-.3-.3-.5-.5-.7-.6-.9-.7-1.7-.2-.4.7.1.1.3.2.5.5.5.5 1.2 1.3 1.6 2.2.4.9.4 1.7.4 1.8 0 .8-.2 1.5-.5 2.2-.1.3-.4.6-.5.9-.2.3-.4.6-.7.8-1 1-2.2 1.8-3.8 2.4-.9.3-1.9.6-2.8.8h-.1v-.1l-.5-.4-1-1.5c-.6-1-1.3-2-1.9-3.1-.1-.1-.7-1.1-1.4-2.2-.2-.4-.1 0-.2-.5v-.8c-.1-1-.2-1.8-.4-1.6z"/></g><g><path fill="#505B79" d="M85 73.4c-.3 0-.9.2-1.5.6-2.7 1.5-6.3 2.1-7.7 2.2-3.2.3-6.3 0-9.1-.9-1.4-.4-2.8-1-4-1.9-1.2-.8-2.4-1.9-3-3.3-.6-1.4-.6-3 .2-4.3.8-1.3 2-2.4 3.4-3.2 2.8-1.6 6.1-2.2 9.2-2.3 1.5-.1 3.4 0 5.2.3.4.1.9.2 1.3.3.4.1.9.2 1.3.4.4.1.8.3 1.2.4.2.1.4.1.6.2.1.1.3.1.4.2h.1s.1 0 0 .1c0 0-.1 0-.1.1-1.6.9-5.7 3-7.4 4-1 .5-1 1.4.5.7 1.5-.8 6.1-3.2 7.8-4 .3-.1.4-.3.5-.4.1-.1.1-.4 0-.5-.1-.1-.1-.2-.3-.3-.2-.1-.4-.2-.5-.3l-.6-.3c-.2-.1-.3-.1-.5-.2-.5-.2-.8-.3-.9-.4-3.8-1.3-7.5-1.5-11-1-1.8.2-3.5.7-5.2 1.3-1.7.7-3.4 1.6-4.8 3.1-.7.8-1.3 1.7-1.5 2.7-.3 1-.2 2.2.1 3.2.7 2.1 2.4 3.5 4.2 4.6 3.6 2 7.7 2.7 11.7 2.6.2 0 1.6 0 3.5-.4 1.9-.3 4.2-1.1 6.1-2.2.5-.5 1.1-1.1.8-1.1z"/></g><g><path fill="#505B79" d="M73.3 65c-.2.3-.3.9-.4 1.6v.9c0 .2.1.4.3.5.2.1.3.1.5.2.5.2.9.3 1.2.4 2.2.9 4.1 1.5 6.3 2.4.8.3 1.7.7 2.5 1l1.3.5.7.2c.4.2.9.1 1.1-.3.3-.3.4-.5.6-.8.2-.2.3-.5.5-.8.3-.6.5-1.3.6-2 .1-.7 0-1.5-.2-2.1-.1-.3-.3-.9-.7-1.4-.4-.6-.8-1.1-1.2-1.5-.3-.3-.5-.5-.7-.6-.9-.7-1.6-.3-.4.7.1.1.3.2.5.5.4.4 1 1.1 1.3 1.8.3.7.4 1.3.4 1.5.1 1.5-.4 2.9-1.3 4 0 .1-.1.1-.2 0-.2-.1-.5-.2-.7-.3l-1.5-.6c-2.6-1.1-5.3-1.9-7.9-2.9-.1 0-.5-.2-1.2-.4-.2-.1-.3-.1-.5-.2l-.2-.1v-.1-.6c-.4-.9-.5-1.7-.7-1.5z"/></g><g><path fill="#505B79" d="M100.5 32.4c.2-.3.3-.9.4-1.6.1-1 .1-2.3.1-2.7v-1.6-.8c0-.2 0-.4-.2-.6-.1-.1-.2-.1-.3-.2l-.2-.1c-.9-.5-1.7-1-2.7-1.6-1.8-1.2-3.8-2.3-5.7-3.4-.9-.5-2.2-1.2-3.1-1.7-.5-.3-1.8-1-2.7-1.5-.3-.2-.6-.3-.8-.4-.9-.5-1.7 0-.3.8.1.1.3.2.7.4 1 .6 3 1.8 3.3 1.9 2.2 1.4 4.1 2.2 6.3 3.7 1.1.7 2.2 1.4 3.4 2l.9.5.4.2c.1 0 0 0 0 0v1.8c0 .1 0 1.9.1 3.3 0 1 .2 1.8.4 1.6z"/></g><g><path fill="#505B79" d="M104.6 15.4c-.5.1-.8 1.1-.9 1.4-.4.7-.6 1.4-.9 2.1-.4.7-.7 1.5-1 2.3-.1.4-.3.9-.4 1.3-.1.2-.4 1.1-.5 1.4-.2.4.4.8.6.2.1-.3.6-1.5.6-1.6.4-.9.6-1.7 1.1-2.5.5-.9.7-1.8 1.1-2.7 0-.2.7-2 .3-1.9z"/></g><g><path fill="#505B79" d="M88.5 28c-.1-.3-.6-.7-1.2-1.1-.8-.5-1.7-1-2.5-1.5-.4-.2-1-.5-.9-.6v-1.3-4.3V16s0-.1.1-.1l.5-.1c.5-.1 1-.1 1.4-.2 1.9-.2 3.7-.5 5.6-.7 3.7-.5 7.4-.9 11.4-1.4l1.6-.2.7-.1h.1V22l-.1.3c-1.5 3.6-2.9 7.2-4.3 10.7-.1.3-.3.7-.4 1 0 .1 0 0 0 0-2.9-1.7-6.5-3.7-9.3-5.2-.2-.2-.8-.4-.7-.4v-1.5-2c0-.8 0-1.1.5-1 .5.2 1 .7 1.2 1.3.1.3.2.6.2.9v2c0 1.1.8 1.5.8-.1v-1.8-.7c0-.2-.1-.5-.2-.7-.2-.5-.5-.9-.9-1.2-.2-.2-.4-.3-.7-.4-.3-.1-.6-.2-1 0-.8.4-.7 1.3-.7 1.6V28.7c0 .2.1.3.2.4.1.1.3.2.4.2.2.1.3.2.5.3 1.2.7 2 1.2 2.3 1.3 2.5 1.5 4.9 2.8 7 4 .2.1.5.3.7.3.2 0 .5-.1.6-.3.1-.1.1-.2.2-.3l.1-.3.2-.4c.2-.5.4-1.1.6-1.6.4-1.1.8-2.1 1.3-3.2.8-2.1 1.7-4.2 2.6-6.5l.1-.3c0-.1.1-.3.1-.4v-.6-1.2-2.5V13c0-.3 0-.6-.2-.8-.2-.2-.4-.3-.7-.3l-2 .3c-2.4.3-4.8.6-7.2 1-2.4.3-4.8.6-7.2 1-1.2.2-2.4.3-3.6.5l-.9.1-.8.2h-.4c-.2 0-.3.1-.4.1-.5.3-.3 1.1-.3 1.3v8.5c0 .3.2.6.5.7 1.2.7 2.4 1.3 3.5 1.9.9.5 1.7.8 1.6.5z"/></g></svg>