<svg xmlns="http://www.w3.org/2000/svg" width="24" height="24" viewBox="0 0 24 24"><path d="M23.713 17.318c-.498-.908-1.56-1.986-2.414-2.78-1.295-1.2-1.295-1.2-.027-2.84.23-.296.493-.638.79-1.034 1.97-2.624 2.053-3.49 1.874-3.994-.115-.314-.447-.69-1.387-.69 0 0 .19.012-3.846.032-.16 0-.394.027-.61.155-.303.182-.47.524-.516.624-.62 1.654-2.322 4.71-2.994 5-.266-.306-.184-1.543-.13-2.376.11-1.643.232-3.505-1.163-3.84-.983-.24-3.857-.304-4.82.17-.394.193-.915.67-.84 1.127l.115.417.37.047c.24.03.547.13.68.312.34.497.413 3.74.077 4.173-.625-.068-2.322-3.076-3.057-4.932-.025-.064-.17-.395-.453-.603-.3-.22-.67-.292-.83-.312l-3.296.022c-.17.005-.742.048-1.043.407-.333.394-.14.972-.088 1.11.107.24 2.642 5.933 5.582 8.995 2.512 2.615 5.002 2.542 6.85 2.558 1.257 0 1.416-.058 1.583-.24.347-.37.373-.906.396-1.38.035-.715.096-.953.41-1.052.245 0 .853.704 1.216 1.125.45.52.914 1.058 1.423 1.407.73.5 1.355.576 1.664.576 0 0-.16-.004 3.25-.045.105-.006 1.046-.082 1.396-.748.144-.272.233-.73-.163-1.39z"/></svg>