<svg xmlns="http://www.w3.org/2000/svg" width="24" height="24" viewBox="0 0 24 24"><path d="M23.444 4.834c-.814.363-1.5.375-2.228.016.938-.562.98-.957 1.32-2.02-.878.522-1.85.9-2.886 1.105-.827-.882-2.008-1.435-3.315-1.435-2.51 0-4.544 2.036-4.544 4.544 0 .356.04.703.118 1.036-3.776-.19-7.125-1.998-9.366-4.748-.39.67-.615 1.452-.615 2.285 0 1.577.803 2.967 2.02 3.782-.744-.025-1.444-.23-2.056-.57v.058c0 2.202 1.566 4.038 3.646 4.456-.666.18-1.368.21-2.053.08.58 1.803 2.257 3.117 4.245 3.154-1.945 1.524-4.356 2.16-6.728 1.88C3.012 19.75 5.4 20.5 7.966 20.5c8.358 0 12.928-6.924 12.928-12.93 0-.197-.003-.392-.012-.587.887-.64 1.953-1.237 2.562-2.15z"/></svg>