<?xml version="1.0" standalone="no"?>
<!DOCTYPE svg PUBLIC "-//W3C//DTD SVG 20010904//EN"
 "http://www.w3.org/TR/2001/REC-SVG-20010904/DTD/svg10.dtd">
<svg version="1.0" xmlns="http://www.w3.org/2000/svg"
 width="512.000000pt" height="512.000000pt" viewBox="0 0 512.000000 512.000000"
 preserveAspectRatio="xMidYMid meet">
<metadata>
Created by potrace 1.11, written by Peter Selinger 2001-2013
</metadata>
<g transform="translate(0.000000,512.000000) scale(0.100000,-0.100000)"
fill="#000000" stroke="none">
<path d="M3205 4223 c-115 -48 -195 -135 -226 -245 -15 -57 -13 -1343 3 -1403
22 -85 78 -163 165 -226 55 -41 67 -59 88 -137 9 -33 8 -64 -2 -135 -7 -51
-15 -117 -19 -147 -3 -30 -8 -64 -10 -75 -2 -11 -6 -42 -9 -70 -4 -27 -8 -61
-10 -75 -47 -283 -53 -427 -20 -501 19 -44 31 -58 79 -94 35 -27 47 -30 110
-30 102 0 164 40 207 133 19 41 20 56 14 200 -4 87 -8 169 -10 185 -2 15 -6
62 -10 105 -3 42 -8 93 -10 112 -5 38 -14 138 -20 210 -5 72 -15 182 -20 225
-3 22 -7 90 -10 150 -3 61 -8 157 -11 215 -2 58 -7 443 -11 855 -3 413 -8 752
-10 755 -3 3 -53 6 -111 7 -81 2 -117 -1 -147 -14z m96 -490 c0 -164 3 -419 6
-568 4 -148 7 -343 7 -432 1 -151 0 -164 -20 -183 -11 -11 -36 -23 -55 -26
-29 -5 -41 -1 -65 19 l-29 25 -3 634 c-3 674 -2 695 45 756 26 35 78 72 101
72 9 0 12 -66 13 -297z m83 -1948 c17 -395 17 -477 0 -497 -21 -22 -47 -23
-69 -2 -16 16 -16 36 0 164 2 19 7 60 10 90 3 30 10 89 15 130 5 41 12 98 15
125 10 96 17 137 20 133 2 -1 6 -66 9 -143z"/>
<path d="M1504 4166 c-3 -7 -6 -200 -7 -427 l-2 -414 30 -54 c39 -71 110 -141
179 -177 l56 -29 -5 -55 c-3 -30 -7 -82 -10 -116 -2 -33 -7 -89 -10 -125 -3
-35 -7 -89 -10 -119 -10 -117 -16 -188 -25 -260 -14 -114 -19 -167 -25 -255
-8 -109 -14 -183 -20 -225 -6 -42 -13 -134 -20 -255 -3 -49 -9 -124 -12 -165
-18 -205 -7 -261 68 -332 76 -71 149 -91 242 -64 60 18 122 69 155 130 24 45
23 314 -2 501 -2 17 -7 62 -11 100 -3 39 -8 90 -10 115 -3 25 -7 81 -10 125
-3 44 -10 114 -15 155 -5 41 -12 102 -15 135 -3 33 -7 76 -10 95 -2 19 -7 67
-10 105 -6 70 -12 130 -20 195 -11 89 -20 201 -20 259 l0 63 41 17 c85 33 158
120 194 230 23 72 23 74 17 457 -4 212 -9 389 -12 394 -8 12 -142 13 -149 1
-3 -5 -8 -188 -11 -407 -5 -432 -5 -434 -58 -420 -14 3 -28 14 -31 24 -3 9 -8
192 -11 406 -3 214 -8 393 -11 397 -7 12 -141 12 -148 0 -3 -4 -8 -188 -11
-407 -4 -264 -9 -402 -17 -411 -15 -18 -52 -16 -71 5 -13 15 -16 71 -22 411
-3 217 -8 398 -11 403 -9 15 -144 10 -150 -6z m371 -1922 c5 -76 11 -175 20
-334 11 -177 16 -259 20 -315 15 -219 16 -284 4 -306 -23 -45 -57 -51 -89 -16
-20 20 -21 30 -16 127 3 58 8 159 11 225 3 66 7 152 10 190 2 39 7 140 11 225
3 85 8 173 9 195 2 22 4 53 4 69 2 54 10 21 16 -60z"/>
</g>
</svg>
