<?xml version="1.0" standalone="no"?>
<!DOCTYPE svg PUBLIC "-//W3C//DTD SVG 20010904//EN"
 "http://www.w3.org/TR/2001/REC-SVG-20010904/DTD/svg10.dtd">
<svg version="1.0" xmlns="http://www.w3.org/2000/svg"
 width="192.000000pt" height="192.000000pt" viewBox="0 0 192.000000 192.000000"
 preserveAspectRatio="xMidYMid meet">
<metadata>
Created by potrace 1.11, written by Peter Selinger 2001-2013
</metadata>
<g transform="translate(0.000000,192.000000) scale(0.100000,-0.100000)"
fill="#000000" stroke="none">
<path d="M460 1482 l0 -258 -47 -12 c-85 -23 -212 -92 -267 -146 -63 -62 -86
-108 -86 -173 0 -106 87 -176 253 -203 35 -5 65 -6 70 -1 5 5 -10 12 -35 16
-91 15 -189 69 -214 116 -30 59 -11 128 48 172 64 48 211 107 267 107 8 0 11
-110 11 -385 l0 -385 175 0 175 0 0 175 0 175 120 0 121 0 114 -175 115 -175
210 0 c145 0 210 3 210 11 0 6 -66 102 -148 212 l-147 202 60 45 c69 52 137
146 161 223 75 245 -40 546 -252 659 -101 54 -135 58 -541 58 l-373 0 0 -258z
m754 16 c7 -5 8 -8 1 -8 -16 0 -35 22 -35 40 1 11 4 10 12 -5 6 -11 16 -23 22
-27z m-217 -153 c27 -27 43 -35 72 -35 67 0 134 -27 176 -70 39 -40 39 -41 23
-68 -28 -48 -102 -86 -175 -90 -59 -4 -68 -8 -98 -40 -29 -32 -37 -36 -82 -35
-49 1 -134 31 -147 52 -5 7 5 11 30 11 25 0 46 7 61 22 24 22 31 48 13 48 -6
0 -15 11 -20 25 -5 14 -17 25 -27 26 -14 0 -13 2 5 9 12 5 22 16 22 25 0 9 7
18 15 21 40 16 -5 65 -68 74 l-42 7 55 26 c36 18 72 27 104 27 42 0 53 -5 83
-35z"/>
</g>
</svg>
