<?xml version="1.0" standalone="no"?>
<!DOCTYPE svg PUBLIC "-//W3C//DTD SVG 20010904//EN"
 "http://www.w3.org/TR/2001/REC-SVG-20010904/DTD/svg10.dtd">
<svg version="1.0" xmlns="http://www.w3.org/2000/svg"
 width="512.000000pt" height="512.000000pt" viewBox="0 0 512.000000 512.000000"
 preserveAspectRatio="xMidYMid meet">
<metadata>
Created by potrace 1.11, written by Peter Selinger 2001-2013
</metadata>
<g transform="translate(0.000000,512.000000) scale(0.100000,-0.100000)"
fill="#000000" stroke="none">
<path d="M1253 4345 c-15 -11 -17 -75 -18 -676 -1 -365 -3 -669 -4 -676 -1
-14 -32 -32 -62 -38 -41 -8 -194 -60 -200 -68 -3 -5 -8 -8 -10 -7 -9 4 -64
-14 -110 -36 -27 -13 -53 -24 -59 -24 -5 0 -10 -5 -10 -12 0 -6 -3 -9 -6 -5
-6 5 -98 -41 -146 -75 -14 -10 -31 -18 -36 -18 -6 0 -12 -3 -14 -8 -1 -4 -28
-24 -58 -44 -165 -108 -308 -298 -343 -456 -47 -205 57 -398 278 -516 114 -61
351 -121 362 -91 2 8 -54 31 -97 40 -3 1 -18 7 -35 14 -148 63 -259 142 -327
232 -37 49 -67 145 -62 199 5 63 43 155 80 196 18 19 30 34 28 34 -10 0 110
102 148 127 71 45 238 128 278 137 3 1 11 5 18 9 6 5 12 6 12 2 0 -3 14 1 30
10 17 9 30 13 30 9 0 -4 7 -1 15 6 8 7 15 10 15 7 0 -4 19 1 42 9 23 8 55 17
72 19 17 3 57 11 89 17 44 8 61 8 70 -1 9 -9 12 -252 13 -1011 0 -715 3 -1002
11 -1012 15 -18 867 -18 885 0 9 9 12 127 13 452 0 346 3 442 13 452 10 10 82
13 320 14 l307 0 32 -31 c18 -18 33 -35 33 -39 0 -7 58 -96 69 -106 3 -3 12
-17 20 -32 8 -16 18 -28 23 -28 4 0 8 -6 8 -13 0 -7 8 -22 18 -33 10 -10 21
-26 25 -34 10 -22 43 -74 132 -206 44 -66 82 -123 84 -129 2 -5 7 -12 10 -15
3 -3 41 -58 84 -122 43 -65 86 -123 96 -130 14 -10 133 -13 548 -12 291 0 535
4 541 8 13 8 -2 46 -35 82 -10 11 -22 27 -28 36 -16 26 -388 533 -395 538 -3
3 -16 22 -29 43 -13 21 -28 43 -35 50 -6 6 -29 36 -50 66 -21 30 -43 59 -48
65 -9 11 -64 86 -103 140 -11 16 -27 38 -36 49 -21 27 -14 51 19 68 15 8 33
20 40 27 7 6 17 12 21 12 4 0 16 8 27 18 10 9 31 25 46 35 85 54 230 215 301
334 73 120 140 293 152 388 2 17 6 44 10 60 23 113 24 380 0 495 -3 14 -10 52
-16 85 -6 32 -22 95 -37 140 -14 44 -26 82 -27 85 -4 12 -28 68 -41 94 -8 16
-14 32 -14 36 0 13 -100 180 -142 238 -56 77 -273 292 -294 292 -4 0 -27 15
-53 33 -40 29 -186 108 -216 117 -5 1 -14 4 -20 6 -116 39 -168 54 -175 49 -6
-3 -10 -2 -10 2 0 5 -8 9 -17 9 -10 1 -40 5 -68 9 -27 4 -464 9 -970 11 -506
1 -937 4 -958 7 -21 2 -45 -2 -54 -8z m1962 -562 c7 -28 43 -53 86 -58 45 -6
48 -13 17 -40 -21 -18 -36 -22 -68 -20 -72 6 -121 57 -115 120 2 17 3 36 4 42
1 7 16 27 34 44 l32 31 3 -48 c1 -27 4 -59 7 -71z m-684 -363 c23 -7 54 -19
68 -28 37 -23 128 -118 136 -142 8 -24 25 -27 112 -18 39 4 109 -2 193 -17 60
-11 173 -63 232 -108 59 -44 138 -128 138 -145 0 -6 5 -12 10 -14 15 -5 19
-59 6 -82 -14 -26 -62 -82 -104 -123 -113 -111 -298 -174 -486 -167 l-84 4
-26 -34 c-14 -19 -26 -38 -26 -42 0 -16 -78 -78 -125 -100 -85 -39 -240 -34
-342 12 -137 61 -204 100 -210 122 -10 41 18 57 105 58 90 2 128 17 167 69 32
41 29 65 -8 83 -30 14 -61 66 -53 87 6 18 -12 33 -49 39 -54 10 -90 22 -87 29
1 4 2 10 2 15 0 4 15 8 33 9 17 1 42 3 54 4 29 2 42 18 47 59 4 33 32 63 69
76 39 13 -5 98 -67 131 -19 10 -60 16 -112 17 -95 2 -119 14 -102 52 12 26
107 88 168 109 3 1 14 5 25 9 76 29 99 36 142 42 26 3 50 8 52 10 6 5 77 -4
122 -16z"/>
<path d="M824 1588 c-6 -10 -7 -10 34 -13 17 -1 32 1 32 5 0 11 -60 18 -66 8z"/>
</g>
</svg>
