<?xml version="1.0" standalone="no"?>
<!DOCTYPE svg PUBLIC "-//W3C//DTD SVG 20010904//EN"
 "http://www.w3.org/TR/2001/REC-SVG-20010904/DTD/svg10.dtd">
<svg version="1.0" xmlns="http://www.w3.org/2000/svg"
 width="512.000000pt" height="512.000000pt" viewBox="0 0 512.000000 512.000000"
 preserveAspectRatio="xMidYMid meet">
<metadata>
Created by potrace 1.11, written by Peter Selinger 2001-2013
</metadata>
<g transform="translate(0.000000,512.000000) scale(0.100000,-0.100000)"
fill="#000000" stroke="none">
<path d="M3660 5101 c-75 -30 -84 -34 -125 -60 -44 -29 -52 -35 -112 -92 -24
-21 -44 -44 -45 -50 -2 -7 -13 -23 -25 -36 -23 -26 -56 -91 -56 -110 0 -7 -5
-14 -12 -17 -6 -2 -10 -18 -9 -35 1 -17 -2 -31 -6 -31 -4 0 -8 -10 -9 -22 0
-13 -2 -44 -2 -70 -2 -31 -6 -45 -13 -41 -6 4 -5 -1 3 -10 7 -9 9 -17 4 -17
-5 0 -7 -21 -3 -50 4 -27 2 -50 -2 -50 -5 0 -6 -5 -2 -11 11 -19 12 -105 12
-919 1 -426 1 -784 2 -795 1 -11 1 -27 1 -35 -2 -62 0 -139 3 -156 3 -12 7
-38 10 -58 3 -21 13 -50 21 -67 9 -16 12 -29 8 -29 -5 0 0 -7 10 -14 10 -8 18
-17 19 -20 0 -18 12 -46 18 -46 5 0 11 -8 15 -19 3 -10 27 -42 54 -70 26 -28
46 -53 43 -56 -3 -3 2 -5 11 -5 10 0 17 -3 17 -7 0 -5 21 -21 48 -38 62 -39
92 -66 92 -82 0 -7 5 -13 10 -13 6 0 10 -9 10 -20 0 -11 4 -20 8 -20 7 0 37
-85 32 -92 -1 -2 3 -15 9 -30 7 -18 7 -29 0 -34 -6 -4 -6 -11 2 -21 8 -9 9
-17 3 -21 -5 -4 -10 -25 -11 -47 -1 -22 -4 -65 -8 -95 -3 -30 -7 -67 -8 -82
-1 -16 -4 -28 -7 -28 -3 0 -5 -19 -5 -43 1 -23 -2 -46 -6 -52 -4 -5 -8 -30
-10 -55 -2 -25 -8 -48 -14 -52 -6 -5 -6 -8 2 -8 9 0 10 -7 3 -25 -5 -14 -7
-32 -4 -40 4 -8 1 -15 -6 -15 -10 0 -10 -3 0 -15 8 -10 9 -15 1 -15 -6 0 -10
-10 -10 -23 1 -12 -1 -35 -4 -52 -3 -16 -8 -50 -11 -75 -3 -25 -8 -63 -12 -85
-3 -22 -7 -53 -9 -70 -1 -16 -6 -39 -10 -49 -7 -15 -5 -17 6 -11 12 7 12 6 1
-7 -7 -9 -12 -20 -11 -24 1 -5 0 -11 -1 -14 -3 -6 -8 -43 -14 -100 -2 -25 -8
-65 -12 -90 -9 -58 -11 -210 -2 -210 3 0 4 -10 0 -22 -3 -11 -1 -19 4 -16 5 4
10 -6 11 -20 4 -61 41 -149 70 -165 7 -5 11 -12 8 -18 -4 -5 -2 -9 3 -9 5 0
21 -11 36 -25 15 -14 34 -25 42 -25 7 0 14 -4 14 -9 0 -8 19 -16 65 -28 24 -6
159 -7 197 -2 16 2 28 9 28 16 0 7 6 10 14 7 7 -3 20 2 29 10 8 8 21 17 28 18
26 6 100 95 129 155 29 60 30 67 29 187 -1 81 -5 123 -12 119 -6 -4 -7 -1 -1
8 13 21 14 39 2 39 -6 0 -5 6 2 15 10 12 10 15 -1 15 -11 0 -11 2 1 10 12 8
12 10 1 10 -11 0 -11 3 -1 15 7 8 8 15 4 15 -5 0 -10 28 -10 63 -2 86 -9 161
-18 175 -4 7 -3 12 3 12 7 0 7 9 3 22 -5 13 -8 34 -8 48 1 14 -3 28 -9 32 -6
5 -5 8 3 8 7 0 10 5 6 11 -4 7 -8 35 -10 63 -1 28 -3 51 -4 51 -1 0 -3 12 -4
26 -2 14 -6 31 -10 37 -4 8 0 12 11 12 15 0 15 2 4 9 -9 6 -15 29 -17 63 -1
29 -3 53 -4 53 -2 0 -8 70 -10 142 -2 31 -7 50 -12 47 -6 -4 -5 3 1 15 7 11 8
21 3 21 -5 0 -9 7 -9 15 0 8 5 15 10 15 6 0 5 5 -1 13 -6 6 -9 27 -8 45 1 17
-2 32 -7 32 -5 0 -4 7 3 15 8 10 9 15 2 15 -6 0 -9 7 -6 15 4 9 1 15 -7 15 -9
0 -10 3 -2 11 7 7 8 21 3 38 -4 15 -6 40 -5 54 2 15 -1 27 -6 27 -6 0 -6 7 0
19 6 10 7 21 4 25 -4 3 -8 23 -9 44 -1 20 -5 70 -8 110 -5 57 -3 72 6 66 10
-6 10 -4 0 8 -9 12 -15 60 -17 150 -3 73 -6 152 -9 176 -3 30 -1 40 7 35 7 -4
6 1 -2 10 -11 14 -11 20 0 34 8 10 9 14 2 10 -9 -6 -12 8 -12 50 1 32 0 60 -1
63 0 3 -2 96 -3 207 -1 127 -6 203 -12 203 -7 0 -7 3 0 8 15 11 17 32 4 48 -9
11 -9 14 0 14 8 0 9 6 3 18 -5 9 -6 26 -2 37 4 11 3 26 -2 33 -7 8 -7 12 2 12
10 0 10 3 1 14 -13 16 -11 37 4 48 7 5 6 8 -1 8 -12 0 -12 49 1 69 5 9 4 12
-2 8 -7 -4 -10 268 -11 836 0 463 -1 847 -1 853 -2 24 -54 32 -207 32 -129 1
-167 -3 -204 -17z m135 -841 c0 -283 5 -521 9 -529 7 -10 6 -12 -4 -6 -9 6
-11 4 -5 -5 10 -17 13 -60 4 -60 -3 0 -6 -7 -6 -15 0 -8 4 -15 8 -15 8 0 5
-62 -5 -78 -3 -6 -2 -13 4 -17 5 -3 10 -11 10 -16 0 -6 -6 -7 -12 -3 -10 6
-10 4 -2 -7 7 -8 12 -74 13 -164 2 -82 4 -207 5 -277 1 -70 5 -131 9 -134 4
-4 2 -14 -5 -21 -7 -9 -8 -17 -2 -21 11 -8 15 -42 5 -42 -4 0 -7 -9 -7 -20 0
-11 5 -20 11 -20 5 0 3 -5 -5 -10 -8 -5 -10 -10 -5 -10 6 0 10 -66 10 -178 0
-158 -2 -180 -20 -209 -32 -54 -119 -84 -174 -60 -32 14 -82 67 -75 78 3 5 1
9 -3 9 -5 0 -10 10 -12 23 -6 44 -4 2023 2 2051 11 53 41 126 60 146 10 11 15
20 12 20 -6 0 33 35 80 73 17 13 38 23 48 21 9 -1 17 2 17 8 0 5 8 8 17 6 17
-3 18 -37 18 -518z m134 -2972 c5 -173 10 -258 16 -267 3 -5 1 -12 -5 -16 -6
-4 -8 -10 -5 -15 3 -5 7 -78 9 -164 2 -85 7 -159 10 -165 4 -6 1 -11 -6 -12
-9 0 -10 -2 -1 -5 8 -4 9 -13 3 -30 -5 -13 -6 -24 -2 -24 4 0 8 -53 8 -118 1
-112 0 -118 -23 -139 -31 -29 -82 -30 -111 -3 -12 12 -22 26 -23 33 -4 60 -3
75 2 71 4 -2 7 9 6 24 0 58 8 127 16 133 5 4 4 17 -3 29 -8 15 -8 20 -1 16 7
-5 11 8 11 38 0 25 5 48 10 51 8 5 8 11 0 20 -6 7 -7 16 -2 19 5 3 8 26 7 51
0 25 2 45 6 45 3 0 4 11 1 25 -2 14 0 25 5 25 5 0 8 14 5 30 -2 17 2 38 9 47
10 12 10 14 2 9 -8 -4 -13 -1 -13 9 0 9 3 14 8 11 4 -2 7 21 7 52 -1 32 1 62
4 67 8 14 11 34 14 91 2 27 7 55 11 62 4 7 2 12 -5 12 -8 0 -8 4 -1 13 11 13
12 16 12 48 0 11 4 18 8 15 4 -2 9 -42 11 -88z"/>
<path d="M886 5000 c-8 -16 -12 -80 -12 -187 1 -88 -2 -159 -5 -157 -3 2 -3
-13 0 -34 4 -20 4 -50 1 -67 -3 -16 -3 -47 1 -67 3 -21 3 -38 -1 -38 -4 0 -4
-16 0 -35 5 -21 4 -38 -2 -41 -5 -3 -4 -12 4 -22 10 -12 10 -14 1 -8 -7 4 -13
3 -13 -1 0 -5 6 -15 13 -22 6 -8 7 -11 1 -8 -7 4 -11 -5 -11 -23 0 -17 5 -27
10 -23 6 4 7 1 1 -8 -13 -20 -12 -109 0 -109 7 0 7 -3 0 -8 -9 -5 -11 -77 -9
-252 3 -261 4 -270 17 -270 4 0 8 -9 8 -20 0 -11 5 -20 10 -20 6 0 10 -9 10
-20 0 -11 7 -23 15 -26 8 -4 15 -15 15 -25 0 -10 4 -19 9 -19 5 0 13 -9 16
-20 3 -11 14 -20 22 -20 9 0 14 -3 10 -6 -3 -4 9 -23 28 -43 19 -20 35 -39 35
-43 0 -5 6 -8 14 -8 8 0 16 -4 18 -8 3 -10 104 -82 113 -82 4 0 26 -9 50 -20
41 -19 43 -21 40 -57 -2 -21 -4 -38 -5 -38 -1 0 -3 -31 -5 -70 -2 -38 -4 -70
-5 -70 -1 0 -3 -12 -5 -28 -2 -15 0 -25 6 -22 14 9 11 -2 -7 -19 -8 -9 -11
-16 -5 -16 6 0 7 -11 2 -27 -4 -16 -7 -49 -6 -75 1 -26 -1 -46 -4 -44 -3 2 -7
-26 -8 -63 -5 -118 -10 -178 -18 -191 -6 -9 -4 -11 6 -5 11 7 12 6 3 -6 -6 -8
-10 -48 -10 -90 1 -61 -2 -75 -13 -71 -10 4 -11 1 -3 -15 6 -11 8 -23 4 -27
-3 -4 -7 -26 -8 -49 -2 -23 -5 -67 -9 -97 -3 -30 -8 -71 -10 -90 -2 -19 -4
-35 -5 -35 -2 0 -4 -27 -6 -60 -1 -33 -3 -61 -5 -62 -6 -9 -4 -30 5 -42 8 -11
8 -13 -1 -7 -9 5 -13 -1 -14 -21 -3 -89 -5 -109 -12 -120 -5 -8 -3 -13 3 -13
6 0 8 -5 4 -11 -6 -10 -10 -49 -15 -139 -1 -25 -6 -53 -12 -64 -6 -13 -6 -16
2 -12 12 8 15 -6 4 -18 -4 -3 -8 -30 -10 -59 -3 -54 -10 -112 -13 -112 -2 0
-9 -102 -15 -215 -3 -52 -7 -124 -10 -160 -3 -36 -7 -95 -9 -131 -1 -36 -6
-71 -10 -77 -4 -7 -2 -12 4 -12 6 0 8 -5 4 -11 -7 -11 -11 -52 -15 -139 -1
-25 -6 -51 -12 -57 -6 -9 -6 -13 2 -13 7 0 9 -5 4 -12 -11 -19 -12 -37 -2 -44
5 -3 6 -10 3 -16 -10 -16 -11 -67 -2 -61 5 2 8 -9 8 -26 0 -34 58 -153 71
-145 5 3 9 0 9 -6 0 -12 45 -60 55 -60 4 0 14 -9 23 -19 10 -11 46 -35 82 -53
59 -30 73 -33 156 -33 66 0 96 4 109 15 11 8 16 10 12 3 -4 -6 18 2 48 19 30
16 57 34 61 39 3 5 10 7 15 4 5 -4 9 -2 9 2 0 5 22 33 50 62 27 29 48 57 45
61 -3 5 0 10 5 12 6 2 12 10 13 18 2 8 6 21 10 28 5 6 6 16 2 21 -3 5 -1 12 4
16 6 3 8 12 4 20 -3 8 -1 15 3 15 5 0 9 72 9 160 0 88 -3 160 -7 160 -4 0 -3
14 2 30 5 17 5 28 1 26 -4 -3 -8 9 -8 27 -1 92 -7 157 -16 157 -5 0 -4 7 3 15
7 8 8 15 3 15 -5 0 -9 18 -9 41 1 22 -1 42 -4 44 -4 2 -6 20 -5 39 1 20 -1 36
-4 36 -3 0 -6 19 -7 43 -1 54 -14 188 -19 204 -3 7 1 13 8 13 8 0 8 3 2 8 -10
7 -16 47 -19 127 -1 22 -5 46 -9 53 -5 6 -4 12 2 12 10 0 9 25 -2 36 -12 12
-8 26 6 18 9 -6 9 -4 -1 8 -7 8 -13 43 -14 77 -1 33 -6 61 -11 61 -5 0 -4 7 3
15 7 8 8 15 3 15 -8 0 -14 55 -15 138 0 17 -3 32 -7 32 -3 0 -7 19 -7 42 -1
43 -8 118 -20 213 -3 28 -7 71 -7 98 -1 26 -4 47 -7 47 -3 0 -6 24 -8 53 -5
95 -7 112 -15 125 -5 6 -4 12 1 12 5 0 8 10 6 23 -1 12 -3 22 -4 22 -2 0 -4 9
-5 20 -15 114 -18 149 -19 202 0 35 -4 63 -7 63 -3 0 -5 11 -4 25 2 14 0 25
-3 25 -4 0 -7 21 -6 48 0 26 -5 50 -10 54 -7 5 -6 8 2 8 7 0 10 5 7 11 -4 5
-9 38 -11 72 -3 34 -7 68 -9 75 -6 16 21 45 43 48 32 5 71 27 65 37 -3 6 -1 7
5 3 12 -7 51 14 86 46 11 10 24 18 28 18 5 0 6 5 3 10 -3 6 2 10 11 10 10 0
15 3 12 6 -3 3 4 15 16 28 37 39 66 76 59 76 -3 0 1 8 10 18 8 9 15 19 15 22
-1 3 9 24 21 48 12 23 19 42 15 42 -4 0 -1 7 6 16 8 8 15 27 17 42 5 41 8 56
14 67 8 15 5 632 -3 640 -4 4 -3 18 2 31 7 17 6 24 -3 24 -7 0 -8 3 -2 8 12 8
13 32 2 49 -4 6 -2 15 4 19 8 4 7 9 -2 15 -11 7 -11 9 -1 9 8 0 10 5 6 12 -11
17 -11 58 -1 58 5 0 4 6 -2 14 -10 11 -10 20 -1 37 7 12 8 19 2 15 -5 -3 -9
12 -9 37 -1 188 -8 313 -20 322 -15 11 -186 12 -220 1 -26 -8 -24 9 -26 -248
-1 -115 -5 -178 -12 -178 -7 0 -7 -3 0 -8 14 -9 14 -45 0 -54 -7 -5 -6 -8 1
-8 14 0 14 -30 0 -30 -6 0 -4 -5 4 -10 13 -9 13 -10 0 -10 -12 0 -12 -2 -2 -9
8 -4 14 -12 14 -16 0 -4 -6 -12 -14 -16 -10 -7 -10 -9 0 -9 10 0 10 -5 2 -20
-8 -15 -8 -20 1 -20 8 0 8 -4 -1 -15 -9 -11 -9 -15 -1 -15 7 0 9 -5 5 -12 -12
-19 -12 -48 -1 -48 5 0 4 -7 -3 -15 -10 -12 -10 -15 1 -15 9 0 10 -3 4 -8 -12
-8 -13 -22 -2 -39 5 -7 4 -13 -1 -13 -5 0 -9 -7 -9 -15 0 -8 4 -15 9 -15 5 0
6 -6 1 -12 -12 -21 -12 -38 0 -38 8 0 8 -3 2 -8 -7 -4 -11 -83 -11 -209 -1
-217 -4 -229 -57 -238 -32 -6 -87 30 -88 57 0 13 -2 95 -3 183 -1 88 -5 166
-9 173 -5 6 -4 12 0 12 5 0 9 14 8 30 0 17 -4 30 -9 30 -5 0 -5 5 0 13 11 15
11 38 1 55 -5 7 -3 12 4 12 10 0 10 3 1 12 -6 6 -8 18 -4 27 9 20 9 42 -1 59
-5 7 -3 12 4 12 8 0 8 4 -1 15 -10 12 -10 15 1 15 9 0 10 3 4 8 -13 9 -14 55
0 64 7 5 7 8 -1 8 -13 0 -12 38 0 59 6 9 5 12 -1 8 -5 -3 -9 12 -9 38 0 26 4
41 9 38 6 -4 7 -1 1 8 -13 20 -13 73 0 81 8 6 8 8 0 8 -8 0 -12 47 -12 150 -1
105 -5 156 -14 169 -11 15 -27 17 -122 15 -79 -1 -111 -6 -117 -15 -9 -14 -9
-33 -11 -274 -1 -73 -6 -123 -12 -127 -8 -6 -8 -8 0 -8 13 0 13 -128 0 -149
-6 -10 -5 -12 2 -7 15 9 12 -36 -3 -46 -6 -5 -6 -8 2 -8 12 0 12 -17 0 -36 -3
-6 -3 -14 0 -18 11 -11 10 -46 -1 -46 -6 0 -6 -4 1 -11 8 -8 8 -20 3 -35 -6
-16 -6 -24 1 -24 6 0 6 -7 -1 -20 -8 -15 -8 -20 1 -20 9 0 9 -3 0 -14 -8 -10
-9 -16 -1 -21 6 -3 7 -12 3 -18 -12 -20 -12 -37 0 -37 8 0 7 -3 -2 -9 -9 -6
-10 -11 -2 -15 6 -4 8 -12 4 -19 -3 -6 -7 -87 -8 -180 -1 -165 -2 -170 -24
-188 -30 -24 -84 -19 -115 10 -23 21 -24 29 -26 179 -1 86 -2 200 -3 252 0 53
3 102 8 109 5 9 4 12 -3 7 -6 -3 -13 -2 -17 4 -3 5 -1 10 4 10 15 0 14 43 -1
59 -7 8 -8 11 -3 8 7 -4 11 28 10 94 0 54 -4 99 -9 99 -5 0 -3 7 5 16 7 9 9
18 3 22 -11 8 -15 42 -5 42 4 0 8 7 8 15 0 8 -5 15 -10 15 -5 0 -4 6 2 14 8 9
8 16 2 20 -6 4 -6 18 -1 36 5 19 5 28 -1 25 -11 -8 -11 -3 1 29 5 14 6 26 2
26 -4 0 -7 50 -7 111 1 71 -3 117 -11 127 -10 13 -32 16 -119 17 -104 0 -107
-1 -119 -25z m591 -2994 c-3 -8 -3 -17 0 -20 11 -11 10 -75 -1 -68 -6 3 -5 -2
3 -11 11 -14 11 -17 0 -17 -9 0 -10 -3 -3 -8 10 -7 15 -52 18 -169 0 -35 5
-63 10 -63 5 0 3 -6 -3 -13 -6 -8 -8 -16 -5 -20 7 -7 12 -64 16 -169 1 -46 6
-78 13 -78 5 0 4 -4 -4 -9 -9 -6 -10 -11 -2 -15 8 -5 8 -13 1 -26 -6 -10 -6
-21 -2 -24 5 -3 8 -29 7 -58 -1 -29 2 -65 6 -80 5 -17 4 -28 -2 -28 -6 0 -7
-6 -3 -12 8 -13 10 -36 16 -180 1 -42 5 -75 8 -73 3 2 5 -43 4 -98 0 -56 2
-106 5 -112 10 -18 8 -45 -3 -45 -8 0 -8 -2 0 -8 6 -4 10 -26 10 -50 -1 -23 1
-42 4 -42 7 0 4 -100 -5 -158 -4 -24 -9 -41 -12 -39 -3 3 -15 -4 -27 -16 -34
-36 -95 -22 -126 28 -17 28 -20 47 -18 129 2 53 7 96 12 96 5 0 3 6 -3 13 -6
8 -8 17 -5 20 4 3 7 47 8 96 1 49 4 93 8 96 4 4 3 17 -2 30 -5 13 -6 26 -2 29
6 6 7 35 14 233 2 55 6 99 10 96 5 -2 4 7 -1 20 -6 14 -7 28 -3 31 5 6 8 45
12 214 1 48 5 70 12 65 7 -4 8 -1 2 8 -13 22 -15 49 -3 49 8 0 8 4 0 14 -7 9
-8 17 -2 20 10 7 9 25 -2 44 -5 6 -5 12 0 12 4 0 9 42 10 93 1 50 4 128 7 172
2 44 5 88 5 98 1 9 6 17 12 17 6 0 9 -6 6 -14z"/>
</g>
</svg>
